<svg width="140" height="169" viewBox="0 0 140 169" fill="none" xmlns="http://www.w3.org/2000/svg">
<path d="M1.61197 115.153C2.1428 116.515 3.0137 117.697 4.01801 118.809C4.02359 118.833 4.04492 118.854 4.06346 118.862C4.79793 119.669 5.57964 120.466 6.34561 121.265C7.42409 122.412 8.50076 123.622 9.05849 125.028C9.57819 126.342 9.70682 127.759 9.86417 129.156C10.392 133.805 10.6264 138.979 14.7043 142.401C17.0094 144.329 20.8664 145.289 22.1662 147.894C22.3583 148.294 22.5346 148.697 22.6951 149.104C22.7007 149.128 22.7091 149.165 22.7146 149.189C22.7202 149.213 22.7388 149.221 22.7415 149.233C23.5861 151.449 24.0692 153.824 26.0165 155.569C27.271 156.687 28.9211 157.219 30.599 157.871C32.5763 158.67 33.8058 159.68 34.6899 161.277C36.1315 163.849 37.6564 166.352 40.2433 168.278C40.26 168.351 40.2767 168.423 40.3092 168.492C40.3584 168.632 40.6411 168.707 40.768 168.538C40.8949 168.369 40.9282 168.298 40.8818 168.169C40.9235 168.134 40.9438 168.078 40.9299 168.018C40.5973 166.509 41.6418 164.567 42.3473 163.097C43.15 161.401 44.0287 159.675 44.4884 157.932C44.7826 156.836 44.9896 155.722 45.0836 154.622C45.0808 154.61 45.078 154.597 45.078 154.597C45.1195 154.131 45.1452 153.668 45.1367 153.201C45.465 151.894 45.5588 150.362 44.9104 149.281C44.3613 146.693 43.3442 144.162 42.1761 141.768C40.9486 139.26 39.0632 136.993 38.048 134.399C37.0002 131.735 37.4289 128.997 37.2773 126.189C37.1453 123.682 36.6482 121.246 35.5868 118.954C33.4527 114.321 29.7516 110.089 29.2123 104.961C28.8864 101.902 29.6699 98.9037 30.977 95.8731C32.1462 93.1789 33.9495 90.6426 34.9787 87.9174C36.261 88.9404 37.2793 90.1133 37.4794 91.7674C37.8173 94.5189 36.9772 97.4161 37.4911 100.14C37.9855 102.779 39.6818 104.873 42.563 106.136C45.6083 107.461 49.2362 108.005 52.1416 109.515C55.1982 111.105 57.006 113.897 60.7073 114.83C62.6094 115.303 64.7207 115.246 66.6228 115.72C68.5063 116.185 69.4847 117.329 71.1005 118.072C73.7732 119.294 77.1285 119.735 80.3825 119.452C80.9534 119.409 81.5261 119.302 82.0961 119.183L82.1118 119.179C84.5361 118.682 86.9501 117.78 89.3756 117.79C91.0189 117.791 92.2102 118.492 93.7766 118.663C94.7971 118.769 95.8212 118.748 96.8722 118.556C97.6525 118.413 98.4031 118.214 99.1482 117.991C99.2612 117.978 99.3687 117.94 99.4734 117.89C101.116 117.384 102.711 116.748 104.375 116.262C105.728 115.872 107.159 115.528 108.574 115.544C110.438 115.569 112.087 116.165 113.883 116.396C115.692 116.612 117.639 116.276 119.489 116.381C121.592 116.504 123.706 116.814 124.989 118.129C125.008 118.137 125.01 118.149 125.029 118.157C125.037 118.194 125.033 118.245 125.023 118.273C124.983 118.46 125.317 118.471 125.413 118.31C125.848 117.537 124.73 116.361 124.379 115.707C123.71 114.466 123.023 113.216 122.307 111.986C120.922 109.591 119.192 107.276 118.311 104.688C117.476 102.229 116.889 99.6873 116.574 97.1081C116.469 96.2949 116.395 95.4745 116.337 94.6504C116.334 94.6383 116.334 94.6383 116.332 94.6263C116.332 94.6263 116.332 94.6263 116.329 94.6142C116.208 93.1576 116.084 91.689 115.821 90.2652C115.862 90.2302 115.901 90.1831 115.887 90.1229C115.706 88.0459 113.917 86.5563 113.011 84.7228C111.955 82.5944 111.318 80.3435 110.416 78.1666C109.595 76.1993 108.63 74.1767 107.013 72.5711C105.312 70.8838 103.271 69.4525 101.627 67.7265C99.6544 65.6577 98.0767 63.358 96.3396 61.1586C96.3943 61.1079 96.4091 61.0283 96.3164 60.9863C96.2765 60.9575 96.2051 60.9359 96.1523 60.9228C94.8864 59.325 93.5472 57.7695 91.8996 56.3869C89.983 54.7746 87.8033 53.3882 85.3846 52.2602C84.1554 51.6817 82.8307 51.2649 81.5468 50.7371C80.7394 50.4037 79.6863 50.0129 79.0131 49.4707C81.6511 49.8248 84.4214 49.8183 87.1459 49.1118C88.9622 48.6408 90.6811 47.964 92.4678 47.4364C94.2072 46.9198 95.766 46.6987 97.4417 46.7678C97.476 46.7726 97.5131 46.7894 97.5474 46.7941C97.5817 46.7989 97.6132 46.7916 97.6419 46.7723C97.8922 46.7778 98.1452 46.7954 98.401 46.825C101.913 47.1546 105.658 46.7703 109.111 45.5527C112.994 44.1849 116.602 42.132 120.867 42.0588C125.032 41.9834 129.197 42.5551 133.1 43.3526C133.917 43.6583 134.813 43.8699 135.669 44.1285C136.914 44.4876 138.097 44.9373 139.385 45.1975C139.56 45.2333 139.8 45.0509 139.685 44.9126C139.612 44.8151 139.543 44.7297 139.473 44.6442C139.398 44.1034 138.952 43.6102 138.633 43.1637C138.464 42.9363 138.295 42.7089 138.095 42.4887C138.118 42.4453 138.123 42.3935 138.08 42.3526C135.784 38.8866 131.194 36.624 129.495 32.8677C127.921 29.3618 125.907 26.1097 122.757 23.3997C121.288 22.1409 119.64 20.7583 117.704 19.9245C115.787 19.0991 113.638 18.8477 111.522 18.3854C106.143 17.2317 104.464 12.9126 100.492 10.38C98.9946 9.43217 97.3807 8.84117 95.4305 8.51833C94.5147 8.36222 93.573 8.23749 92.6442 8.09706C92.4459 8.02875 92.2215 7.99183 91.9871 7.98264C91.277 7.85505 90.5828 7.72383 89.9061 7.52508C85.8488 6.34469 82.9836 3.86066 79.331 2.20593C76.2375 0.815238 72.7218 0.397775 69.021 0.327703C67.0033 0.286955 64.9522 0.317364 62.9345 0.276615C61.0326 0.234437 59.1427 0.100662 57.2039 0.257391C55.5097 0.395571 53.5338 0.535475 51.9409 1.18318C50.5287 1.751 49.3724 2.56415 48.3256 3.49156C45.6668 5.84512 44.5311 8.8995 43.0496 11.6786C41.4755 14.6314 40.5272 17.9216 39.8791 21.0027C39.4529 23.1062 39.0161 26.24 41.1985 27.6385C41.2013 27.6505 41.2199 27.6589 41.2255 27.683C40.3696 28.7185 40.3109 29.8995 39.9806 31.0545C39.4718 32.8726 38.1667 34.6211 36.7458 36.1553C34.6495 38.4295 31.5616 40.7935 31.5427 43.6529C31.5327 45.9774 34.4592 46.8611 36.7867 47.4519C38.3746 47.8586 39.9551 48.305 41.5615 48.7201C41.0281 49.6429 41.0582 50.5623 40.9994 51.5276C40.9517 52.5411 40.9198 53.5509 40.9194 54.5534C40.8693 54.5523 40.8378 54.5596 40.7933 54.5826C40.7776 54.5862 40.7618 54.5899 40.7303 54.5972C40.3059 54.7715 39.927 54.9988 39.5962 55.291C37.5303 57.0506 36.0986 59.3994 34.6687 61.4687C33.624 62.9793 32.7091 64.5487 32.227 66.1956C31.7626 67.775 31.2962 69.2026 30.4174 70.7129C30.2526 71.0048 30.0849 71.2847 29.9201 71.5766L29.9044 71.5803C29.8886 71.5839 29.8701 71.5755 29.8386 71.5828C29.6727 71.5831 29.3354 71.7754 29.3067 71.7947C28.7702 72.0584 28.2179 72.3258 27.7324 72.6665C26.5706 73.4555 25.5608 74.3998 24.8079 75.4495C24.6217 75.721 24.4383 76.0045 24.2707 76.2844C15.8371 79.0731 8.06902 85.743 6.31997 92.746C5.77609 94.9148 5.61407 97.0841 4.76433 99.2221C3.95532 101.249 2.87194 103.238 2.04717 105.269C0.738328 108.579 0.378583 111.974 1.61197 115.153ZM4.34413 118.569C4.63188 117.589 4.70089 116.596 5.14896 115.591C5.73035 114.302 6.4545 113.056 7.33995 111.861C9.07191 109.519 11.2684 107.463 13.5677 105.421C15.5623 103.64 17.4669 101.828 19.1138 99.8359C20.1873 98.5216 21.6389 97.1199 22.1516 95.6055C22.721 97.9228 23.5868 100.159 24.2794 102.435C24.2428 103.281 23.5492 104.444 23.1445 105.134C22.4102 106.408 21.5387 107.662 20.5874 108.86C18.7729 111.132 16.7202 113.307 14.8473 115.543C13.1531 117.546 11.6017 119.593 10.8355 121.876C10.4875 122.883 9.92368 124.105 9.66199 125.269C9.46522 124.706 9.22395 124.165 8.88819 123.646C7.6768 121.782 5.83256 120.268 4.34413 118.569ZM10.5724 131.213C10.3946 129.655 10.3446 128.005 9.98513 126.451C10.2269 124.339 11.0107 121.988 12.1052 120.047C13.4701 117.625 15.4774 115.397 17.4115 113.211C19.3846 110.978 21.3131 108.768 22.8865 106.386C23.3903 105.623 24.2285 104.439 24.5125 103.371C24.6314 103.813 24.7502 104.255 24.8348 104.692C25.33 106.976 25.7204 109.309 26.0923 111.634C25.6914 114.277 24.2931 116.555 22.4082 118.882C20.565 121.173 18.8655 123.584 17.3476 125.991C15.7835 128.485 14.2666 130.967 13.3337 133.607C12.9292 134.728 12.5248 135.85 12.2232 136.985C12.1399 137.271 12.0623 137.581 12.0003 137.887C11.141 135.751 10.8145 133.479 10.5724 131.213ZM12.4679 138.832C12.4723 136.484 13.6295 133.881 14.6358 131.631C15.7625 129.111 17.334 126.578 18.9918 124.202C19.8661 122.959 20.6876 121.703 21.6147 120.474C22.5187 119.287 23.5311 118.14 24.3452 116.923C25.1 115.81 26.0418 114.285 26.3191 112.901C26.3647 113.17 26.413 113.45 26.4428 113.723C26.5898 116.582 27.0101 119.403 27.6511 122.173C27.406 123.194 27.3407 124.275 26.787 125.254C26.1147 126.437 25.2385 127.528 24.2909 128.597C22.6189 130.482 20.8997 132.377 19.4474 134.35C18.0832 136.201 16.8756 138.155 16.251 140.19C16.0132 140.956 15.7468 141.956 15.9835 142.764C15.6859 142.554 15.3883 142.344 15.1166 142.102C14.0012 141.155 13.0997 140.056 12.4679 138.832ZM19.7772 144.958C18.724 144.351 17.6218 143.819 16.6131 143.19C15.8624 141.524 16.9465 139.179 17.8818 137.554C18.9949 135.622 20.3332 133.802 21.843 132.006C24.2948 129.117 27.5216 126.276 27.8498 122.889C28.5073 125.515 29.3567 128.111 30.3895 130.638C30.5853 131.126 30.7496 131.62 30.9139 132.115C30.7173 133.633 30.808 135.173 30.1609 136.68C29.424 138.373 28.283 139.97 27.0622 141.508C25.9424 142.909 24.7669 144.285 23.8297 145.758C23.4009 146.416 22.9731 147.149 22.7585 147.872C22.1007 146.679 21.1141 145.714 19.7772 144.958ZM24.7352 152.972C24.0431 151.559 23.6864 150.017 23.073 148.586C24.051 145.352 26.8061 142.697 28.8566 139.723C30.4597 137.398 31.1463 135.272 31.121 132.867C31.7171 135.013 32.0111 137.216 32.4896 139.428C32.7162 140.479 32.9327 141.559 33.3012 142.577C32.9451 145.845 29.964 148.527 28.6763 151.642C28.0811 153.086 27.3259 155.202 28.3535 156.487C26.6838 155.655 25.471 154.502 24.7352 152.972ZM29.2991 156.916C29.1906 156.877 29.0794 156.827 28.9839 156.773C27.6203 154.538 28.9805 151.952 30.3019 149.629C31.4455 147.613 33.4167 145.444 33.6074 143.255C33.6482 143.36 33.6891 143.465 33.7457 143.566C34.28 144.584 35.1249 145.581 35.5518 146.637C35.6661 147.347 36.0724 148.027 36.5047 148.676C37.1632 149.729 36.6218 151.263 36.2202 152.396C35.8111 153.569 35.238 154.679 34.6917 155.833C34.1788 156.916 33.7809 158.138 33.9214 159.247C32.7113 158.106 30.9955 157.576 29.2991 156.916ZM34.5335 159.956C34.2669 158.875 34.2979 157.79 34.8126 156.643C35.2986 155.515 35.9274 154.431 36.3606 153.29C36.7225 152.343 37.3214 150.986 37.2254 149.854C37.9091 151.015 38.627 152.182 39.1745 153.4C39.8138 154.8 40.2511 156.26 40.4678 157.771C40.5738 158.444 40.601 159.136 40.6282 159.827C40.4111 161.184 38.913 162.242 38.0804 163.449C37.7803 163.874 37.5285 164.364 37.487 164.83C37.1976 164.44 36.9055 164.038 36.6448 163.629C35.937 162.435 35.3932 161.089 34.5335 159.956ZM40.0956 167.64C39.3946 166.977 38.738 166.292 38.1259 165.583C38.0172 164.898 37.9705 164.338 38.4883 163.634C38.8949 163.096 39.3599 162.595 39.8036 162.074C40.1695 161.646 40.4983 161.202 40.6927 160.751C40.6964 160.839 40.7002 160.927 40.7011 161.003C40.5711 162.378 40.3911 163.752 40.1824 165.146C40.0771 165.982 39.9876 166.815 40.0956 167.64ZM40.8952 165.285C40.7628 165.646 40.6518 166.027 40.5408 166.408C40.5726 165.182 40.8907 163.903 41.031 162.716C41.2803 160.78 41.4739 158.819 41.2338 156.921C41.1575 156.304 41.021 155.714 40.8687 155.127C41.2581 155.519 41.7495 155.85 42.1316 156.282C43.0321 157.304 43.2384 158.411 43.2863 159.694C43.2891 159.706 43.2947 159.73 43.3132 159.739C43.2012 160.044 43.0735 160.353 42.9429 160.649C42.2542 162.192 41.4282 163.715 40.8952 165.285ZM43.7612 158.519C43.7164 157.895 43.4955 157.298 43.1597 156.78C42.5392 155.819 41.4619 155.18 40.6532 154.34C39.919 152.099 38.676 150.026 37.4459 147.938C37.6536 148.118 37.8743 148.283 38.1209 148.416C39.1231 148.945 40.3383 149.248 41.3016 149.825C42.3019 150.418 43.2615 151.122 43.8339 152.018C44.1937 152.569 44.3933 153.144 44.5957 153.732C44.5659 155.325 44.2729 156.928 43.7612 158.519ZM24.287 77.3592C24.6539 78.8732 26.3468 79.8773 28.0562 80.5223C28.4136 81.7086 29.0491 82.8051 29.8939 83.8024C29.1136 85.8102 28.0673 87.8161 27.2055 89.83C26.661 89.0551 25.4753 88.3777 24.8392 87.8523C23.809 86.9867 23.0096 86.0423 22.529 84.8973C22.5727 83.3645 22.7795 81.8193 23.2023 80.2749C23.4743 79.2984 23.8278 78.3156 24.287 77.3592ZM27.4357 90.5381C27.4487 90.5224 27.4774 90.5031 27.469 90.467C27.469 90.467 27.4662 90.4549 27.4634 90.4429C28.3058 88.3446 29.3984 86.2519 30.2092 84.1609C30.5161 84.4833 30.8203 84.7936 31.1717 85.0929C31.8718 85.6796 32.645 86.224 33.4155 86.7564C32.6433 88.3689 30.4242 89.466 28.7304 90.467C28.218 90.7632 27.5593 91.144 27.0303 91.5836C27.1654 91.2351 27.3005 90.8866 27.4357 90.5381ZM22.5165 85.9914C22.8589 86.6101 23.3874 87.1731 23.8937 87.6396C24.6105 88.2986 25.4422 88.8802 26.1747 89.5356C26.4464 89.7772 26.6644 90.1455 26.9703 90.392C26.3705 91.8885 25.8893 93.3957 25.7455 94.9263C24.5014 94.2117 23.6703 93.0589 23.1183 91.8923C22.9798 91.1503 22.8701 90.3889 22.7788 89.636C22.6188 88.4422 22.5348 87.2181 22.5165 85.9914ZM27.9993 110.837C27.6906 110.579 27.4263 110.297 27.2324 109.962C27.1561 109.345 27.064 108.732 26.9562 108.122C26.6624 106.35 26.2584 104.604 25.807 102.868C26.1279 103.251 26.5451 103.548 27.0216 103.742C27.1944 104.489 27.3672 105.235 27.5112 106.001C27.7947 107.585 27.9865 109.203 27.9993 110.837ZM26.9148 103.208C26.4549 102.871 26.058 102.518 25.7621 102.028C25.6545 101.85 25.5627 101.668 25.4708 101.487C24.7493 98.7985 23.9963 96.1177 23.4166 93.3967C23.9434 94.2392 24.7427 94.9679 25.7115 95.3529C25.717 95.377 25.7096 95.4167 25.6995 95.4445C25.5757 98.1379 26.2768 100.666 26.9148 103.208ZM27.3264 110.727C27.5267 110.947 27.7557 111.147 28.0135 111.329C28.0298 112.404 28.3037 113.444 28.8084 114.406C30.0738 116.791 32.4345 118.744 33.409 121.234C33.5751 121.666 33.694 122.108 33.7655 122.56C33.7805 122.697 33.7953 122.833 33.826 122.965C33.8884 123.522 33.8877 124.093 33.8371 124.663C32.8775 122.309 29.3818 120.973 28.3064 118.621C27.8991 116 27.6679 113.35 27.3264 110.727ZM33.1171 119.614C32.1237 118.118 30.7652 116.694 29.7894 115.131C29.8167 114.173 30.0795 113.3 30.5229 112.347C30.6461 112.09 30.8053 111.774 30.9145 111.457C32.0185 113.575 33.3246 115.633 34.4156 117.766C34.4419 118.382 34.3578 119.023 34.2006 119.706C34.0906 120.163 33.9648 120.624 33.8732 121.089C33.6904 120.586 33.4445 120.097 33.1171 119.614ZM28.4366 119.543C28.8559 120.207 29.4772 120.812 30.0845 121.356C30.8226 122.036 31.6728 122.626 32.3405 123.36C33.048 124.122 33.3608 124.9 33.6829 125.79C33.4731 127.107 33.0975 128.425 32.822 129.745C32.601 130.799 32.5302 131.856 32.6039 132.892C32.4646 132.29 32.3123 131.703 32.11 131.115C31.632 129.767 31.0177 128.475 30.4637 127.157C29.4476 124.702 28.8569 122.148 28.4366 119.543ZM40.0749 143.446C39.4019 143.12 38.6408 142.915 37.8872 142.671C36.3086 142.161 35.1681 141.321 34.0684 140.37C33.7035 139.007 33.4303 137.611 33.2145 136.177C33.1578 135.86 33.1197 135.551 33.063 135.235C33.2663 135.898 33.5326 136.547 33.8777 137.178C35.2822 139.733 37.7661 141.43 40.0749 143.446ZM36.3838 142.486C37.8828 143.154 39.5495 143.543 40.9735 144.317C40.9735 144.317 40.9892 144.314 40.992 144.326C42.9078 146.293 44.0935 148.62 44.4637 151.225C44.5046 151.545 44.5428 151.854 44.568 152.178C44.1153 151.369 43.4346 150.651 42.6456 150.11C41.6017 149.4 40.4142 149.002 39.1988 148.484C38.2032 148.054 37.5782 147.361 36.7836 146.797C36.5572 146.392 36.3151 145.991 36.086 145.575C35.2557 144.067 34.6701 142.54 34.2078 140.972C34.8133 141.58 35.5337 142.112 36.3838 142.486ZM42.1179 144.027C42.0983 143.727 42.1102 143.42 42.1722 143.114C42.8264 144.65 43.399 146.192 43.9902 147.743C43.5569 146.803 43.0087 145.94 42.3558 145.127C42.3037 144.758 42.1357 144.391 42.1179 144.027ZM41.5133 141.629C41.6757 141.972 41.8196 142.307 41.9662 142.654C41.6717 143.102 41.62 143.597 41.6342 144.088C41.6323 144.152 41.6333 144.228 41.65 144.3C41.0519 143.652 40.3935 143.03 39.6406 142.43C38.9888 141.909 38.35 141.371 37.7296 140.842C37.5651 139.916 37.2774 139.031 37.3362 138.065C37.3988 137.188 37.6755 136.375 37.9753 135.519C39.0209 137.6 40.4779 139.521 41.5133 141.629ZM37.4307 134.313C37.5476 134.603 37.6617 134.881 37.7916 135.156C36.7617 136.587 36.4986 138.678 37.0583 140.236C35.723 138.984 34.5786 137.625 33.9021 135.992C33.8449 134.597 34.1473 133.321 34.9511 131.917C35.59 130.805 36.2633 129.698 36.7437 128.546C36.7345 130.515 36.6956 132.427 37.4307 134.313ZM36.7605 126.969C36.7588 127.248 36.7729 127.524 36.7684 127.792C35.8757 129.457 34.7903 131.079 34.0034 132.771C33.7497 133.325 33.5359 133.907 33.4166 134.468C32.863 131.931 33.4799 129.504 34.0282 126.852C34.3758 125.198 34.5113 123.632 34.1815 122.134C34.3032 120.939 34.6696 119.725 34.7812 118.557C36.0606 121.217 36.7229 124.008 36.7605 126.969ZM30.6334 110.888C30.3708 111.976 29.4853 113.171 29.307 114.265C29.0231 113.684 28.7864 113.092 28.6731 112.458C28.3849 110.926 28.5352 109.28 28.3416 107.725C28.2374 106.988 28.136 106.263 27.9846 105.537C28.14 104.917 28.3297 104.302 28.5351 103.684C28.5656 103.6 28.5777 103.509 28.6054 103.414C28.5991 103.745 28.6085 104.073 28.6337 104.397C28.8212 106.714 29.6119 108.84 30.6334 110.888ZM28.7343 101.747C28.403 102.61 28.2032 103.469 27.8718 104.332C27.8385 104.403 27.808 104.486 27.7774 104.569C27.7133 104.292 27.665 104.012 27.6037 103.747C27.6009 103.735 27.5953 103.711 27.5925 103.699C27.5619 103.566 27.534 103.446 27.5034 103.313C27.2971 102.422 27.0594 101.538 26.8532 100.647C26.9005 100.636 26.9264 100.604 26.9366 100.577C27.3994 99.2767 28.119 98.2981 29.1898 97.1875C29.6734 96.6949 30.1254 96.2097 30.5404 95.7076C30.4201 95.9765 30.2969 96.2334 30.1923 96.4987C29.5009 98.2449 28.9596 99.9943 28.7343 101.747ZM31.0635 94.5968C30.1382 95.7626 28.9848 96.8035 27.9483 97.9189C27.3897 98.5176 26.858 99.1608 26.6693 99.8517C26.3423 98.3665 26.1284 96.868 26.2323 95.3085C26.2425 95.2808 26.2499 95.241 26.2415 95.2049C26.2654 94.806 26.3208 94.3998 26.392 93.99C26.4659 93.5922 26.5584 93.2028 26.6666 92.8098C27.4204 91.4045 29.2274 90.8215 30.6394 89.8223C31.7669 89.0285 33.3328 88.1206 33.7048 86.9305C34.045 87.1817 34.3983 87.4172 34.7228 87.6721C33.6415 90.0287 32.219 92.2738 31.0635 94.5968ZM34.0493 86.4828C33.0239 85.7811 32.0244 85.0479 31.1555 84.2338C30.3372 82.4183 30.5399 80.138 30.8735 78.2082C31.3152 75.6697 32.3103 73.1554 33.4166 70.6916C34.4924 68.3109 35.4382 65.6557 37.2435 63.4869C38.3615 62.1497 39.5462 60.6701 40.2034 59.1349C40.316 59.9083 40.523 60.6598 40.7959 61.4088C40.6239 64.0372 39.4241 66.5989 38.5801 69.1924C37.7565 71.7304 37.1258 74.3127 36.7897 76.8775C36.233 81.143 36.4001 85.3806 37.2002 89.4845C36.4776 88.37 35.4067 87.3996 34.0493 86.4828ZM38.4222 101.295C37.4995 98.5261 38.2729 95.5555 38.1861 92.6698C38.1907 92.6179 38.1796 92.5698 38.1684 92.5216C38.1944 92.4902 38.2203 92.4588 38.2119 92.4227C37.4557 87.0017 36.5697 81.7376 37.4779 76.1219C37.9509 73.1447 38.7827 70.2114 39.8146 67.2825C40.2718 65.9586 41.257 64.1191 41.3322 62.579C41.7757 63.4916 42.3267 64.3665 42.9239 65.1547C43.3283 65.6829 43.7614 66.1918 44.2075 66.685C44.8396 68.5563 45.1992 70.3257 45.1668 72.3381C45.1298 74.1866 44.9583 76.0282 44.7266 77.8963C44.2337 81.7918 43.8223 85.681 43.9689 89.5427C44.1107 93.2405 44.5065 97.0318 45.4 100.607C45.9331 102.767 46.22 105.657 48.0097 107.439C47.7056 107.344 47.4201 107.258 47.1189 107.175C43.3016 106.028 39.5259 104.63 38.4222 101.295ZM41.7075 57.0993C42.4035 56.9509 42.8945 56.4186 43.3048 55.9684C44.0477 55.162 44.8491 54.3929 45.5521 53.5577C46.7924 52.1034 47.9215 50.8143 49.7747 49.9288C51.9843 49.9378 54.1687 49.6228 56.2897 48.6752C57.9159 47.9564 59.5763 47.0266 61.3631 46.7147C63.1341 46.4065 65.0878 46.3859 66.86 46.585C65.5608 46.9236 64.2006 47.6444 63.3908 48.1617C61.0105 49.6387 58.8204 51.3636 56.6905 53.0618C54.4642 54.8458 52.225 56.6455 50.0599 58.4788C48.9371 59.4364 47.8727 60.4314 46.71 61.3602C45.8419 62.0559 44.9729 62.8914 43.7691 63.0684C42.6235 61.2017 41.9107 59.1968 41.6519 57.0741C41.6733 57.0945 41.6918 57.1029 41.7075 57.0993ZM55.4048 41.8375C54.5076 40.0401 54.0163 38.0601 54.1302 36.0415C54.2497 34.047 54.6295 31.8147 55.3681 29.8419C55.5976 29.2559 56.0772 28.244 55.8452 27.5998C56.837 27.7256 57.8102 27.8431 58.7992 27.9569C61.3388 28.2448 63.9118 28.4617 66.4904 28.7026C67.6097 29.9536 66.7739 32.1519 66.643 33.6668C66.4799 35.5445 66.4485 37.4171 66.8192 39.2347C67.1806 40.9402 67.7412 42.5743 68.4752 44.1683C68.9354 45.1531 69.4827 46.1558 70.3951 46.8711C69.8825 46.7359 69.3569 46.6164 68.8341 46.5089C68.747 46.491 68.6599 46.4731 68.5727 46.4552C66.3657 46.0268 64.0384 45.8674 61.6919 46.2707C61.3239 46.3304 60.9458 46.4179 60.5891 46.5258C58.1798 45.7255 56.3316 43.6914 55.4048 41.8375ZM41.8286 27.277C42.8245 26.4882 44.7282 26.4665 45.9646 26.3582C47.6087 26.2189 49.2408 26.1712 50.8434 26.2826C54.5072 26.5516 58.1276 26.9194 61.6823 27.5055C68.0687 28.5658 74.7975 28.5952 81.0385 30.0317C84.3533 30.8002 87.6448 31.6121 91.0262 32.2383C94.2176 32.8323 97.5302 33.0176 100.783 33.4452C104.191 33.9003 107.418 34.7906 110.841 35.242C113.907 35.6495 117.036 35.6869 119.996 36.3597C120.012 36.356 120.012 36.356 120.028 36.3524C121.03 36.6662 122.242 36.741 123.239 37.0307C124.716 37.4629 126.249 37.8444 127.618 38.4539C128.079 38.6519 128.542 38.8618 129.006 39.0718C128.151 38.7493 127.296 38.4268 126.429 38.12C123.921 37.2535 121.336 36.6969 118.6 36.2768C116.811 36.0055 114.992 35.8932 113.178 35.7292C113.144 35.7244 113.091 35.7113 113.057 35.7065C113.046 35.6584 113.019 35.6138 112.934 35.608C109.556 35.4252 106.342 34.5191 103.068 33.9952C100.067 33.5092 97.014 33.2259 93.9729 32.8509C90.7946 32.4569 87.7275 31.8975 84.6899 31.1791C81.7422 30.4907 78.7779 29.7299 75.6969 29.3261C69.3004 28.5092 62.8133 28.0179 56.4067 27.2288C51.8362 26.7001 46.5658 25.8003 41.8286 27.277ZM42.5878 62.1236C43.7345 64.2819 45.3686 66.2514 47.3834 67.9297C49.6644 69.8256 52.4187 71.2567 55.0434 72.8447C57.9545 74.5948 60.7693 76.4307 63.6387 78.2158C66.4312 79.9553 69.6322 81.3085 72.3571 83.1144C75.082 84.9203 77.9356 86.4934 80.8763 88.0844C83.2097 89.3464 85.3292 90.7594 87.7117 91.9466C88.8939 92.7517 90.2066 93.4758 91.4276 94.2338C93.2086 95.3318 94.9294 96.4564 96.6011 97.6558C99.2481 99.5558 101.793 101.517 104.297 103.514C103.396 102.847 102.51 102.176 101.606 101.497C98.9126 99.4685 96.1024 97.5808 93.0782 95.8441C91.4892 94.9302 89.9733 93.9739 88.4676 92.9899C87.4107 92.2954 86.3009 91.5878 85.0022 91.1396C83.1006 89.8792 80.9202 88.8482 78.9121 87.7013C76.2755 86.2049 73.7898 84.5721 71.1272 83.1071C68.4674 81.6541 65.7613 80.288 63.1821 78.7529C60.5472 77.1927 57.9652 75.6455 55.4397 73.9839C53.2461 72.5372 50.7171 71.4347 48.6069 69.918C46.9324 68.7066 45.3747 67.3539 44.1153 65.8561C41.4602 62.7017 40.21 59.2349 40.9336 55.2607C40.943 55.3728 40.9365 55.4885 40.9301 55.6042C41.0564 57.8717 41.5247 60.1109 42.5878 62.1236ZM93.1679 91.7121C95.6652 90.7409 98.1597 89.7578 100.633 88.7541C103.743 87.489 110.393 84.2374 113.403 86.3452C114.163 87.4764 114.951 88.5883 115.363 89.8636C115.36 91.2855 115.457 92.7096 115.617 94.1191C115.511 94.0928 115.374 94.0738 115.218 94.0464C114.273 93.8337 113.45 93.7196 112.424 93.8047C110.667 93.9574 108.906 94.4536 107.26 95.0882C104.202 96.2905 101.329 98.148 97.9248 97.9967C95.2805 96.1087 92.5269 94.3221 89.5936 92.6913C89.6065 92.6756 89.6038 92.6636 89.6139 92.6358C90.7762 92.7095 92.0855 92.1275 93.1679 91.7121ZM117.592 104.448C117.712 104.826 117.862 105.185 118.011 105.544C117.157 105.297 115.868 105.392 115.21 105.418C112.891 105.51 110.309 106.4 108.104 105.907C107.577 105.496 107.053 105.097 106.542 104.682C103.86 102.486 101.12 100.328 98.2734 98.284C100.645 98.6362 103.187 97.4263 105.315 96.439C106.844 95.73 108.41 95.0378 110.099 94.6598C111.107 94.4265 112.302 94.1375 113.311 94.1958C113.967 94.2343 114.964 94.3083 115.664 94.5396C115.758 95.3046 115.839 96.0852 115.931 96.8382C116.258 99.4017 116.754 101.977 117.592 104.448ZM51.4349 108.613C50.6646 108.296 49.871 108.023 49.0674 107.778C47.7498 106.674 47.1827 105.156 46.8001 103.645C46.3878 102.078 45.944 100.519 45.6419 98.9263C44.9496 95.2163 44.4897 91.3636 44.5017 87.5414C44.5146 83.7951 45.0938 80.0574 45.483 76.2874C45.6638 74.5579 45.8047 72.7996 45.6908 71.0876C45.6291 70.1755 45.549 69.255 45.2983 68.3867C45.2045 68.0531 45.069 67.7545 44.9178 67.4596C45.63 68.1704 46.3838 68.8462 47.1923 69.4712C49.1153 70.9678 51.3986 72.013 53.4986 73.3417C54.8868 76.6877 54.4059 80.4915 53.9805 84.1049C53.5754 87.6627 52.8756 91.238 52.6179 94.7872C52.3444 98.34 52.4945 101.858 53.2832 105.267C53.7151 107.134 54.1898 109.257 55.2732 110.999C54.1133 110.074 52.9543 109.226 51.4349 108.613ZM65.9829 115.107C64.0309 114.848 61.9131 114.805 60.1425 114.11C58.9754 113.657 57.9722 113.052 57.0367 112.38C54.8111 109.862 54.0085 106.393 53.5213 103.283C52.9569 99.6956 53.0004 96.0818 53.4249 92.3926C53.8457 88.831 54.4825 85.2703 54.7874 81.7102C54.9191 80.0555 54.9693 78.407 54.8563 76.7709C54.7825 75.7347 54.656 74.6854 54.1624 73.7718C56.5229 75.294 58.8074 76.8465 61.3003 78.2239C62.6901 78.9936 64.0825 79.7754 65.4723 80.5452C66.0995 82.037 65.902 83.6942 65.7935 85.3054C65.6749 87.1601 65.6378 89.0086 65.5507 90.8561C65.3968 94.2797 65.0769 97.7037 65.0202 101.117C64.9635 104.316 64.916 107.626 65.7897 110.685C66.1649 112.019 66.7077 113.289 67.3451 114.538C67.5316 114.913 67.7338 115.285 67.9777 115.622C67.3585 115.385 66.7031 115.207 65.9829 115.107ZM74.7822 118.705C72.8468 118.302 71.4275 117.692 69.9663 116.685C69.6715 116.487 69.3794 116.3 69.0744 116.13C68.2917 115.258 67.8565 114.166 67.375 113.16C66.7069 111.78 66.2483 110.3 66.0159 108.793C65.4812 105.477 65.5509 102.048 65.7132 98.6604C65.8773 95.209 66.1202 91.7394 66.2343 88.2869C66.291 86.7384 66.4292 85.1837 66.4702 83.6389C66.4891 82.6447 66.4562 81.7133 66.0239 80.849C67.2041 81.5023 68.3685 82.1592 69.5588 82.7847C71.6615 83.9098 73.6677 85.1206 75.6898 86.3277C75.9917 87.7044 76.5429 89.0108 76.7058 90.4324C76.9041 92.1503 76.8475 93.9145 76.8382 95.6678C76.8306 98.7911 76.7256 101.924 76.881 105.035C77.0448 108.182 77.3615 111.345 78.2398 114.352C78.6084 115.586 79.2325 118.069 80.8651 118.884C78.8327 119.138 76.8205 119.122 74.7822 118.705ZM84.7639 118.159C83.7454 118.42 82.7288 118.617 81.7353 118.771C80.3096 118.276 79.5681 116.291 79.2126 115.256C78.7698 113.988 78.4318 112.671 78.2068 111.34C77.7169 108.433 77.4475 105.475 77.4386 102.495C77.4277 99.3635 77.4484 96.2245 77.419 93.0844C77.3993 90.9191 77.2721 88.5756 76.2071 86.6268C76.7457 86.9463 77.2844 87.2658 77.8388 87.5816C80.3855 89.0481 83.1092 90.3467 85.5365 91.9423C85.5949 91.9795 85.6635 91.989 85.7422 91.9708C86.0102 92.1245 86.2809 92.2903 86.5674 92.4525C87.1816 93.7442 86.7644 95.3127 86.5584 96.7181C86.3848 97.9764 86.1769 99.23 86.0219 100.497C85.683 103.05 85.5731 105.587 85.6105 108.117C85.6329 110.294 85.8398 112.479 86.624 114.506C87.1548 115.868 87.9858 116.805 89.2966 117.377C87.7859 117.447 86.2865 117.782 84.7639 118.159ZM92.2886 117.827C91.6722 117.602 91.0465 117.48 90.419 117.422C89.1861 116.971 88.246 116.351 87.6504 115.284C87.1058 114.293 86.7605 113.231 86.5728 112.132C86.1665 109.803 86.2367 107.451 86.2513 105.075C86.2565 102.587 86.638 100.075 87.0223 97.5752C87.2264 96.2336 87.8464 94.2503 87.284 92.8957C90.1868 94.6097 93.0608 96.343 95.8543 98.1584C95.8571 98.1705 95.8599 98.1825 95.8627 98.1946C96.7281 99.5678 95.9266 101.771 95.7541 103.321C95.5409 105.197 95.4612 107.005 95.59 108.853C95.7356 110.774 95.9201 112.647 96.4493 114.504C96.8179 115.738 97.4024 116.974 98.6605 117.749C96.4818 118.303 94.3521 118.568 92.2886 117.827ZM99.2925 117.539C99.2712 117.518 99.2684 117.506 99.2471 117.486C97.2918 116.352 96.7985 114.005 96.5139 112.129C96.2349 110.277 95.9893 108.355 96.0495 106.463C96.0912 104.778 96.2535 103.04 96.5399 101.337C96.6896 100.478 96.8958 99.5036 96.6377 98.6751C98.5792 99.9644 100.492 101.273 102.324 102.664C103.289 103.392 104.254 104.12 105.233 104.833C105.626 105.96 105.478 107.187 105.52 108.37C105.557 109.466 105.788 110.605 106.159 111.636C106.525 112.643 106.943 113.662 107.642 114.529C107.872 114.805 108.098 114.994 108.363 115.136C108.031 115.136 107.705 115.161 107.366 115.201C104.684 115.517 101.976 116.728 99.2925 117.539ZM116.885 115.956C114.672 116.074 112.903 115.748 110.839 115.362C110.456 115.286 110.063 115.237 109.673 115.201C109.183 115.022 108.699 114.868 108.363 114.489C108.002 114.077 107.717 113.636 107.474 113.159C106.905 112.06 106.505 110.909 106.277 109.705C106.028 108.342 106.317 106.651 105.833 105.278C107.394 106.427 108.983 107.556 110.627 108.635C111.957 109.508 113.303 110.376 114.714 111.167C114.77 111.192 114.828 111.229 114.884 111.254C115.136 111.412 115.388 111.569 115.641 111.726C118.26 113.29 121.578 114.718 123.808 116.752C121.864 115.882 119.18 115.831 116.885 115.956ZM123.227 114.818C123.513 115.336 123.799 115.853 124.085 116.371C123.406 115.805 122.609 115.304 121.924 114.853C120.751 114.084 119.496 113.397 118.255 112.695C117.763 112.364 117.23 112.069 116.682 111.777C113.81 110.056 111.111 108.219 108.548 106.249C109.905 106.518 111.356 106.335 112.878 106.097C114.063 105.912 117.193 105.378 118.279 106.129C119.075 107.848 120.118 109.485 121.098 111.136C121.827 112.351 122.543 113.581 123.227 114.818ZM112.349 84.5843C112.538 84.972 112.774 85.3487 113.008 85.7133C112.057 85.2609 110.598 85.2684 109.549 85.397C107.593 85.6212 105.672 86.3575 103.856 87.0442C101.109 88.0857 98.4402 89.2487 95.6964 90.3023C94.5539 90.7443 93.4215 91.1585 92.2762 91.5885C91.2698 91.9736 90.0513 92.4458 88.9844 92.2105C86.3274 90.7695 83.8343 89.1765 81.1643 87.7513C79.3055 86.7474 77.494 85.7327 75.7214 84.6708C77.9892 84.5014 80.5261 82.9121 82.3468 81.9579C84.9236 80.613 87.4763 79.2357 90.1923 78.0617C93.0889 76.8078 96.1319 75.4693 99.1965 74.5827C100.626 74.163 102.107 73.8204 103.591 73.7055C104.796 73.6044 106.345 73.487 107.41 73.926C108.4 75.1942 109.14 76.5966 109.74 78.0438C110.671 80.2014 111.276 82.4596 112.349 84.5843ZM106.018 72.3573C106.356 72.6724 106.666 73.0068 106.944 73.3485C105.467 72.9163 103.143 73.2762 101.835 73.5028C98.8051 74.0388 95.9817 75.2503 93.1674 76.3582C90.065 77.5836 87.1045 78.9918 84.1849 80.5048C81.5191 81.8956 78.3958 83.9632 75.2754 84.3933C74.4262 83.8792 73.5927 83.3614 72.7694 82.8159C70.3792 81.2371 67.5889 80.0809 65.1311 78.5685C64.3746 78.0963 63.618 77.6242 62.8773 77.1485C64.5233 77.161 66.3522 75.8116 67.5882 75.0561C70.6745 73.1873 73.5049 71.0732 76.5726 69.196C79.7266 67.2609 83.0131 65.3965 86.448 63.8151C88.0974 63.0528 89.8183 62.5278 91.5975 62.04C92.6261 61.7513 94.5313 61.0186 95.7149 61.1128C95.9959 61.4665 96.2927 61.8166 96.5737 62.1703C97.9231 63.9138 99.116 65.7696 100.628 67.4248C102.27 69.2147 104.256 70.6966 106.018 72.3573ZM91.1442 56.4221C92.752 57.7758 94.1745 59.2612 95.4636 60.8156C94.6869 60.8304 93.7028 61.0961 93.1857 61.2285C91.7919 61.589 90.3982 61.9495 89.0267 62.4064C85.6045 63.5408 82.4227 65.3555 79.3715 67.0892C76.362 68.788 73.5102 70.6659 70.6983 72.5727C69.1631 73.6131 67.6093 74.6451 65.9433 75.5508C64.6619 76.2534 63.7382 76.9239 62.2274 76.7786C60.5789 75.7514 58.9463 74.7207 57.2978 73.6935C55.3602 72.4922 53.3706 71.3537 51.4672 70.1572C53.9186 69.9199 55.89 68.1822 57.6688 66.8317C60.5223 64.6742 63.2377 62.4217 66.03 60.2149C68.9215 57.9344 72.2163 55.8905 75.781 54.3679C78.471 53.2252 81.3177 52.1859 84.2447 52.2828C86.782 53.4215 89.1479 54.7521 91.1442 56.4221ZM83.4817 51.9264C81.5057 51.8506 79.3622 52.4861 77.5358 53.2005C74.2759 54.4623 71.3043 56.038 68.4812 57.8967C65.3839 59.9329 62.7873 62.4117 59.892 64.6043C58.3949 65.7374 56.9274 66.9271 55.369 68.0109C54.0534 68.9244 52.7358 69.686 51.0713 69.8808C48.2436 68.0606 45.6845 66.0387 43.9703 63.3645C45.6145 63.2252 47.142 61.5775 48.1629 60.6815C50.2779 58.8471 52.4356 57.0536 54.6275 55.2648C56.8454 53.4447 59.0847 51.645 61.4648 49.9523C63.1899 48.7284 65.5182 47.0984 67.8731 46.7313C71.2007 47.2684 74.1431 48.5798 77.4402 49.2002C77.7359 49.2586 78.0288 49.3051 78.3217 49.3515C79.29 50.739 81.7426 51.2248 83.4817 51.9264ZM71.8458 47.2587C71.6659 47.1988 71.4703 47.1425 71.2775 47.0983C68.493 44.5322 67.3353 40.6761 67.0749 37.1833C66.9395 35.2351 67.1146 33.2659 67.3713 31.2904C67.4839 30.4142 67.6057 29.4343 67.015 28.7461C70.5769 29.0768 74.1445 29.4315 77.563 30.0745C77.7873 30.1114 77.9986 30.164 78.2229 30.2009C79.1311 31.8307 79.2424 33.7465 79.3684 35.5826C79.5178 37.591 79.7746 39.5619 80.4021 41.4851C80.9776 43.2553 81.7264 44.9854 82.8654 46.5365C83.4738 47.3728 84.1463 48.4861 85.2644 49.0142C84.1949 49.1982 83.1087 49.3099 81.9733 49.2807C78.3355 49.196 75.0605 48.2407 71.8458 47.2587ZM92.79 46.8923C90.4604 47.5836 88.2586 48.3975 85.9631 48.8779C84.2731 48.1015 83.2852 46.414 82.5198 45.043C81.5393 43.3157 80.8655 41.4793 80.4437 39.5847C80.0304 37.7262 79.959 35.8394 79.6902 33.9601C79.5172 32.782 79.5405 31.3046 78.7142 30.3157C81.3096 30.8446 83.8615 31.4723 86.4522 32.053C87.1706 32.2167 87.8992 32.3527 88.6277 32.4887C89.7887 33.7047 89.8518 35.5555 90.2946 37.0391C90.704 38.3783 91.132 39.7259 91.7592 41.0019C92.6563 42.7993 93.8829 45.231 96.1087 46.3149C94.9901 46.358 93.8947 46.5733 92.79 46.8923ZM102.318 46.4645C100.515 46.5644 98.8503 46.3277 97.0958 46.2769C97.0457 46.2757 97.0142 46.283 96.9642 46.2819C94.0105 44.7066 92.4667 41.7646 91.482 39.0866C90.9419 37.6127 90.562 36.1144 90.1164 34.6187C89.9131 33.9551 89.7421 33.1445 89.2163 32.5936C91.2064 32.9453 93.227 33.2138 95.2736 33.4509C97.0615 33.6463 98.8365 33.8574 100.601 34.0963C101.427 35.225 101.908 36.4459 102.674 37.6012C103.466 38.8011 104.305 39.99 105.348 41.0556C106.434 42.1622 107.695 43.1647 109.172 43.9524C109.551 44.1565 110.029 44.4267 110.533 44.5258C107.904 45.502 105.283 46.2986 102.318 46.4645ZM113.779 43.2038C112.946 43.5488 112.126 43.8781 111.306 44.2074C109.855 44.2511 108.205 42.8565 107.391 42.2073C106.17 41.2336 105.139 40.1523 104.253 38.9743C103.511 37.9913 102.848 36.99 102.302 35.9234C101.975 35.301 101.665 34.675 101.15 34.1723C102.247 34.3245 103.329 34.4803 104.401 34.6638C106.662 35.0415 108.927 35.6469 111.273 35.8147C111.904 35.9606 112.569 36.0352 113.243 36.0821C116.059 37.3468 116.925 40.877 120.015 41.7483C117.897 41.9211 115.78 42.3854 113.779 43.2038ZM121.025 41.6669C118.848 40.9396 117.757 39.5933 116.382 38.0969C115.808 37.4811 115.162 36.6279 114.284 36.1332C115.684 36.2281 117.061 36.4424 118.423 36.6603C121.27 37.1309 123.974 37.6981 126.583 38.6427C126.673 38.6726 126.765 38.7146 126.855 38.7446C127.747 39.7309 127.882 41.3875 128.995 42.1831C127.003 41.8953 124.942 41.7378 122.932 41.6572C122.281 41.6428 121.652 41.6488 121.025 41.6669ZM133.402 43.0797C132.355 42.7889 131.275 42.5692 130.167 42.3689C128.844 41.6725 128.449 40.6852 127.871 39.55C127.777 39.3561 127.669 39.178 127.564 39.0119C129.633 39.7768 131.708 40.5657 133.621 41.5188C135.236 42.3255 136.521 43.3605 137.908 44.3339C137.228 44.1231 136.546 43.9003 135.838 43.7089C135.04 43.4875 134.243 43.2022 133.402 43.0797ZM138.95 44.5368C138.956 44.5609 138.98 44.5934 138.986 44.6175C137.221 43.3761 135.643 42.0789 133.618 41.0754C132.594 40.4495 131.515 39.8744 130.4 39.3584C130.913 39.3538 131.47 39.2503 131.959 39.2132C132.693 39.1576 133.519 39.0681 134.209 39.2511C134.492 39.3253 134.748 39.4308 135.005 39.5364C135.919 40.4035 136.776 41.3092 137.487 42.2995C137.748 42.7846 138.086 43.2395 138.421 43.6823C138.611 43.9301 138.713 44.2999 138.95 44.5368ZM134.371 38.9472C134.001 38.8551 133.59 38.798 133.176 38.8048C132.086 38.8286 130.734 39.1541 129.671 39.0067C126.744 37.6916 123.567 36.7264 120.151 36.0955C120.132 36.0871 120.148 36.0835 120.13 36.0751C119.916 36.0104 119.673 35.9651 119.459 35.9004C120.595 35.7898 121.752 35.4839 122.811 35.112C125.224 34.2748 127.121 33.5819 129.546 33.9472C129.788 34.348 130.043 34.7331 130.374 35.088C131.587 36.4569 133.014 37.6749 134.371 38.9472ZM129.328 33.5789C128.056 33.1753 126.338 33.4966 125.027 33.9269C122.727 34.6747 120.722 35.4052 118.376 35.6687C115.654 35.169 112.687 35.1831 109.948 34.7509C109.602 34.6913 109.256 34.6317 108.911 34.5721C111.581 34.132 114.316 32.1796 116.29 30.8853C117.789 29.904 119.337 28.8479 120.988 28.0217C122.163 27.4327 124.315 26.6176 125.656 27.1067C126.652 28.399 127.521 29.7843 128.2 31.2133C128.584 32.0127 128.918 32.8109 129.328 33.5789ZM125.375 26.753C124.797 26.6203 124.092 26.6566 123.535 26.7601C121.958 27.0487 120.648 27.7705 119.352 28.5526C116.004 30.5834 112.215 33.9344 107.976 34.4076C105.165 33.8779 102.397 33.2494 99.5043 32.9416C98.621 32.8541 97.7191 32.7582 96.8488 32.655C98.2092 32.3656 99.6195 31.646 100.717 31.1511C102.892 30.1528 104.94 29.0319 106.974 27.8508C109.316 26.4967 111.682 24.9595 114.269 23.9424C116.52 23.0537 119.678 22.2849 121.811 23.1111C123.163 24.2195 124.364 25.4644 125.375 26.753ZM120.957 22.4331C119.681 22.1572 117.88 22.5486 116.698 22.822C114.332 23.3567 112.294 24.3739 110.249 25.5069C107.72 26.9167 105.307 28.4649 102.706 29.7772C100.73 30.7799 98.1758 32.2211 95.8098 32.5401C93.5574 32.2745 91.344 31.9618 89.1444 31.4936C86.9819 31.0422 84.8499 30.5077 82.6948 30.0165C84.7004 29.9332 86.866 29.1783 88.6832 28.5676C91.6884 27.5678 94.5368 26.2489 97.4362 25.0071C100.307 23.7846 103.182 22.5103 106.166 21.49C107.765 20.9423 109.369 20.4826 110.99 20.0312C112.114 19.7206 113.257 19.3546 114.426 19.3126C115.487 19.5239 116.515 19.8063 117.429 20.2419C118.685 20.8649 119.869 21.6061 120.957 22.4331ZM111.81 18.8392C112.28 18.9335 112.779 19.0084 113.264 19.0991C111.476 19.2591 109.539 19.9991 107.978 20.4997C105.151 21.4076 102.45 22.502 99.7442 23.6483C96.6613 24.9579 93.6147 26.4242 90.4511 27.6002C87.762 28.6031 84.5353 29.7937 81.6408 29.7655C80.6796 29.5564 79.7212 29.3594 78.7526 29.1902C75.6066 28.6491 72.3811 28.266 69.1407 27.9625C69.3715 27.8837 69.5994 27.7929 69.8274 27.7021C71.5018 27.0482 73.0983 26.2728 74.668 25.4529C78.0139 23.7017 81.127 21.6618 84.4756 19.9226C87.7641 18.2101 91.3787 16.4729 95.094 15.6007C96.8714 15.1767 98.7212 14.8503 100.527 14.7625C101.771 14.6902 103.44 14.6594 104.745 14.9159C105.481 15.6592 106.259 16.3675 107.155 17.0104C108.486 17.9586 109.97 18.4908 111.81 18.8392ZM98.6333 9.8076C101.082 10.9923 102.645 12.8004 104.339 14.5275C103.564 14.4025 102.729 14.3799 101.978 14.3633C100.423 14.3168 98.809 14.5127 97.2586 14.7699C93.8241 15.3488 90.5845 16.5551 87.4794 17.9841C84.1492 19.516 81.1416 21.3665 78.0173 23.1426C76.2865 24.1267 74.5241 25.1181 72.7025 25.9964C71.6137 26.5275 69.7291 27.636 68.2231 27.8702C68.2074 27.8739 68.2046 27.8618 68.1888 27.8655C64.7511 27.5696 61.4309 26.9927 58.0338 26.5858C59.1495 26.0993 60.6863 24.5637 61.0171 24.2714C63.2979 22.221 65.5175 20.1213 67.955 18.1743C71.5107 15.3214 75.6589 13.0927 80.1374 11.3586C82.4985 10.4444 84.8903 9.66263 87.3794 9.08673C88.3089 8.87168 89.2681 8.71321 90.1948 8.48612C90.5887 8.395 91.027 8.28089 91.4607 8.21861C91.965 8.31766 92.4664 8.40468 92.9836 8.48805C94.8838 8.80978 96.9906 9.02026 98.6333 9.8076ZM87.4618 7.07545C88.4917 7.50971 89.5781 7.82937 90.7007 8.08992C90.2883 8.17264 89.8944 8.26377 89.545 8.33191C87.4302 8.73238 85.2978 9.20034 83.2656 9.88622C79.028 11.2981 74.695 13.0873 71.0779 15.4595C67.8054 17.5998 64.9308 20.1683 62.2007 22.716C61.3966 23.473 60.5925 24.23 59.73 24.9499C59.3678 25.2494 57.8356 26.7332 57.2219 26.5199C57.1876 26.5151 57.1533 26.5104 57.1246 26.5297C54.4978 26.2238 51.7811 25.888 49.0609 25.8956C49.6261 25.6125 50.0865 25.1634 50.5237 24.7577C51.8559 23.4851 52.9915 22.0804 54.1169 20.7033C56.238 18.1062 58.0216 15.2699 60.4394 12.8071C62.9535 10.2586 65.6558 7.80618 68.9172 5.83344C70.4905 4.88575 72.1898 3.90889 73.9857 3.27767C74.9373 2.9433 76.041 2.54838 77.0679 2.53919C77.5471 2.52985 78.2913 2.44649 78.916 2.4923C81.9112 3.8169 84.3776 5.79681 87.4618 7.07545ZM65.2304 0.659044C69.1834 0.670798 73.4087 0.568779 76.9943 1.71874C77.3697 1.83492 77.7349 1.97882 78.1002 2.12271C77.571 2.13096 77.0371 2.19102 76.6637 2.22667C75.0622 2.40685 73.4813 2.96294 72.0682 3.67054C68.8233 5.28416 65.864 7.19968 63.3043 9.47954C60.5103 11.9659 58.2659 14.6043 56.1477 17.4292C54.9798 18.981 53.7405 20.5113 52.4613 22.0127C51.836 22.7537 51.2321 23.5152 50.5142 24.2143C49.9732 24.7455 49.1627 25.6182 48.2786 25.8862C47.9997 25.9 47.7337 25.8981 47.4547 25.9119C46.602 25.9569 45.3591 25.9653 44.1868 26.135C45.9028 25.2304 46.8233 23.6851 47.3248 22.1225C48.0716 19.7545 48.721 17.3963 49.5864 15.0389C51.4699 9.90813 54.5957 3.69051 60.7659 0.588009C62.2303 0.604496 63.7188 0.653477 65.2304 0.659044ZM45.4381 8.15672C46.8492 5.43198 49.3731 1.99298 53.2996 1.17337C55.6266 0.685749 57.8769 0.583858 60.1365 0.59403C59.2266 0.893384 58.4947 1.53221 57.7619 2.09513C56.5463 3.01082 55.4476 4.00098 54.5454 5.12334C52.78 7.32097 51.3076 9.7807 50.2217 12.1891C49.1284 14.6373 48.2075 17.1852 47.5071 19.682C46.8355 22.1595 46.3168 24.6524 43.5038 26.2676C42.9024 26.3941 42.3593 26.5578 41.9044 26.8153C42.6137 25.6488 41.8268 23.8259 41.6187 22.7828C41.2442 20.8772 41.437 19.0561 41.5046 17.1244C41.9135 15.7355 42.2882 14.3418 42.9344 12.9742C43.7353 11.3423 44.6103 9.74403 45.4381 8.15672ZM40.2051 22.4119C40.3325 21.4562 40.56 20.5026 40.8218 19.5538C40.8028 20.3322 40.8625 21.0924 40.9842 21.7622C41.3012 23.4907 41.9814 25.2114 41.6171 27.0087C41.5625 27.0594 41.4893 27.1017 41.4374 27.1645C40.0225 26.0706 40.014 23.9535 40.2051 22.4119ZM36.2341 46.8565C34.7176 46.4714 32.9322 45.8566 32.3606 44.6057C30.9234 41.5502 35.3502 38.445 37.4862 35.984C38.6126 34.6829 39.7843 33.219 40.284 31.7203C40.7097 30.4036 40.6857 28.9372 41.6527 27.7364C41.6972 27.7134 41.7389 27.6784 41.7778 27.6314C43.3532 27.2669 44.9046 27.0856 46.4311 27.0116C47.6877 28.4973 45.5066 31.5525 44.5536 33.0292C43.296 34.9825 42.0384 36.9357 41.2062 39.0062C40.3537 41.1322 39.9321 43.1839 39.999 45.3383C40.0085 45.8817 39.8489 47.2003 40.295 47.9092C38.9343 47.5515 37.5892 47.1901 36.2341 46.8565ZM41.0319 48.0813C40.1311 46.4117 40.2875 44.0026 40.7193 42.1389C41.2206 39.9292 42.1435 37.7489 43.3862 35.6595C44.6188 33.5978 46.0553 31.6286 46.8652 29.4617C47.1808 28.6019 47.4973 27.6024 46.8203 26.9723C49.7185 26.8728 52.5612 27.1795 55.3966 27.5259C55.7658 28.1892 55.1444 29.2338 54.9158 29.8958C54.5531 30.9822 54.3219 32.0635 54.0935 33.1569C53.67 35.0567 53.4569 36.9333 53.836 38.787C54.2151 40.6408 54.9232 42.4818 56.2928 43.9541C57.1098 44.831 58.359 46.3565 59.9431 46.6753C57.2447 47.566 54.8478 49.1865 51.9015 49.4367C51.3964 49.4774 50.9043 49.5025 50.4066 49.5034C50.3908 49.507 50.3881 49.495 50.3723 49.4986C50.3223 49.4975 50.275 49.5085 50.2249 49.5074C47.1256 49.5265 44.1706 48.8778 41.3276 48.1398C41.2275 48.1375 41.1219 48.1112 41.0319 48.0813ZM41.5808 52.1037C41.6776 51.0154 41.4787 49.8686 41.9601 48.7929C43.6693 49.2222 45.4175 49.6045 47.237 49.7926C47.7644 49.8482 48.2705 49.8834 48.7923 49.915C47.7193 50.4424 46.8309 51.4093 46.1742 52.1576C45.4267 53.0158 44.7432 53.9352 43.9215 54.7598C43.4611 55.2089 42.4812 56.6411 41.6379 56.7982C41.6174 56.6379 41.5942 56.4657 41.5894 56.3018C41.4877 54.9295 41.4407 53.5065 41.5808 52.1037ZM30.9976 70.7817C31.9588 69.1254 32.3158 67.5836 32.9183 65.8834C33.5282 64.1435 34.5265 62.504 35.7018 60.9124C36.5094 59.8119 37.2457 58.6899 38.1062 57.6026C38.7591 56.7663 39.5019 55.7442 40.574 55.1409C40.1825 56.2466 40.0626 57.3783 40.1401 58.5024C39.5364 59.6953 38.8122 60.9414 37.9332 62.0204C37.1061 63.0365 36.2048 64.0191 35.5974 65.124C34.2352 67.5583 33.0613 70.0885 32.0635 72.5908C31.1193 74.9664 30.2864 77.3924 30.1514 79.8219C30.0769 81.0065 30.0136 82.2393 30.3228 83.3606C29.4464 82.3705 28.7795 81.2813 28.4971 79.9889C27.7744 76.7935 29.2354 73.8541 30.9976 70.7817ZM25.5409 75.318C26.08 74.6349 26.6876 73.9614 27.4362 73.3949C27.7623 73.1544 29.1937 72.0239 29.7303 71.9758C28.4793 74.2448 27.4814 76.5313 27.7227 78.9372C27.7534 79.2854 27.8129 79.6142 27.8909 79.9515C27.2494 79.6177 26.4856 79.4011 25.9765 78.9225C25.3154 78.2887 24.7571 77.6692 24.5361 76.8575C24.8296 76.3327 25.1575 75.8128 25.5409 75.318ZM22.2031 82.0542C21.3605 87.236 22.4076 92.3359 23.6576 97.2366C24.447 100.29 25.4282 103.311 26.0285 106.408C26.6288 109.505 26.9428 112.655 27.3197 115.791C27.7023 118.951 28.1089 122.143 29.0929 125.177C30.1038 128.255 31.7253 131.103 32.2849 134.311C32.8352 137.406 33.0815 140.623 34.4009 143.528C35.6582 146.308 37.4789 148.869 38.8723 151.592C39.326 152.477 39.6824 153.371 39.9757 154.281C38.9381 151.589 37.3677 149.034 35.8409 146.596C35.5753 145.591 34.7315 144.67 34.2537 143.753C33.4734 142.246 33.1074 140.592 32.7655 138.971C32.1802 136.226 31.9397 133.464 30.8688 130.844C30.2489 129.313 29.8153 127.725 29.2741 126.176C28.7664 124.77 28.1513 123.403 27.8928 121.927C27.6335 120.375 27.5029 118.807 27.2092 117.251C27.0401 116.376 27.0044 115.433 26.8483 114.542C26.9272 113.09 26.4315 111.593 26.1898 110.19C25.9165 108.578 25.722 106.948 25.4014 105.348C24.7714 102.194 23.4121 99.2602 22.6561 96.1359C21.875 92.9032 21.3607 89.5327 21.3942 86.1623C21.4101 84.509 21.8134 82.8803 22.111 81.2253C22.342 79.9283 22.505 77.8349 23.8474 76.7503C23.9076 76.7237 23.9706 76.7091 24.0309 76.6825C23.0864 78.411 22.5117 80.2316 22.2031 82.0542ZM6.74919 92.9513C7.94123 91.4319 9.05356 89.8549 10.6591 88.5444C12.1395 87.3391 13.8954 86.4633 15.528 85.4131C17.9156 83.8963 20.6117 81.9909 22.0055 79.7651C21.7466 80.9416 21.4302 82.1568 21.2427 83.3549C20.3953 84.6423 18.8379 85.802 17.576 86.8046C16.09 87.9858 14.54 89.1058 12.9714 90.2174C10.8183 91.7434 7.58083 93.5329 6.15462 95.6901C6.3562 94.7679 6.52906 93.8651 6.74919 92.9513ZM23.2497 76.9647C22.7458 77.5128 22.4255 78.2086 22.2312 78.8754C21.1336 80.3728 19.9795 81.7692 18.3758 83.0158C16.7879 84.2587 15.0793 85.3392 13.2725 86.3536C11.6279 87.2798 10.2354 88.3633 9.01915 89.6345C8.39295 90.2996 7.6435 91.0059 7.0739 91.7722C7.24879 91.2368 7.44224 90.7099 7.68294 90.172C10.304 84.6422 16.4416 79.6057 23.2497 76.9647ZM5.09358 99.6408C5.4842 98.6749 5.72468 97.7056 5.94662 96.728C8.00911 93.6622 11.7061 91.5633 14.9284 89.2063C16.3922 88.1443 17.8663 87.0546 19.1892 85.8857C19.8766 85.2699 20.6501 84.596 21.1623 83.8684C21.1235 84.1312 21.0847 84.3939 21.0617 84.6531C20.9733 85.7775 20.9664 86.8957 21.0096 88.0151C20.7839 88.9048 19.9447 89.7968 19.275 90.5609C18.3042 91.6737 17.2677 92.7891 16.1458 93.8227C13.9438 95.8548 11.3096 97.454 9.00372 99.396C6.57278 101.443 3.66931 103.815 2.12284 106.457C2.9549 104.171 4.18274 101.945 5.09358 99.6408ZM1.41618 109.285C1.4134 109.273 1.41341 109.273 1.42638 109.258C3.13217 104.65 7.31119 100.904 11.9761 97.6805C14.3646 96.0239 16.4009 94.2078 18.2952 92.2087C19.0409 91.4144 20.5278 90.0934 21.0814 88.8994C21.2196 90.8596 21.5339 92.7918 21.9213 94.6817C21.9492 94.8021 21.977 94.9226 22.0021 95.031C21.2599 97.1315 19.1172 99.2768 17.4888 101.062C15.5926 103.125 13.3831 104.981 11.2931 106.924C7.85253 110.131 4.40304 114.089 4.02326 118.186C3.74784 117.857 3.49093 117.535 3.25998 117.183C1.67112 114.835 1.02559 112.117 1.41618 109.285Z" fill="#657577"/>
</svg>
