<svg width="159" height="176" viewBox="0 0 159 176" fill="none" xmlns="http://www.w3.org/2000/svg">
<path d="M157.041 46.912C156.311 45.6476 155.197 44.6285 153.931 43.7039C153.922 43.6808 153.895 43.6643 153.873 43.6594C152.948 42.9898 151.968 42.3401 151.006 41.6838C149.65 40.7396 148.292 39.731 147.527 38.4271C146.814 37.2089 146.552 35.813 146.257 34.4419C145.273 29.8816 144.592 24.7395 139.537 22.0841C136.681 20.5889 132.079 20.359 130.349 17.9944C130.092 17.6302 129.853 17.2593 129.633 16.8818C129.625 16.8588 129.612 16.8241 129.603 16.801C129.595 16.7779 129.573 16.773 129.568 16.7615C128.403 14.7009 127.65 12.4115 125.228 11.0323C123.667 10.1497 121.689 9.92995 119.669 9.59478C117.285 9.16971 115.763 8.39093 114.6 6.95759C112.706 4.65277 110.72 2.43402 107.533 0.994025C107.508 0.924755 107.482 0.855484 107.439 0.792861C107.37 0.660972 107.032 0.640324 106.897 0.833793C106.761 1.02726 106.728 1.10493 106.792 1.22527C106.746 1.26831 106.726 1.32778 106.748 1.38551C107.256 2.83528 106.183 4.98056 105.47 6.58847C104.661 8.44092 103.765 10.3382 103.363 12.1731C103.103 13.3276 102.948 14.4835 102.924 15.6044C102.928 15.616 102.932 15.6275 102.932 15.6275C102.92 16.103 102.926 16.5718 102.973 17.0388C102.69 18.4113 102.7 19.9646 103.546 20.925C104.394 23.4155 105.786 25.7595 107.345 27.9381C108.982 30.2187 111.373 32.1328 112.768 34.5411C114.207 37.0121 113.918 39.8389 114.317 42.6244C114.668 45.1129 115.443 47.4601 116.868 49.5564C119.737 53.7952 124.412 57.3346 125.448 62.3735C126.07 65.378 125.386 68.5326 124.09 71.8191C122.929 74.7421 121.011 77.6273 120.017 80.5548C118.432 79.7729 117.145 78.7905 116.78 77.1704C116.168 74.4762 116.927 71.4122 116.11 68.7796C115.322 66.2277 113.167 64.4502 109.687 63.7323C106.008 62.9818 101.708 63.1259 98.1793 62.1638C94.4673 61.151 92.1264 58.6954 87.7092 58.4634C85.4397 58.3501 82.9662 58.8084 80.6967 58.695C78.4495 58.5865 77.2115 57.6255 75.2567 57.1878C72.0241 56.471 68.0514 56.6655 64.2546 57.5677C63.588 57.7196 62.9242 57.9358 62.2647 58.1635L62.2464 58.1702C59.4402 59.1294 56.6777 60.4914 53.8303 60.9423C51.9016 61.254 50.4483 60.7772 48.5965 60.9038C47.3905 60.9909 46.1902 61.2068 44.9718 61.5993C44.0672 61.8904 43.2018 62.2325 42.3449 62.5978C42.2132 62.6328 42.09 62.6908 41.971 62.7605C40.0836 63.5805 38.2607 64.5209 36.3466 65.3245C34.7881 65.972 33.1358 66.5885 31.4746 66.8418C29.284 67.1706 27.3028 66.8865 25.1764 66.9957C23.036 67.123 20.7772 67.83 18.5977 68.0763C16.1198 68.353 13.6152 68.4433 12.0057 67.3693C11.9833 67.3644 11.9791 67.3528 11.9567 67.3479C11.944 67.3133 11.9454 67.2604 11.9552 67.2307C11.9872 67.0358 11.5936 67.088 11.4943 67.2681C11.0442 68.126 12.449 69.0916 12.9119 69.6814C13.7943 70.7985 14.6992 71.9205 15.6362 73.0176C17.4485 75.1559 19.6613 77.1479 20.8982 79.5748C22.0706 81.8814 22.9601 84.3174 23.5317 86.8433C23.7189 87.6385 23.8697 88.447 24.0023 89.2622C24.0065 89.2737 24.0065 89.2737 24.0107 89.2853C24.0107 89.2853 24.0107 89.2853 24.0149 89.2968C24.2715 90.734 24.5323 92.1827 24.9527 93.5601C24.9065 93.6031 24.8645 93.6577 24.8856 93.7154C25.2619 95.7631 27.478 96.9166 28.6847 98.5826C30.0919 100.515 31.0161 102.651 32.2455 104.662C33.3627 106.478 34.6549 108.322 36.6779 109.625C38.8074 110.993 41.3147 112.04 43.3798 113.458C45.8571 115.157 47.8892 117.163 50.1005 119.038C50.0403 119.099 50.0292 119.182 50.1413 119.206C50.1904 119.228 50.2758 119.236 50.3389 119.239C51.95 120.6 53.6437 121.905 55.686 122.978C58.0619 124.23 60.7289 125.206 63.6561 125.877C65.1442 126.224 66.7316 126.39 68.2799 126.675C69.2537 126.856 70.5203 127.048 71.3529 127.463C68.2291 127.609 64.9783 128.142 61.8361 129.368C59.7413 130.185 57.777 131.19 55.7214 132.059C53.7205 132.907 51.9084 133.425 49.9362 133.674C49.8956 133.676 49.8507 133.666 49.8101 133.668C49.7695 133.669 49.7331 133.683 49.7009 133.708C49.4068 133.75 49.1084 133.78 48.8058 133.799C44.6582 134.136 40.2929 135.233 36.3361 137.109C31.8865 139.218 27.813 141.961 22.8128 142.845C17.9303 143.712 12.9967 143.93 8.35408 143.872C7.37049 143.721 6.30297 143.679 5.27742 143.583C3.78814 143.459 2.36459 143.233 0.832008 143.217C0.624676 143.214 0.357365 143.443 0.503187 143.56C0.59574 143.643 0.684075 143.716 0.772413 143.788C0.903287 144.316 1.4655 144.726 1.87499 145.113C2.09095 145.309 2.3069 145.505 2.55927 145.687C2.53551 145.735 2.53416 145.788 2.58743 145.821C5.55371 148.859 11.1182 150.256 13.4069 153.699C15.53 156.914 18.1487 159.792 22.0581 161.91C23.8818 162.893 25.9241 163.966 28.2613 164.434C30.576 164.897 33.1185 164.741 35.6373 164.802C42.0409 164.937 44.3513 168.948 49.2115 170.732C51.0432 171.398 52.9838 171.683 55.298 171.637C56.385 171.619 57.5001 171.565 58.6011 171.53C58.8393 171.56 59.1055 171.555 59.3814 171.519C60.2247 171.512 61.0498 171.512 61.8596 171.583C66.7142 171.995 70.2718 173.941 74.6884 174.906C78.4283 175.712 82.5872 175.463 86.9363 174.83C89.3076 174.488 91.7124 174.067 94.0837 173.725C96.3192 173.406 98.5477 173.181 100.811 172.655C102.788 172.195 105.097 171.679 106.915 170.728C108.528 169.89 109.821 168.855 110.977 167.727C113.913 164.862 115.006 161.584 116.527 158.517C118.143 155.258 118.998 151.779 119.516 148.567C119.852 146.377 120.118 143.153 117.447 142.165C117.443 142.154 117.421 142.149 117.412 142.126C118.335 140.925 118.312 139.73 118.609 138.51C119.063 136.59 120.458 134.589 122.005 132.781C124.287 130.103 127.725 127.147 127.523 124.277C127.353 121.945 123.849 121.615 121.07 121.465C119.175 121.358 117.285 121.211 115.367 121.1C115.921 120.074 115.813 119.158 115.806 118.179C115.783 117.154 115.741 116.136 115.663 115.13C115.722 115.122 115.758 115.109 115.809 115.077C115.827 115.071 115.845 115.064 115.881 115.051C116.366 114.795 116.793 114.495 117.158 114.14C119.445 111.983 120.941 109.357 122.457 107.01C123.564 105.298 124.515 103.55 124.951 101.808C125.372 100.136 125.808 98.6165 126.721 96.9355C126.891 96.6116 127.066 96.2991 127.237 95.9752L127.255 95.9685C127.273 95.9619 127.295 95.9668 127.332 95.9535C127.526 95.9217 127.907 95.6649 127.939 95.64C128.548 95.2737 129.176 94.9008 129.719 94.467C131.02 93.4552 132.131 92.3168 132.933 91.1214C133.13 90.8139 133.323 90.4948 133.498 90.1824C143.177 85.7845 151.771 77.6221 153.274 70.2694C153.742 67.9918 153.762 65.7864 154.592 63.4816C155.382 61.2957 156.497 59.0959 157.306 56.9034C158.582 53.3363 158.738 49.8644 157.041 46.912ZM153.567 44.0068C153.306 45.0441 153.303 46.0528 152.856 47.145C152.275 48.5479 151.522 49.9347 150.577 51.3005C148.728 53.9775 146.311 56.4562 143.773 58.9401C141.572 61.1047 139.479 63.2821 137.702 65.5925C136.545 67.114 134.952 68.795 134.469 70.4106C133.619 68.1957 132.427 66.1187 131.435 63.9685C131.412 63.1135 132.135 61.8159 132.556 61.0472C133.318 59.6307 134.242 58.2072 135.264 56.8263C137.216 54.2035 139.454 51.6328 141.477 49.0362C143.308 46.7059 144.968 44.3595 145.689 41.9245C146.018 40.8491 146.584 39.5172 146.8 38.3001C147.075 38.8276 147.4 39.3237 147.835 39.7799C149.403 41.4186 151.686 42.5868 153.567 44.0068ZM145.265 32.5146C145.596 34.0424 145.784 35.6877 146.328 37.177C146.21 39.3398 145.474 41.8458 144.342 43.9995C142.93 46.687 140.749 49.3021 138.65 51.8609C136.51 54.4743 134.42 57.0562 132.76 59.7427C132.229 60.604 131.338 61.9499 131.088 63.0746C130.914 62.6541 130.74 62.2336 130.607 61.8113C129.846 59.616 129.205 57.3511 128.586 55.091C128.849 52.365 130.312 49.816 132.341 47.1253C134.325 44.4777 136.13 41.738 137.723 39.0368C139.363 36.2398 140.948 33.4627 141.836 30.6394C142.223 29.4383 142.609 28.2373 142.874 27.0415C142.95 26.7393 143.016 26.4139 143.065 26.0952C144.241 28.0732 144.803 30.2888 145.265 32.5146ZM142.442 25.2367C142.621 27.5918 141.467 30.4207 140.463 32.8679C139.338 35.6076 137.693 38.4459 135.933 41.1426C135.005 42.5545 134.139 43.9697 133.148 45.3785C132.18 46.7394 131.081 48.0825 130.221 49.4564C129.423 50.7162 128.437 52.4238 128.22 53.8638C128.146 53.6031 128.067 53.3309 128.011 53.0637C127.614 50.2253 126.899 47.4769 125.93 44.8215C126.137 43.7513 126.129 42.6553 126.702 41.5693C127.398 40.2553 128.341 38.9951 129.369 37.743C131.184 35.5365 133.053 33.3101 134.602 31.0564C136.058 28.9415 137.322 26.7529 137.896 24.594C138.115 23.7813 138.349 22.7275 138.008 21.9624C138.373 22.1167 138.739 22.271 139.077 22.4616C140.46 23.1995 141.605 24.1294 142.442 25.2367ZM133.383 20.4846C134.667 20.8925 136.002 21.2162 137.235 21.6556C138.247 23.1834 137.159 25.7397 136.188 27.5463C135.034 29.6951 133.606 31.7736 131.975 33.8608C129.324 37.2232 125.76 40.6835 125.64 44.1421C124.662 41.6337 123.462 39.1935 122.051 36.8561C121.783 36.4045 121.552 35.9395 121.32 35.4746C121.432 33.916 121.204 32.3896 121.846 30.7555C122.578 28.918 123.792 27.1009 125.104 25.3265C126.308 23.7092 127.58 22.1065 128.564 20.4517C129.016 19.7111 129.46 18.8945 129.655 18.1298C130.521 19.2006 131.755 19.9801 133.383 20.4846ZM126.935 13.3921C127.858 14.6774 128.398 16.1552 129.23 17.4738C128.336 20.9013 125.311 24.0863 123.138 27.4574C121.439 30.0928 120.8 32.3543 121.018 34.7605C120.15 32.7223 119.632 30.5693 118.897 28.4433C118.548 27.4322 118.21 26.3914 117.697 25.4402C117.859 22.097 121.147 18.842 122.414 15.4747C122.999 13.9133 123.72 11.6484 122.413 10.5555C124.438 11.0722 125.952 11.9979 126.935 13.3921ZM121.269 10.3057C121.4 10.3235 121.534 10.3529 121.65 10.3889C123.426 12.3705 122.033 15.2214 120.664 17.8016C119.48 20.0395 117.337 22.5885 117.285 24.8188C117.229 24.7216 117.172 24.6243 117.098 24.5337C116.391 23.6143 115.321 22.775 114.737 21.7975C114.547 21.108 114.017 20.5034 113.459 19.9353C112.603 19.0047 113.118 17.3642 113.501 16.1516C113.889 14.8978 114.475 13.6765 115.025 12.4156C115.542 11.2324 115.913 9.93237 115.661 8.84678C117.171 9.76095 119.226 9.96562 121.269 10.3057ZM114.887 8.25274C115.285 9.28515 115.334 10.3795 114.82 11.627C114.338 12.8498 113.685 14.0564 113.266 15.2823C112.916 16.3 112.319 17.7739 112.521 18.891C111.627 17.8564 110.693 16.8237 109.955 15.7063C109.095 14.4241 108.467 13.0439 108.094 11.5707C107.917 10.9158 107.831 10.2276 107.744 9.53946C107.893 8.13761 109.568 6.79314 110.45 5.42418C110.769 4.9414 111.026 4.40262 111.038 3.92718C111.409 4.26304 111.783 4.61044 112.121 4.97113C113.046 6.03363 113.789 7.2798 114.887 8.25274ZM107.756 1.60591C108.631 2.13699 109.456 2.69955 110.229 3.2936C110.411 3.96007 110.51 4.51283 109.957 5.31643C109.522 5.93322 109.016 6.52376 108.536 7.13075C108.14 7.62858 107.789 8.13621 107.596 8.6253C107.585 8.53784 107.574 8.45037 107.567 8.37446C107.611 6.97121 107.715 5.55956 107.85 4.12308C107.908 3.26455 107.948 2.41267 107.756 1.60591ZM107.003 4.11853C107.13 3.73195 107.23 3.32892 107.331 2.9259C107.389 4.16052 107.116 5.50324 107.045 6.72002C106.904 8.70786 106.831 10.7104 107.262 12.5681C107.4 13.1719 107.606 13.7377 107.831 14.2967C107.343 13.9777 106.74 13.7398 106.258 13.3794C105.121 12.5254 104.792 11.4549 104.635 10.1776C104.631 10.166 104.622 10.1429 104.6 10.138C104.708 9.81093 104.833 9.47718 104.963 9.15496C105.65 7.47779 106.5 5.79361 107.003 4.11853ZM104.17 11.4465C104.272 12.0636 104.578 12.6192 105.012 13.0754C105.816 13.9203 107.131 14.3562 108.146 15.0454C109.183 17.1525 110.805 18.9942 112.412 20.854C112.154 20.7126 111.882 20.5895 111.582 20.5027C110.365 20.1623 108.915 20.0899 107.739 19.6949C106.518 19.2901 105.337 18.7664 104.595 17.9775C104.129 17.4933 103.85 16.9542 103.566 16.4035C103.476 14.8008 103.694 13.138 104.17 11.4465ZM133.394 89.108C132.845 87.66 130.779 86.975 128.722 86.6531C128.21 85.5318 127.378 84.5533 126.308 83.714C127.066 81.553 128.137 79.3433 128.99 77.1606C129.69 77.8341 131.135 78.2878 131.923 78.6937C133.2 79.3657 134.212 80.1606 134.866 81.2171C134.935 82.7621 134.813 84.3504 134.438 85.9789C134.196 87.0096 133.858 88.062 133.394 89.108ZM128.665 76.4945C128.651 76.5127 128.618 76.5375 128.631 76.5722C128.631 76.5722 128.635 76.5837 128.64 76.5953C127.816 78.8588 126.697 81.1643 125.91 83.4145C125.524 83.1497 125.143 82.8964 124.707 82.663C123.839 82.2079 122.889 81.809 121.943 81.4218C122.723 79.6585 125.241 78.137 127.151 76.8118C127.729 76.4175 128.472 75.9106 129.058 75.3694C128.927 75.7444 128.796 76.1195 128.665 76.4945ZM134.795 80.1179C134.344 79.5627 133.68 79.0988 133.049 78.7273C132.156 78.2028 131.134 77.7778 130.223 77.26C129.885 77.0693 129.601 76.7415 129.222 76.5526C129.809 74.9384 130.255 73.3361 130.304 71.7743C131.82 72.2543 132.886 73.2521 133.625 74.3167C133.846 75.0342 134.035 75.7766 134.201 76.5141C134.482 77.6805 134.677 78.8917 134.795 80.1179ZM126.41 56.2518C126.793 56.4523 127.125 56.6842 127.379 56.9841C127.517 57.5879 127.673 58.1851 127.848 58.7756C128.331 60.4962 128.943 62.1702 129.609 63.8243C129.202 63.5018 128.689 63.2835 128.115 63.1792C127.853 62.4634 127.592 61.7476 127.363 61.007C126.906 59.4729 126.554 57.8874 126.41 56.2518ZM128.282 63.6938C128.848 63.945 129.341 64.2228 129.727 64.6577C129.867 64.8158 129.99 64.9806 130.112 65.1454C131.169 67.7031 132.263 70.2476 133.157 72.8652C132.473 72.1207 131.478 71.542 130.31 71.3402C130.302 71.3171 130.308 71.2758 130.317 71.2461C130.251 68.5225 129.23 66.1215 128.282 63.6938ZM127.209 56.235C126.956 56.0524 126.672 55.8946 126.355 55.7617C126.252 54.6873 125.848 53.6962 125.181 52.8278C123.508 50.6777 120.584 49.1677 119.245 46.8566C119.017 46.456 118.842 46.0355 118.723 45.595C118.695 45.4614 118.667 45.3277 118.62 45.2007C118.503 44.6546 118.459 44.0819 118.474 43.5008C119.785 45.6783 123.992 46.3532 125.439 48.5072C126.123 51.0576 126.602 53.6696 127.209 56.235ZM119.715 48.4253C120.998 49.7362 122.705 50.9058 123.972 52.2877C124.016 53.2533 123.776 54.1783 123.33 55.2177C123.206 55.4986 123.043 55.8456 122.94 56.1843C121.478 54.2713 119.784 52.4563 118.336 50.5251C118.257 49.9129 118.305 49.2541 118.436 48.539C118.53 48.0601 118.641 47.5745 118.712 47.0906C118.966 47.5605 119.293 48.0037 119.715 48.4253ZM125.214 47.6081C124.67 47.0217 123.893 46.5333 123.138 46.1027C122.218 45.5618 121.174 45.1318 120.333 44.5231C119.442 43.893 119.014 43.1727 118.567 42.3418C118.709 40.9812 119.047 39.5888 119.267 38.2132C119.443 37.115 119.443 36.042 119.276 35.0173C119.486 35.5946 119.711 36.1536 119.995 36.7043C120.662 37.9655 121.484 39.1438 122.237 40.3602C123.623 42.6283 124.516 45.0759 125.214 47.6081ZM109.679 25.8558C110.495 26.0552 111.404 26.1157 112.308 26.2175C114.2 26.4292 115.605 27.0547 116.97 27.7992C117.505 29.0954 117.935 30.443 118.301 31.8403C118.393 32.1471 118.462 32.4491 118.553 32.7559C118.262 32.1293 117.899 31.5293 117.444 30.9625C115.595 28.6675 112.547 27.4385 109.679 25.8558ZM114.087 26.1175C112.275 25.7323 110.288 25.6595 108.556 25.1536C108.556 25.1536 108.538 25.1603 108.534 25.1487C106.131 23.5401 104.557 21.4326 103.918 18.892C103.845 18.5785 103.776 18.2766 103.721 17.9565C104.315 18.6814 105.171 19.2719 106.139 19.6641C107.42 20.1777 108.845 20.3509 110.312 20.6395C111.514 20.8809 112.302 21.4568 113.279 21.872C113.576 22.2345 113.892 22.5903 114.194 22.9643C115.286 24.3185 116.094 25.7379 116.759 27.222C116.001 26.7269 115.114 26.3312 114.087 26.1175ZM107.236 25.6619C107.282 25.959 107.292 26.2693 107.244 26.588C106.355 25.1721 105.562 23.7346 104.747 22.2922C105.329 23.1525 106.04 23.9134 106.87 24.6047C106.96 24.9643 107.186 25.3005 107.236 25.6619ZM108.133 27.951C107.916 27.6379 107.721 27.3297 107.522 27.0099C107.832 26.504 107.854 25.9988 107.799 25.5087C107.796 25.4443 107.789 25.3684 107.763 25.2991C108.516 25.8355 109.338 26.3337 110.268 26.792C111.074 27.1911 111.866 27.6085 112.636 28.021C112.902 28.9184 113.309 29.751 113.316 30.7299C113.311 31.6213 113.05 32.4886 112.765 33.4038C111.375 31.517 109.514 29.8675 108.133 27.951ZM113.499 34.5097C113.339 34.241 113.183 33.9838 113.009 33.7333C114.106 32.103 114.251 29.9567 113.471 28.501C115.137 29.5023 116.587 30.6477 117.509 32.1559C117.685 33.5437 117.43 34.8798 116.597 36.4401C115.935 37.6765 115.231 38.9146 114.758 40.1604C114.614 38.1848 114.51 36.2603 113.499 34.5097ZM114.862 41.7449C114.842 41.4643 114.804 41.1904 114.788 40.9214C115.705 39.0819 116.852 37.25 117.643 35.4042C117.897 34.8011 118.102 34.1766 118.198 33.592C119.047 36.0298 118.513 38.5798 118.078 41.3426C117.8 43.0666 117.764 44.663 118.268 46.1013C118.219 47.3229 117.884 48.6097 117.845 49.8016C116.135 47.3775 115.138 44.7057 114.862 41.7449ZM123.315 56.7017C123.538 55.5605 124.483 54.1947 124.607 53.0636C124.985 53.5926 125.31 54.1415 125.492 54.7552C125.951 56.2364 125.904 57.9154 126.253 59.4365C126.433 60.1558 126.609 60.8636 126.844 61.5629C126.71 62.2136 126.535 62.8661 126.343 63.5252C126.313 63.6144 126.307 63.7085 126.281 63.8093C126.263 63.4759 126.226 63.1491 126.171 62.829C125.769 60.542 124.674 58.5605 123.315 56.7017ZM126.261 65.5047C126.582 64.5762 126.749 63.6777 127.07 62.7492C127.104 62.6716 127.133 62.5824 127.163 62.4932C127.26 62.7587 127.338 63.0309 127.431 63.2849C127.435 63.2964 127.444 63.3195 127.448 63.331C127.494 63.458 127.536 63.5735 127.583 63.7005C127.895 64.5548 128.243 65.3959 128.555 66.2502C128.5 66.2701 128.472 66.3065 128.463 66.3363C128.022 67.7273 127.254 68.845 126.084 70.1619C125.555 70.7475 125.063 71.3199 124.615 71.902C124.735 71.6095 124.86 71.3286 124.962 71.0428C125.636 69.1609 126.134 67.3043 126.261 65.5047ZM124.088 73.1149C125.083 71.7705 126.355 70.5079 127.484 69.1928C128.092 68.4864 128.666 67.7406 128.833 67.0122C129.334 68.4389 129.702 69.9005 129.703 71.4836C129.693 71.5133 129.687 71.5546 129.7 71.5893C129.703 71.9937 129.67 72.4114 129.619 72.8358C129.563 73.2486 129.485 73.6565 129.389 74.0711C128.615 75.623 126.54 76.5508 124.961 77.8208C123.7 78.8308 121.933 80.0384 121.59 81.3021C121.171 81.1149 120.738 80.946 120.337 80.7521C121.421 78.1842 122.914 75.6632 124.088 73.1149ZM121.221 81.8164C122.479 82.3251 123.71 82.8701 124.793 83.5212C125.896 85.1858 125.837 87.5102 125.597 89.5082C125.278 92.137 124.307 94.8466 123.202 97.5268C122.127 100.118 121.225 102.959 119.276 105.476C118.069 107.029 116.795 108.738 116.144 110.402C115.951 109.648 115.649 108.934 115.27 108.235C115.266 105.567 116.473 102.771 117.26 100.011C118.027 97.3098 118.565 94.6013 118.758 91.9662C119.077 87.5844 118.548 83.368 117.287 79.4059C118.223 80.3858 119.556 81.1552 121.221 81.8164ZM114.926 67.7986C116.226 70.3987 115.552 73.5235 115.88 76.4C115.879 76.4528 115.896 76.499 115.912 76.5452C115.884 76.5816 115.856 76.6179 115.869 76.6526C117.182 81.9434 118.635 87.0522 118.01 92.8545C117.688 95.929 116.942 99.0276 115.961 102.16C115.528 103.574 114.516 105.605 114.549 107.163C113.957 106.333 113.241 105.56 112.478 104.884C111.962 104.431 111.414 104.003 110.852 103.593C109.963 101.838 109.402 100.132 109.282 98.1085C109.181 96.2483 109.238 94.3696 109.363 92.4528C109.636 88.454 109.813 84.4769 109.338 80.6335C108.882 76.9534 108.12 73.2279 106.791 69.814C105.996 67.7492 105.432 64.9063 103.192 63.4607C103.556 63.4978 103.898 63.53 104.258 63.5556C108.828 63.9803 113.369 64.6643 114.926 67.7986ZM114.538 112.728C113.733 113.009 113.199 113.636 112.752 114.165C111.944 115.115 111.063 116.038 110.304 117.009C108.962 118.702 107.738 120.209 105.633 121.449C103.039 121.86 100.5 122.591 98.0848 123.943C96.2326 124.973 94.3568 126.221 92.2842 126.873C90.2299 127.518 87.9385 127.91 85.8429 128.047C87.3412 127.461 88.881 126.48 89.7909 125.807C92.4686 123.875 94.9037 121.729 97.2702 119.622C99.7431 117.411 102.23 115.181 104.627 112.932C105.87 111.759 107.041 110.559 108.333 109.407C109.297 108.545 110.251 107.542 111.65 107.136C113.141 108.789 114.135 110.664 114.605 112.743C114.579 112.726 114.556 112.721 114.538 112.728ZM99.6599 130.63C100.854 132.261 101.586 134.153 101.611 136.198C101.627 138.22 101.356 140.531 100.644 142.649C100.421 143.28 99.9373 144.385 100.26 144.987C99.0863 145.049 97.9348 145.116 96.7652 145.19C93.7619 145.384 90.7251 145.655 87.6799 145.904C86.268 144.862 87.0765 142.5 87.1112 140.956C87.1553 139.043 87.0453 137.16 86.4675 135.408C85.9096 133.767 85.1233 132.235 84.1369 130.777C83.5195 129.877 82.7984 128.976 81.6715 128.432C82.2837 128.47 82.9099 128.49 83.5319 128.498C83.6356 128.5 83.7393 128.501 83.8429 128.503C86.4668 128.513 89.2108 128.23 91.9332 127.38C92.3603 127.251 92.7972 127.091 93.2075 126.915C96.0979 127.26 98.4266 128.948 99.6599 130.63ZM116.736 142.648C115.629 143.627 113.397 144.011 111.954 144.354C110.035 144.806 108.124 145.164 106.234 145.357C101.913 145.784 97.6348 146.103 93.4168 146.19C85.8382 146.341 77.9386 147.59 70.5011 147.335C66.5504 147.195 62.6235 147.006 58.6058 147.021C54.8137 147.032 50.9113 147.475 47.0605 147.664C43.0248 147.856 39.1678 147.576 35.1139 147.774C31.4844 147.948 27.8091 148.505 24.2816 148.393C24.2634 148.4 24.2634 148.4 24.2452 148.406C23.0445 148.282 21.6157 148.438 20.4235 148.336C18.6554 148.184 16.8271 148.093 15.1723 147.742C14.616 147.631 14.0555 147.508 13.4951 147.386C14.5235 147.547 15.5519 147.708 16.5943 147.85C19.6053 148.243 22.6831 148.31 25.9274 148.211C28.0483 148.143 30.1914 147.91 32.3331 147.73C32.3737 147.728 32.4368 147.731 32.4774 147.729C32.4943 147.776 32.5293 147.815 32.6288 147.805C36.6082 147.346 40.4511 147.644 44.3356 147.547C47.8952 147.464 51.5007 147.168 55.0994 146.967C58.8605 146.758 62.5042 146.736 66.1256 146.879C69.6392 147.009 73.178 147.208 76.8257 147.028C84.397 146.632 92.0492 145.892 99.6303 145.466C105.036 145.127 111.292 145.028 116.736 142.648ZM113.111 107.858C111.596 105.913 109.523 104.249 107.027 102.949C104.201 101.482 100.856 100.57 97.6511 99.4771C94.0971 98.2757 90.6495 96.97 87.1417 95.7256C83.7277 94.5123 79.8647 93.7639 76.5249 92.4712C73.1852 91.1785 69.7126 90.1437 66.1364 89.1074C63.2987 88.2856 60.7003 87.2717 57.8109 86.5342C56.3603 85.9517 54.7628 85.4752 53.2702 84.9473C51.0938 84.1849 48.986 83.3845 46.9299 82.4997C43.6741 81.0978 40.533 79.6148 37.4382 78.0888C38.5482 78.5862 39.6401 79.0904 40.7544 79.5994C44.0748 81.1216 47.5211 82.4801 51.2067 83.6465C53.1434 84.2609 54.9975 84.9315 56.8419 85.6319C58.1368 86.1273 59.4948 86.6259 61.0543 86.8284C63.3849 87.7307 66.0249 88.35 68.4717 89.1182C71.6836 90.1174 74.7291 91.2821 77.969 92.2449C81.2047 93.1961 84.4879 94.0515 87.6355 95.1004C90.8503 96.164 94.0021 97.2244 97.0965 98.4104C99.7846 99.4438 102.839 100.069 105.435 101.188C107.495 102.085 109.43 103.145 111.025 104.407C114.389 107.065 116.128 110.303 115.591 114.424C115.571 114.314 115.569 114.196 115.568 114.079C115.242 111.83 114.517 109.674 113.111 107.858ZM51.4257 87.8059C48.5709 89.2539 45.7204 90.7135 42.8964 92.1895C39.3459 94.0486 31.796 98.5717 28.0974 97.0306C27.117 96.0409 26.1045 95.076 25.5218 93.8757C25.4137 92.4497 25.188 91.0405 24.8895 89.6579C25.0155 89.6642 25.178 89.6572 25.363 89.6551C26.4893 89.6887 27.4643 89.6467 28.6617 89.3665C30.7121 88.8795 32.7396 88.0476 34.6213 87.0988C38.1159 85.3125 41.3422 82.9044 45.3496 82.4094C48.6012 83.7997 51.9732 85.0676 55.5438 86.1452C55.5298 86.1634 55.534 86.1749 55.5243 86.2046C54.1544 86.3516 52.6634 87.1839 51.4257 87.8059ZM21.7613 79.6784C21.59 79.3223 21.3865 78.9909 21.183 78.6596C22.2043 78.7447 23.7099 78.4043 24.4802 78.2538C27.1945 77.7207 30.1558 76.3384 32.7826 76.413C33.4329 76.725 34.0791 77.0255 34.7112 77.3443C38.0318 79.0365 41.4168 80.6791 44.9179 82.1876C42.1064 82.2852 39.2183 83.9809 36.7978 85.3751C35.059 86.3763 33.2754 87.3678 31.3233 88.0675C30.1583 88.4929 28.779 89.0096 27.5898 89.1429C26.8166 89.229 25.6414 89.3441 24.8007 89.2454C24.6304 88.4964 24.474 87.7292 24.3079 86.9917C23.7223 84.484 22.9378 81.9965 21.7613 79.6784ZM99.0796 62.9342C100.009 63.1053 100.961 63.2284 101.924 63.3218C103.557 64.1779 104.341 65.5924 104.909 67.0338C105.516 68.5262 106.159 70.0054 106.639 71.5444C107.742 75.1321 108.584 78.907 108.87 82.741C109.149 86.4991 108.762 90.3562 108.601 94.2094C108.525 95.9776 108.498 97.767 108.766 99.4617C108.91 100.364 109.076 101.272 109.438 102.095C109.574 102.411 109.757 102.685 109.958 102.952C109.066 102.375 108.128 101.84 107.13 101.367C104.756 100.232 101.994 99.6184 99.4251 98.6854C97.5332 95.5948 97.7992 91.6901 98.015 87.9869C98.2112 84.3433 98.752 80.6261 98.776 77.0192C98.8182 73.4055 98.3659 69.9071 97.1729 66.6398C96.5195 64.8503 95.7958 62.8117 94.3876 61.2717C95.8214 61.978 97.2483 62.6085 99.0796 62.9342ZM81.4957 59.1883C83.807 59.077 86.296 58.7178 88.4285 59.0774C89.8339 59.3101 91.0587 59.7264 92.2094 60.2221C95.0191 62.3233 96.2332 65.6483 97.0491 68.6738C97.993 72.1629 98.2255 75.794 98.0168 79.5731C97.8023 83.2234 97.3344 86.914 97.2558 90.5408C97.2311 92.2247 97.3016 93.8868 97.5626 95.5056C97.7304 96.5303 97.9613 97.5581 98.6122 98.3803C95.7224 97.3027 92.9194 96.1804 89.8855 95.2732C88.194 94.7656 86.4984 94.2464 84.8069 93.7388C83.9537 92.3625 84.0554 90.6636 84.0564 89.0277C84.0501 87.1458 83.9485 85.2857 83.9058 83.4172C83.8179 79.9557 83.9246 76.4625 83.7232 73.0294C83.5389 69.8125 83.3349 66.4851 82.0694 63.5845C81.5244 62.318 80.7877 61.1478 79.9417 60.0174C79.6933 59.6763 79.4268 59.3419 79.1141 59.0504C79.8595 59.1708 80.6426 59.225 81.4957 59.1883ZM70.8861 57.2529C73.1891 57.2886 74.9028 57.6311 76.6968 58.363C77.0584 58.5057 77.4157 58.6369 77.7871 58.7499C78.7741 59.4755 79.3706 60.4876 80.0147 61.4039C80.907 62.6612 81.5614 64.0578 81.9525 65.5244C82.8401 68.7462 83.0275 72.1975 83.1028 75.6242C83.1809 79.1154 83.1681 82.6398 83.3051 86.1225C83.36 87.6857 83.3198 89.2705 83.393 90.827C83.4488 91.8272 83.5605 92.7546 84.1357 93.539C82.6993 93.1083 81.2811 92.671 79.835 92.2701C77.2789 91.5417 74.8293 90.709 72.3614 89.883C71.899 88.5602 71.1496 87.3554 70.8468 85.9612C70.4793 84.2767 70.4073 82.4973 70.2806 80.7379C70.0446 77.6054 69.9219 74.4445 69.4954 71.3553C69.0562 68.2315 68.4363 65.1213 67.1696 62.2736C66.6401 61.1061 65.7129 58.7362 63.7329 58.2293C66.0982 57.588 68.4611 57.2224 70.8861 57.2529ZM59.2139 59.6962C60.3887 59.241 61.5664 58.8503 62.7203 58.5074C64.4325 58.7327 65.4586 60.5824 65.957 61.5518C66.5761 62.7389 67.0762 63.9955 67.4447 65.2872C68.2478 68.108 68.796 71.0219 69.0403 74.0075C69.2988 77.145 69.5208 80.2957 69.8018 83.4381C69.9947 85.6051 70.3279 87.9302 71.7308 89.6815C71.0735 89.4636 70.4163 89.2456 69.7408 89.0343C66.6367 88.048 63.3382 87.2637 60.3642 86.1252C60.2928 86.099 60.2115 86.1025 60.1205 86.1357C59.794 86.0325 59.4632 85.9178 59.1143 85.8097C58.292 84.6314 58.6586 82.9797 58.7901 81.5317C58.8951 80.2373 59.0407 78.9411 59.1233 77.6417C59.3207 75.0182 59.2506 72.4531 59.0082 69.9247C58.811 67.7462 58.3968 65.5947 57.3174 63.7121C56.5875 62.4477 55.5387 61.6662 53.9554 61.3415C55.7229 60.984 57.4565 60.364 59.2139 59.6962ZM50.4085 61.459C51.1497 61.5678 51.8935 61.571 52.6345 61.5098C54.1169 61.7274 55.269 62.1703 56.0517 63.1275C56.7686 64.0172 57.2572 65.0163 57.5638 66.082C58.2233 68.3403 58.3254 70.7105 58.4948 73.0954C58.6839 75.5909 58.4333 78.1815 58.1784 80.7606C58.0441 82.1443 57.4721 84.2504 58.2384 85.5014C54.6971 84.3347 51.1879 83.1431 47.7669 81.8539C47.7627 81.8423 47.7585 81.8308 47.7543 81.8192C46.6308 80.607 47.3986 78.2462 47.4795 76.6597C47.5824 74.7379 47.5341 72.9107 47.2379 71.0823C46.9164 69.1848 46.5529 67.3417 45.786 65.5806C45.2566 64.4132 44.4736 63.2859 42.9362 62.7482C45.4497 61.7781 47.9285 61.1085 50.4085 61.459ZM42.2109 63.0785C42.2376 63.0949 42.2418 63.1065 42.2684 63.1229C44.6522 63.888 45.4154 66.1477 45.8966 67.9739C46.3693 69.7771 46.8085 71.6579 46.8863 73.5659C46.9694 75.2627 46.9154 77.0357 46.7128 78.7976C46.6045 79.6876 46.439 80.7032 46.8069 81.4848C44.4272 80.5612 42.0796 79.6127 39.8202 78.5667C38.6303 78.0198 37.4403 77.473 36.2363 76.9444C35.686 75.8892 35.763 74.6312 35.6216 73.4529C35.4915 72.3621 35.1317 71.2635 34.6151 70.3007C34.1069 69.361 33.5357 68.4182 32.6481 67.6824C32.3565 67.4487 32.0761 67.3025 31.7538 67.2108C32.1432 67.1472 32.5241 67.0604 32.919 66.9555C36.0421 66.1291 39.1249 64.4016 42.2109 63.0785ZM21.688 68.0078C24.2762 67.4683 26.3775 67.4599 28.8304 67.454C29.2857 67.4578 29.7508 67.4319 30.2116 67.3945C30.8001 67.4806 31.3801 67.5436 31.805 67.8595C32.2606 68.2034 32.6295 68.5921 32.9522 69.0238C33.707 70.0173 34.2657 71.0956 34.6285 72.2585C35.0278 73.5781 34.821 75.3284 35.4963 76.6127C33.5747 75.7573 31.621 74.9268 29.607 74.1575C27.9771 73.5358 26.329 72.9207 24.6109 72.3966C24.5437 72.382 24.4722 72.3557 24.4049 72.341C24.0966 72.2312 23.7883 72.1213 23.48 72.0115C20.2834 70.9413 16.2773 70.1404 13.5004 68.5245C15.8502 69.0272 19.0045 68.5689 21.688 68.0078ZM14.3332 70.3531C13.9572 69.8885 13.5812 69.4239 13.2053 68.9593C14.0463 69.398 15.0203 69.7489 15.8598 70.0705C17.2977 70.6183 18.8238 71.0686 20.3359 71.537C20.9385 71.7749 21.5873 71.9698 22.2544 72.158C25.7593 73.3381 29.0711 74.6672 32.2345 76.1551C30.6207 76.1425 28.9318 76.6022 27.1644 77.1298C25.7878 77.5408 22.1566 78.6705 20.8224 78.124C19.7531 76.5518 18.4011 75.109 17.1218 73.6396C16.1708 72.5607 15.2338 71.4636 14.3332 70.3531ZM29.4734 98.5955C29.2208 98.2429 28.9137 97.9102 28.6107 97.589C29.7625 97.8619 31.4741 97.5771 32.6953 97.249C34.9739 96.6525 37.1706 95.5494 39.2484 94.516C42.3902 92.95 45.431 91.2771 48.5686 89.6996C49.8749 89.0395 51.1714 88.409 52.4819 87.7604C53.6328 87.1832 55.0259 86.4782 56.2965 86.5115C59.528 87.4512 62.579 88.5746 65.8244 89.4961C68.0848 90.1492 70.2905 90.8224 72.4543 91.5501C69.8059 92.1507 66.9533 94.226 64.8912 95.5285C61.9725 97.3663 59.0845 99.232 55.9891 100.925C52.6878 102.732 49.2214 104.652 45.6942 106.123C44.049 106.816 42.3378 107.44 40.6054 107.838C39.1992 108.168 37.3898 108.58 36.1063 108.342C34.8443 107.259 33.8664 105.993 33.0482 104.657C31.7866 102.671 30.8988 100.522 29.4734 98.5955ZM37.8631 109.65C37.4411 109.399 37.0514 109.122 36.698 108.833C38.4661 108.985 41.1647 108.183 42.6827 107.707C46.1963 106.594 49.4149 104.843 52.6309 103.198C56.1759 101.38 59.54 99.4059 62.848 97.3344C65.8675 95.4337 69.3709 92.7675 72.9995 91.7435C74.0365 92.0976 75.0554 92.4583 76.0644 92.8487C78.9936 93.9773 82.3592 94.6064 85.3625 95.6556C86.2874 95.9852 87.2124 96.3147 88.1191 96.6509C86.1862 96.9511 84.1456 98.6514 82.7543 99.6435C79.2787 102.103 76.1226 104.76 72.6694 107.225C69.1197 109.764 65.4087 112.258 61.5014 114.496C59.6254 115.573 57.6469 116.426 55.5969 117.253C54.4123 117.738 52.2338 118.835 50.8373 118.965C50.4797 118.664 50.1039 118.369 49.7464 118.068C48.0258 116.577 46.4802 114.943 44.5763 113.571C42.5083 112.089 40.0611 110.98 37.8631 109.65ZM56.5698 122.799C54.5765 121.748 52.7905 120.529 51.1556 119.215C52.0659 119.053 53.2001 118.6 53.7967 118.369C55.4042 117.743 57.0117 117.116 58.5855 116.398C62.5129 114.61 66.1049 112.187 69.5498 109.869C72.9486 107.594 76.1483 105.17 79.299 102.724C81.0191 101.389 82.7618 100.06 84.646 98.835C86.0948 97.8873 87.1263 97.0396 88.9109 96.8983C90.9262 97.6148 92.9232 98.3379 94.9385 99.0544C97.3069 99.8906 99.7313 100.654 102.059 101.492C99.2007 102.195 97.0233 104.312 95.0416 106.004C91.8618 108.709 88.8516 111.483 85.7475 114.226C82.5329 117.061 78.8264 119.736 74.7621 121.94C71.6946 123.596 68.4351 125.179 64.9923 125.638C61.925 124.979 59.0438 124.094 56.5698 122.799ZM65.9157 125.85C68.2408 125.551 70.7066 124.507 72.7941 123.443C76.5212 121.559 79.8851 119.415 83.0526 117.015C86.528 114.386 89.3811 111.407 92.607 108.659C94.2753 107.239 95.9042 105.767 97.6482 104.385C99.1206 103.219 100.607 102.205 102.545 101.694C106.007 102.981 109.169 104.522 111.391 106.877C109.472 107.329 107.809 109.271 106.681 110.363C104.342 112.604 101.951 114.812 99.5185 117.022C97.0583 119.268 94.5714 121.497 91.9108 123.646C89.9821 125.201 87.3774 127.277 84.6424 128.093C80.6948 128.187 77.1385 127.431 73.2203 127.436C72.8686 127.433 72.5212 127.442 72.1738 127.451C70.9285 126.244 68.0118 126.223 65.9157 125.85ZM79.9385 128.319C80.1542 128.345 80.3882 128.364 80.618 128.372C84.0874 130.415 85.7488 134.061 86.3284 137.513C86.6402 139.44 86.5892 141.448 86.443 143.477C86.3795 144.377 86.3134 145.382 87.0608 145.96C82.8543 146.305 78.6394 146.627 74.5768 146.632C74.3107 146.638 74.0585 146.625 73.7924 146.631C72.5986 145.169 72.3177 143.27 72.0256 141.453C71.6928 139.468 71.2368 137.541 70.3494 135.733C69.535 134.067 68.5204 132.475 67.0619 131.137C66.2822 130.414 65.4056 129.425 64.052 129.109C65.2927 128.721 66.5588 128.403 67.8936 128.216C72.1698 127.61 76.0884 127.945 79.9385 128.319ZM55.3859 132.665C58.0659 131.53 60.5861 130.296 63.2426 129.378C65.287 129.835 66.5789 131.339 67.5847 132.568C68.871 134.113 69.8059 135.826 70.4496 137.646C71.0806 139.43 71.3124 141.308 71.7754 143.141C72.0708 144.289 72.1594 145.775 73.2068 146.609C70.1192 146.572 67.0749 146.427 63.9887 146.338C63.1327 146.31 62.2669 146.312 61.4012 146.314C59.9432 145.316 59.724 143.472 59.0878 142.069C58.5022 140.804 57.8942 139.535 57.058 138.375C55.864 136.743 54.2337 134.538 51.5362 133.875C52.8458 133.619 54.1145 133.195 55.3859 132.665ZM44.2374 134.904C46.3452 134.462 48.3176 134.383 50.3808 134.1C50.4396 134.092 50.476 134.079 50.5348 134.07C54.125 135.088 56.1677 137.745 57.5336 140.242C58.2832 141.617 58.8465 143.047 59.4869 144.462C59.7776 145.088 60.0418 145.868 60.7022 146.321C58.3389 146.346 55.9463 146.461 53.5258 146.612C51.412 146.756 49.3122 146.882 47.2222 146.977C46.1649 146.003 45.5038 144.87 44.515 143.857C43.4912 142.805 42.4128 141.773 41.1048 140.903C39.7435 140 38.1848 139.234 36.3897 138.725C35.9287 138.592 35.3471 138.412 34.7476 138.409C37.7564 136.931 40.7696 135.634 44.2374 134.904ZM31.0416 140.351C31.9922 139.847 32.9289 139.361 33.8655 138.875C35.5644 138.555 37.6109 139.64 38.6173 140.136C40.1269 140.88 41.4209 141.768 42.554 142.781C43.5019 143.625 44.3588 144.503 45.0828 145.469C45.5149 146.031 45.9288 146.599 46.5722 147.005C45.2723 147.061 43.9905 147.111 42.7186 147.13C40.0345 147.181 37.3292 147.005 34.5628 147.282C33.8105 147.256 33.0247 147.307 32.2291 147.388C28.8255 146.655 27.5315 143.281 23.837 142.995C26.3089 142.419 28.7567 141.551 31.0416 140.351ZM22.6578 143.268C25.2694 143.584 26.6562 144.726 28.3876 145.965C29.1097 146.473 29.9342 147.206 31.0034 147.535C29.3534 147.706 27.72 147.753 26.1048 147.793C22.726 147.862 19.5081 147.807 16.3724 147.356C16.2645 147.343 16.1525 147.318 16.0446 147.305C14.9201 146.486 14.6325 144.851 13.2632 144.265C15.6236 144.175 18.0553 143.941 20.421 143.64C21.1858 143.531 21.9239 143.405 22.6578 143.268ZM8.02104 144.203C9.27213 144.296 10.5568 144.311 11.8736 144.301C13.4809 144.748 14.0213 145.663 14.7887 146.691C14.915 146.867 15.0552 147.026 15.1913 147.172C12.7029 146.798 10.2061 146.402 7.88556 145.81C5.92796 145.308 4.33847 144.514 2.6342 143.802C3.4482 143.884 4.26642 143.978 5.11262 144.035C6.0667 144.106 7.02365 144.24 8.02104 144.203ZM1.39441 143.797C1.38598 143.774 1.35513 143.746 1.3467 143.723C3.51488 144.632 5.46884 145.632 7.92388 146.254C9.17535 146.686 10.487 147.058 11.8364 147.363C11.2341 147.466 10.5886 147.675 10.0171 147.805C9.16002 148.001 8.19789 148.247 7.37411 148.195C7.03647 148.174 6.72682 148.117 6.41716 148.06C5.27606 147.364 4.19935 146.619 3.28781 145.761C2.9427 145.325 2.51079 144.933 2.0831 144.553C1.8405 144.34 1.69162 143.989 1.39441 143.797ZM7.20778 148.53C7.64908 148.552 8.13657 148.531 8.62118 148.446C9.89852 148.215 11.4599 147.632 12.7192 147.578C16.2573 148.34 20.0625 148.704 24.1208 148.687C24.1432 148.692 24.125 148.699 24.1474 148.704C24.4038 148.728 24.6924 148.727 24.9488 148.751C23.6239 149.078 22.2895 149.605 21.0756 150.179C18.3103 151.476 16.1373 152.531 13.2628 152.626C12.9472 152.27 12.6176 151.933 12.2012 151.64C10.6702 150.498 8.89979 149.548 7.20778 148.53ZM13.5475 152.954C15.0719 153.117 17.0632 152.468 18.5684 151.788C21.2091 150.601 23.5053 149.488 26.2376 148.778C29.4709 148.762 32.9528 148.184 36.2013 148.097C36.6118 148.091 37.0222 148.085 37.4327 148.079C34.3336 149.027 31.2769 151.504 29.0611 153.177C27.3787 154.446 25.6445 155.798 23.7714 156.94C22.4387 157.754 19.9773 158.98 18.3647 158.744C17.0942 157.638 15.9665 156.414 15.0573 155.111C14.5438 154.383 14.089 153.646 13.5475 152.954ZM18.7222 159.046C19.4115 159.069 20.2364 158.898 20.882 158.689C22.7095 158.1 24.1905 157.127 25.6505 156.097C29.4201 153.425 33.6041 149.346 38.5422 148.066C41.8833 148.063 45.1811 148.168 48.6004 147.927C49.6439 147.846 50.7099 147.771 51.7395 147.709C50.1655 148.258 48.5668 149.247 47.318 149.952C44.8428 151.366 42.5275 152.879 40.2332 154.449C37.5904 156.251 34.9337 158.242 31.9782 159.753C29.4062 161.072 25.7599 162.442 23.1916 162.019C21.518 161.165 20.0109 160.145 18.7222 159.046ZM24.247 162.537C25.7656 162.571 27.8493 161.836 29.2146 161.338C31.9494 160.352 34.2621 158.945 36.5732 157.421C39.4303 155.527 42.1416 153.517 45.0912 151.707C47.331 150.326 50.2161 148.396 52.968 147.627C55.6323 147.465 58.2546 147.358 60.8729 147.41C63.4464 147.451 65.9905 147.582 68.5584 147.665C66.2111 148.13 63.7286 149.298 61.6438 150.256C58.1952 151.829 54.9556 153.692 51.6502 155.488C48.3769 157.259 45.1023 159.083 41.6803 160.672C39.8461 161.525 38.0006 162.291 36.1327 163.051C34.8388 163.576 33.5255 164.16 32.1571 164.424C30.8949 164.414 29.6662 164.326 28.5592 164.063C27.0361 163.677 25.5884 163.159 24.247 162.537ZM35.2642 164.402C34.7053 164.397 34.1141 164.416 33.537 164.418C35.6237 163.917 37.8387 162.808 39.6309 162.009C42.8779 160.562 45.9623 158.952 49.0479 157.288C52.5634 155.39 56.0241 153.341 59.6448 151.561C62.7222 150.045 66.4157 148.238 69.8151 147.717C70.9596 147.744 72.1 147.759 73.2501 147.745C76.9848 147.689 80.8005 147.461 84.6274 147.149C84.3627 147.272 84.1023 147.406 83.8419 147.541C81.928 148.514 80.1151 149.595 78.3372 150.715C74.5477 153.106 71.054 155.743 67.2603 158.123C63.5352 160.464 59.4292 162.892 55.1372 164.473C53.0844 165.235 50.939 165.914 48.827 166.345C47.3718 166.654 45.4151 167.002 43.8644 166.993C42.9419 166.387 41.9733 165.825 40.8716 165.351C39.2346 164.653 37.451 164.402 35.2642 164.402ZM51.4378 170.953C48.4713 170.23 46.4943 168.715 44.3704 167.305C45.2908 167.283 46.2727 167.147 47.1551 167.021C48.9829 166.772 50.8624 166.269 52.6619 165.717C56.6474 164.484 60.3549 162.659 63.887 160.637C67.6754 158.468 71.06 156.042 74.5875 153.668C76.5417 152.352 78.5323 151.023 80.6014 149.797C81.8375 149.058 83.9624 147.588 85.7115 147.067C85.7298 147.061 85.734 147.072 85.7522 147.066C89.8101 146.709 93.7521 146.657 97.771 146.419C96.4998 147.119 94.8166 148.95 94.4514 149.306C91.9354 151.795 89.4951 154.322 86.7871 156.737C82.8378 160.272 78.144 163.294 73.0239 165.884C70.3245 167.249 67.5788 168.487 64.7025 169.537C63.6285 169.929 62.5152 170.27 61.4454 170.674C60.9903 170.84 60.4848 171.038 59.9806 171.183C59.381 171.179 58.7857 171.187 58.1721 171.202C55.9167 171.241 53.4276 171.43 51.4378 170.953ZM64.7636 171.569C63.5208 171.329 62.2207 171.215 60.8828 171.167C61.3603 171.006 61.8154 170.84 62.2201 170.705C64.6707 169.902 67.1367 169.028 69.468 167.954C74.3307 165.734 79.2757 163.117 83.3348 160.051C87.0076 157.284 90.1799 154.163 93.1842 151.09C94.0685 150.179 94.9528 149.267 95.9086 148.381C96.3103 148.012 97.9921 146.234 98.7291 146.331C98.7697 146.329 98.8104 146.328 98.8426 146.303C101.949 146.11 105.164 145.931 108.356 145.406C107.715 145.798 107.21 146.335 106.729 146.825C105.265 148.354 104.043 149.978 102.83 151.572C100.544 154.579 98.6733 157.761 96.0289 160.689C93.2782 163.722 90.299 166.694 86.6261 169.291C84.8539 170.54 82.9362 171.842 80.878 172.816C79.7873 173.332 78.523 173.938 77.3184 174.142C76.7568 174.242 75.8899 174.467 75.1531 174.54C71.5338 173.781 68.4838 172.265 64.7636 171.569ZM91.3591 173.778C86.7188 174.517 81.7677 175.422 77.4692 174.95C77.0195 174.905 76.5795 174.83 76.1396 174.756C76.7601 174.647 77.3819 174.485 77.8174 174.378C79.6828 173.894 81.4946 173.036 83.0975 172.058C86.7793 169.824 90.1023 167.341 92.9275 164.569C96.0117 161.546 98.4388 158.475 100.703 155.24C101.952 153.463 103.287 151.693 104.67 149.945C105.346 149.083 105.995 148.205 106.783 147.368C107.376 146.733 108.259 145.704 109.275 145.267C109.601 145.2 109.914 145.152 110.24 145.085C111.237 144.878 112.695 144.633 114.058 144.24C112.115 145.473 111.156 147.197 110.69 148.859C109.999 151.375 109.422 153.862 108.591 156.39C106.783 161.891 103.603 168.718 96.6045 173.001C94.8845 173.262 93.1337 173.496 91.3591 173.778ZM114 162.501C112.558 165.501 109.865 169.428 105.321 170.995C102.628 171.926 99.9954 172.456 97.3426 172.875C98.3871 172.402 99.196 171.623 100.012 170.919C101.367 169.77 102.578 168.569 103.549 167.272C105.449 164.734 106.984 161.988 108.069 159.368C109.161 156.706 110.041 153.976 110.667 151.34C111.261 148.729 111.674 146.131 114.849 143.978C115.545 143.737 116.17 143.469 116.683 143.125C115.942 144.429 117.009 146.107 117.335 147.113C117.924 148.952 117.841 150.814 117.913 152.764C117.542 154.234 117.212 155.702 116.561 157.196C115.749 158.984 114.847 160.753 114 162.501ZM119.023 147.216C118.949 148.199 118.757 149.198 118.524 150.199C118.485 149.415 118.355 148.664 118.16 148.016C117.652 146.343 116.719 144.747 117.005 142.876C117.066 142.815 117.148 142.759 117.204 142.686C118.95 143.514 119.127 145.635 119.023 147.216ZM121.766 121.956C123.576 122.054 125.72 122.331 126.489 123.477C128.415 126.267 123.463 130.221 121.149 133.094C119.93 134.612 118.669 136.302 118.2 137.9C117.804 139.301 117.947 140.766 116.906 142.154C116.856 142.185 116.81 142.228 116.768 142.283C114.948 142.947 113.141 143.424 111.355 143.788C109.764 142.537 112.084 139.06 113.087 137.399C114.409 135.202 115.732 133.005 116.546 130.771C117.38 128.478 117.714 126.341 117.466 124.194C117.412 123.651 117.496 122.299 116.917 121.673C118.542 121.773 120.149 121.879 121.766 121.956ZM116.039 121.64C117.227 123.143 117.232 125.587 116.872 127.538C116.457 129.848 115.545 132.209 114.25 134.54C112.965 136.841 111.434 139.088 110.653 141.414C110.351 142.336 110.058 143.398 110.901 143.901C107.508 144.552 104.147 144.784 100.792 144.976C100.307 144.381 100.954 143.216 101.171 142.509C101.511 141.351 101.698 140.223 101.88 139.083C102.228 137.098 102.331 135.176 101.74 133.39C101.15 131.604 100.175 129.893 98.4515 128.677C97.4239 127.953 95.838 126.661 93.9538 126.643C97.051 125.237 99.7369 123.157 103.175 122.346C103.765 122.21 104.34 122.091 104.925 121.996C104.943 121.989 104.947 122 104.965 121.994C105.024 121.985 105.079 121.965 105.137 121.957C108.773 121.349 112.293 121.438 115.687 121.638C115.805 121.621 115.931 121.627 116.039 121.64ZM115.079 117.712C115.051 118.821 115.374 119.933 114.894 121.103C112.854 120.997 110.772 120.946 108.622 121.103C107.998 121.148 107.402 121.209 106.787 121.276C108.005 120.544 108.972 119.406 109.684 118.531C110.494 117.528 111.224 116.477 112.123 115.494C112.628 114.956 113.666 113.334 114.644 113.017C114.68 113.173 114.721 113.342 114.739 113.505C114.966 114.861 115.133 116.279 115.079 117.712ZM126.034 96.9768C125.036 98.8198 124.738 100.433 124.164 102.252C123.585 104.112 122.542 105.946 121.288 107.764C120.426 109.021 119.65 110.286 118.725 111.539C118.025 112.502 117.233 113.667 116.022 114.476C116.395 113.293 116.447 112.136 116.268 111.024C116.883 109.713 117.635 108.326 118.582 107.078C119.473 105.902 120.454 104.746 121.08 103.522C122.487 100.823 123.667 98.0638 124.641 95.3657C125.563 92.8048 126.35 90.2145 126.318 87.7534C126.313 86.5516 126.29 85.3037 125.839 84.2384C126.946 85.0644 127.814 86.0296 128.247 87.2716C129.346 90.3377 127.861 93.5619 126.034 96.9768ZM132.083 91.3925C131.504 92.1797 130.843 92.9703 130.009 93.6805C129.645 93.9835 128.054 95.3888 127.428 95.5389C128.718 93.0267 129.71 90.5448 129.238 88.1788C129.175 87.8356 129.079 87.5172 128.961 87.1939C129.74 87.4067 130.654 87.4787 131.289 87.8618C132.114 88.3716 132.818 88.8865 133.141 89.6583C132.838 90.2401 132.494 90.8237 132.083 91.3925ZM135.472 84.0055C136.054 78.6507 134.425 73.737 132.573 69.0616C131.407 66.1509 130.018 63.3083 129.071 60.3178C128.123 57.3273 127.508 54.2286 126.819 51.1566C126.122 48.0615 125.395 44.9384 124.002 42.0843C122.574 39.1907 120.447 36.6438 119.539 33.5343C118.65 30.5354 118.108 27.3573 116.332 24.6957C114.638 22.1477 112.3 19.9265 110.451 17.4615C109.849 16.6607 109.361 15.8315 108.945 14.9758C110.374 17.4765 112.418 19.7397 114.401 21.8941C114.792 22.8506 115.854 23.6139 116.487 24.4427C117.521 25.8054 118.08 27.3937 118.609 28.9541C119.511 31.5947 120.01 34.3173 121.473 36.7403C122.32 38.1579 122.954 39.6668 123.711 41.1177C124.417 42.43 125.246 43.6842 125.665 45.1144C126.091 46.6205 126.368 48.1682 126.834 49.6726C127.101 50.5171 127.217 51.4561 127.471 52.3188C127.492 53.7896 128.191 55.196 128.585 56.5569C129.032 58.1207 129.388 59.7178 129.89 61.2617C130.877 64.3033 132.702 66.9863 133.835 69.9747C135.005 73.067 135.873 76.3483 136.099 79.7334C136.21 81.3938 135.864 83.1032 135.645 84.8188C135.475 86.163 135.448 88.2925 133.958 89.6349C133.889 89.673 133.816 89.6996 133.748 89.7377C134.721 87.8255 135.252 85.8911 135.472 84.0055ZM152.754 70.1452C151.474 71.8948 150.292 73.687 148.511 75.3058C146.868 76.7954 144.876 78.007 143.042 79.37C140.359 81.3442 137.344 83.7665 135.883 86.2627C136.095 85.034 136.371 83.7557 136.497 82.5189C137.39 81.0674 139.127 79.6089 140.529 78.3641C142.181 76.8976 143.912 75.4803 145.666 74.068C148.073 72.1292 151.732 69.7201 153.237 67.2865C153.073 68.2493 152.941 69.1873 152.754 70.1452ZM134.643 89.3064C135.191 88.6612 135.512 87.9028 135.688 87.1975C136.859 85.4878 138.104 83.8687 139.888 82.3143C141.654 80.7666 143.575 79.3588 145.616 77.9986C147.473 76.7577 149.022 75.4069 150.35 73.9015C151.033 73.1157 151.857 72.2653 152.465 71.3889C152.302 71.9588 152.117 72.5238 151.876 73.1087C149.234 79.1503 142.426 85.3653 134.643 89.3064ZM154.172 63.1244C153.79 64.1669 153.583 65.1843 153.4 66.2066C151.22 69.6718 147.045 72.4783 143.448 75.4534C141.814 76.7961 140.169 78.1686 138.708 79.5918C137.95 80.3397 137.095 81.1622 136.551 81.9889C136.576 81.7181 136.601 81.4474 136.607 81.1832C136.623 80.0392 136.543 78.9169 136.405 77.803C136.6 76.8682 137.515 75.8144 138.241 74.9213C139.293 73.6212 140.422 72.3061 141.657 71.0568C144.082 68.6013 147.048 66.4976 149.602 64.1127C152.295 61.5987 155.516 58.6691 157.124 55.7268C156.327 58.1768 155.06 60.6412 154.172 63.1244ZM157.731 52.7573C157.736 52.7688 157.736 52.7688 157.722 52.787C156.081 57.7301 151.47 62.2791 146.248 66.3972C143.575 68.5117 141.328 70.7192 139.261 73.0832C138.448 74.0211 136.807 75.6279 136.251 76.9301C135.935 74.9912 135.414 73.1139 134.811 71.293C134.769 71.1775 134.727 71.062 134.689 70.9581C135.396 68.7114 137.742 66.1537 139.513 64.0546C141.577 61.6263 144.024 59.3456 146.325 57.0009C150.111 53.1323 153.849 48.5094 153.973 44.3294C154.322 44.6075 154.649 44.8808 154.948 45.1904C156.997 47.2423 157.968 49.8448 157.731 52.7573Z" fill="#657577"/>
</svg>
