<svg width="221" height="208" viewBox="0 0 221 208" fill="none" xmlns="http://www.w3.org/2000/svg">
<path d="M96.2578 129.304C96.6111 129.534 98.2579 130.247 98.2361 129.657C98.241 129.62 98.1927 129.575 98.1594 129.567C97.9977 129.488 97.7943 129.503 97.6353 129.479C97.3429 129.422 97.0269 129.283 96.7442 129.152C96.2121 128.899 95.8516 128.382 95.9365 127.955C96.0419 127.408 96.9101 127.532 97.4584 127.85C98.1352 128.238 98.5961 128.927 98.3513 129.451C98.3268 129.488 98.4022 129.551 98.4464 129.513C99.361 128.409 96.5367 126.471 95.5936 127.53C95.1919 127.938 95.5858 128.878 96.2578 129.304Z" fill="#657577"/>
<path d="M97.5244 128.402C97.5761 128.382 97.6006 128.345 97.6387 128.316C97.683 128.278 97.6667 128.214 97.6049 128.16C97.4072 128.018 97.2359 128.013 97.061 128.073C96.9257 128.132 96.8113 128.218 96.7785 128.357C96.7081 128.673 97.16 128.901 97.472 128.957C97.5251 128.965 97.5224 128.91 97.4755 128.893C97.2607 128.806 97.078 128.7 97.1822 128.541C97.219 128.484 97.2904 128.464 97.3544 128.425C97.4333 128.423 97.4788 128.413 97.5244 128.402Z" fill="#657577"/>
<path d="M114.552 145.303C113.856 145.183 112.332 144.43 112.238 143.712C112.157 143.123 113.143 143.633 113.436 143.837C113.864 144.13 114.34 144.588 114.617 144.996C114.695 145.114 114.885 145.091 114.832 144.963C114.487 144.068 112.368 142.296 111.808 143.391C111.375 144.234 113.829 145.728 114.598 145.44C114.656 145.411 114.639 145.319 114.552 145.303Z" fill="#657577"/>
<path d="M112.37 143.985C112.38 144.059 112.455 144.122 112.535 144.147C112.756 144.224 112.952 144.192 113.187 144.278C113.448 144.381 113.726 144.549 113.823 144.787C113.875 144.915 114.102 144.982 114.129 144.852C114.242 144.176 112.313 143.359 112.37 143.985Z" fill="#657577"/>
<path d="M87.2487 143.612C87.4656 143.607 87.5589 143.493 87.5313 143.328C87.7262 143 87.9013 142.672 87.7938 142.213C87.7025 141.819 87.4582 141.391 87.1193 141.049C86.413 140.321 85.5186 140.474 85.3716 141.115C85.226 141.783 85.5378 142.523 86.2634 143.103C86.5031 143.3 86.9529 143.62 87.2487 143.612ZM86.1273 142.599C85.7476 142.231 85.7062 141.641 85.7543 141.271C85.8272 140.595 86.5911 140.879 87.0366 141.384C86.8586 141.241 86.6574 141.163 86.4616 141.196C86.129 141.261 86.1006 141.631 86.1411 141.925C86.1977 142.283 86.5945 142.596 86.9219 142.836C86.9763 142.872 87.0267 142.824 86.9784 142.78C86.7312 142.565 86.5037 142.349 86.4645 142.082C86.443 141.908 86.4284 141.603 86.6094 141.534C86.6869 141.504 86.8167 141.602 86.8662 141.675C86.9851 141.819 86.9522 141.959 87.0058 142.114C87.0356 142.187 87.1097 142.222 87.175 142.211C87.2994 142.199 87.3546 142.114 87.3629 142.012C87.4801 142.397 87.4517 142.767 87.3962 143.119C87.3629 143.111 87.3432 143.111 87.3173 143.121C87.0721 143.497 86.4723 142.931 86.1273 142.599Z" fill="#657577"/>
<path d="M72.753 138.626C72.7482 137.565 70.0957 136.878 69.6837 137.896C69.3598 138.689 70.3221 139.679 71.3486 139.947C72.148 140.147 73.4374 139.448 72.753 138.626ZM72.2801 139.47C71.9874 139.68 71.5746 139.719 71.1192 139.556C70.3022 139.264 69.7852 138.364 70.2583 137.936C70.7818 137.46 72.6484 137.955 72.5432 138.918C72.5445 138.946 72.5792 138.982 72.6063 138.999C72.5885 139.175 72.4903 139.326 72.2801 139.47Z" fill="#657577"/>
<path d="M71.5788 138.288C71.218 138.039 70.7202 138.09 70.6151 138.369C70.521 138.603 70.8069 138.937 71.0712 139.096C71.3083 139.237 71.6537 139.302 71.7851 139.16C71.8259 139.186 71.8789 139.194 71.8898 139.148C71.9962 138.896 71.9198 138.538 71.5788 138.288ZM71.217 138.843C71.1022 138.781 70.9698 138.628 70.9794 138.554C70.9986 138.405 71.308 138.406 71.4588 138.532C71.5614 138.612 71.6272 138.749 71.6658 138.868C71.5216 138.881 71.3924 138.93 71.217 138.843Z" fill="#657577"/>
<path d="M75.4743 122.344C75.74 122.53 76.0656 122.595 76.2487 122.434C76.293 122.396 76.2224 122.296 76.1509 122.316C75.9441 122.396 75.4379 122.132 75.4123 121.874C75.4395 121.892 75.4531 121.901 75.4803 121.919C75.5964 122.008 75.7078 122.134 75.7981 122.233C75.8402 122.288 75.9388 122.285 75.9498 122.239C75.9983 122.016 75.8422 121.78 75.5901 121.602C75.3591 121.451 75.062 121.431 75.0257 121.635C74.971 121.868 75.2358 122.174 75.4743 122.344Z" fill="#657577"/>
<path d="M77.2673 149.583C77.2327 149.547 77.1661 149.531 77.1266 149.532C77.081 149.542 77.0688 149.561 77.0368 149.58C76.8079 149.337 76.4082 149.237 76.0962 149.181C76.0431 149.173 75.9853 149.202 75.9941 149.248C76.0407 149.533 76.4273 149.772 76.7223 149.884C76.8827 149.935 77.0554 149.968 77.1982 149.927C77.3139 149.868 77.4059 149.727 77.2673 149.583ZM76.7362 149.625C76.603 149.592 76.4079 149.505 76.2904 149.388C76.5025 149.419 76.737 149.505 76.915 149.648C76.8694 149.659 76.7892 149.633 76.7362 149.625Z" fill="#657577"/>
<path d="M64.8969 143.479C64.4798 143.703 64.0953 143.371 63.7367 143.03C63.7428 143.021 63.749 143.011 63.7551 143.002C63.7301 142.892 63.652 142.774 63.6073 142.664C63.5774 142.591 63.5537 142.509 63.5498 142.426C63.8522 142.556 64.1367 142.862 64.2793 143.089C64.3078 143.135 64.3928 143.123 64.3643 143.078C64.2077 142.694 63.8648 142.27 63.4033 142.116C63.3231 142.09 63.2245 142.093 63.2148 142.167C63.1943 142.288 63.2071 142.416 63.2667 142.563C63.0379 142.319 62.8213 142.058 62.6971 141.802C62.4761 141.31 63.621 141.99 63.7644 142.097C64.2895 142.48 64.5698 142.971 64.935 143.45C64.9771 143.505 65.0485 143.484 65.0126 143.421C64.8029 143.029 64.7068 142.672 64.3802 142.311C64.1228 142.023 63.7879 141.764 63.4556 141.561C63.0147 141.286 62.1771 141.115 62.3036 141.693C62.4414 142.372 64.7124 144.712 64.9363 143.478C64.9499 143.487 64.9091 143.46 64.8969 143.479Z" fill="#657577"/>
<path d="M27.7291 102.154C28.5207 102.604 28.9256 102.399 29.2089 101.995C29.6996 101.658 29.4557 100.963 28.8783 100.453C28.1638 99.8254 27.275 99.8214 26.8501 100.294C26.4007 100.805 26.951 101.713 27.7291 102.154ZM28.5817 100.58C28.9968 100.865 29.2003 101.266 29.1978 101.626C28.9113 101.827 28.6327 102.195 28.1502 102.014C27.4936 101.773 26.9538 101.085 27.1815 100.618C27.3922 100.206 28.0579 100.225 28.5817 100.58Z" fill="#657577"/>
<path d="M28.177 101.616C28.2906 101.65 28.4014 101.629 28.4987 101.598C28.596 101.568 28.7239 101.491 28.7397 101.407C28.7445 101.37 28.7431 101.343 28.7282 101.306C28.733 101.269 28.7378 101.232 28.7093 101.186C28.6457 100.957 28.327 100.763 28.0891 100.741C27.8511 100.72 27.6259 100.828 27.629 101.031C27.6274 101.271 27.8773 101.541 28.177 101.616ZM28.0717 101.065C28.1417 101.017 28.275 101.05 28.3701 101.112C28.3973 101.13 28.4109 101.139 28.4183 101.157C28.3666 101.177 28.3285 101.206 28.2904 101.235C28.2584 101.254 28.1625 101.312 28.1081 101.276C27.9994 101.205 28.0016 101.113 28.0717 101.065Z" fill="#657577"/>
<path d="M38.011 108.49C38.2982 108.851 39.2491 109.74 39.728 109.57C39.76 109.551 39.7709 109.504 39.7363 109.468C39.6052 109.343 39.4176 109.274 39.2681 109.176C39.0581 109.052 38.8591 108.882 38.6798 108.712C38.4041 108.451 37.9994 107.973 38.1575 107.701C38.3891 107.316 39.2999 107.643 39.7015 107.918C40.2525 108.291 40.5491 109.262 40.0395 109.479C39.9817 109.508 40.0387 109.599 40.104 109.588C40.7692 109.459 40.69 108.63 40.2874 108.06C39.7933 107.362 38.7593 107.076 38.0942 107.204C37.4684 107.332 37.6185 107.992 38.011 108.49Z" fill="#657577"/>
<path d="M39.9239 108.438C39.9633 108.437 39.9743 108.391 39.9729 108.363C39.9636 108.17 39.6612 108.039 39.4885 108.007C39.2567 107.976 38.9942 107.992 38.8764 108.143C38.5903 108.492 39.24 108.863 39.6266 109.102C39.6673 109.128 39.7116 109.09 39.677 109.054C39.5669 108.956 39.4433 108.848 39.3455 108.731C39.2898 108.668 39.2342 108.605 39.1846 108.532C39.1486 108.468 39.1881 108.467 39.2398 108.447C39.433 108.359 39.7083 108.472 39.9239 108.438Z" fill="#657577"/>
<path d="M32.0382 109.387C32.0307 109.369 32.0368 109.36 32.0158 109.333C31.4656 108.84 30.6153 108.539 30.0005 108.62C29.4904 108.689 29.5524 109.158 29.9715 109.526C30.5006 109.991 31.2878 110.211 31.8706 110.149C32.0801 110.125 32.3447 110.016 32.3613 109.813C32.3534 109.647 32.2012 109.494 32.0382 109.387ZM31.5712 109.806C31.1829 109.807 30.7078 109.644 30.3334 109.387C30.2111 109.307 30.0665 109.172 30.0476 109.053C30.0287 108.933 30.3197 108.962 30.3986 108.96C30.4183 108.96 30.4319 108.969 30.4516 108.968C30.4332 108.996 30.4345 109.024 30.4433 109.07C30.4758 109.198 30.6375 109.277 30.751 109.311C30.925 109.371 31.0841 109.394 31.2507 109.436C31.3037 109.444 31.6008 109.464 31.6293 109.509C31.664 109.545 31.7293 109.534 31.7069 109.479C31.6459 109.306 31.2475 109.233 31.1007 109.191C30.9675 109.157 30.8342 109.124 30.7132 109.072C30.7181 109.035 30.7303 109.016 30.729 108.988C31.0805 109.044 31.4815 109.171 31.8063 109.357C31.83 109.439 31.8796 109.512 31.9563 109.602C32.1369 109.8 31.7031 109.812 31.5712 109.806Z" fill="#657577"/>
<path d="M47.2668 126.521C47.6572 125.329 44.3211 123.701 43.9517 124.92C43.7114 125.674 44.8223 126.466 45.6344 126.795C46.2183 127.029 47.2008 127.067 47.1892 126.55C47.2164 126.568 47.2558 126.567 47.2668 126.521ZM45.5269 126.336C44.9553 126.084 44.2929 125.585 44.4466 125.082C44.566 124.691 45.4497 125 45.8126 125.156C46.3101 125.374 46.755 125.731 46.9857 126.15C46.966 126.15 46.9401 126.16 46.9279 126.179C46.6954 126.684 46.2058 126.632 45.5269 126.336Z" fill="#657577"/>
<path d="M46.0341 125.649C46.0144 125.649 46.0082 125.659 45.9885 125.659C45.8771 125.533 45.7596 125.416 45.6299 125.318C45.3507 125.122 45.05 125.167 44.9682 125.382C44.8522 125.708 45.3467 126.138 45.7293 126.294C45.9577 126.389 46.2018 126.401 46.3135 126.26C46.3625 126.185 46.3708 126.083 46.3533 125.991C46.3344 125.871 46.2313 125.643 46.0341 125.649ZM45.8909 125.957C45.8909 125.957 45.8848 125.967 45.8712 125.958L45.8515 125.958C45.7848 125.942 45.8317 125.959 45.7712 125.933C45.6639 125.889 45.6231 125.863 45.5341 125.791C45.4797 125.756 45.4241 125.693 45.3881 125.629C45.3881 125.629 45.3745 125.62 45.3732 125.592C45.3806 125.611 45.3719 125.565 45.3916 125.564C45.4481 125.507 45.5914 125.614 45.7002 125.685C45.7681 125.73 45.8435 125.792 45.9053 125.846C45.9066 125.874 45.908 125.901 45.9093 125.929C45.9032 125.938 45.897 125.948 45.8909 125.957Z" fill="#657577"/>
<path d="M34.1124 130.555C33.7959 130.268 33.2014 129.813 32.8706 130.052C32.4255 130.378 33.1998 131.151 33.6543 131.435C33.8582 131.568 34.1878 131.716 34.3898 131.674C34.6312 131.63 34.5343 131.393 34.3366 131.25C34.2822 131.215 34.2305 131.235 34.2393 131.281C34.2345 131.318 34.2297 131.355 34.2039 131.365C34.1618 131.31 34.1135 131.265 34.0714 131.211C34.0776 131.202 34.0763 131.174 34.0491 131.156C33.8684 130.958 33.6681 130.76 33.4309 130.619C33.2815 130.521 33.1413 130.618 33.2268 130.754C33.2912 130.863 33.3951 130.971 33.4991 131.079C33.4311 131.034 33.3693 130.981 33.3075 130.927C33.0256 130.676 32.893 130.107 33.3918 130.352C33.8968 130.588 34.5895 131.308 34.6834 131.758C34.7071 131.84 34.8553 131.91 34.871 131.827C34.9226 131.392 34.4846 130.905 34.1124 130.555Z" fill="#657577"/>
<path d="M53.0236 139.374C52.5021 139.342 52.0776 139.547 52.406 140.083C52.7704 140.682 53.8579 141.124 54.4793 141.181C54.8961 141.226 55.8877 141.042 55.2104 140.506C55.1697 140.48 55.118 140.5 55.1329 140.536C55.3526 141.001 54.3131 140.872 54.033 140.796C53.5531 140.671 52.8123 140.321 52.6062 139.865C52.4448 139.519 53.3721 139.642 53.5645 139.673C54.122 139.769 54.6261 140.125 55.0956 140.445C55.15 140.48 55.2003 140.433 55.1521 140.388C54.4796 139.815 53.8559 139.435 53.0236 139.374Z" fill="#657577"/>
<path d="M54.4218 140.26C54.3858 140.196 54.3253 140.17 54.2736 140.19C53.9374 139.903 53.3575 139.753 53.067 139.871C53.0092 139.9 52.9785 139.947 53.022 140.029C53.2004 140.32 53.5524 140.523 53.893 140.625C54.1003 140.693 54.3356 140.659 54.4153 140.537C54.4574 140.591 54.5424 140.58 54.5201 140.525C54.5051 140.488 54.4766 140.443 54.4617 140.406C54.4591 140.351 54.4503 140.305 54.4218 140.26ZM53.8254 140.313C53.6785 140.27 53.5093 140.173 53.3857 140.066C53.5877 140.024 53.9283 140.125 54.1729 140.285C54.0831 140.333 53.9919 140.354 53.8254 140.313Z" fill="#657577"/>
<path d="M24.4308 120.123C23.9081 120.479 24.5141 121.45 24.9854 121.945C25.2761 122.242 25.6404 122.426 26.0089 122.426C26.2592 122.428 26.4313 122.313 26.4554 122.128C26.8723 121.489 25.1957 119.604 24.4308 120.123ZM25.702 122.065C25.4022 121.99 25.1435 121.673 24.9813 121.447C24.7634 121.157 24.3095 120.339 24.8752 120.333C24.9344 120.331 25.0085 120.366 25.0751 120.383C25.0554 120.383 25.0295 120.393 25.0037 120.403C24.4994 120.73 25.3192 121.493 25.8623 121.7C25.9227 121.726 25.9657 121.661 25.8977 121.616C25.6864 121.465 25.2721 121.061 25.301 120.838C25.3146 120.847 25.3417 120.865 25.3615 120.864C25.4281 120.881 25.492 120.842 25.4894 120.787C25.4793 120.714 25.4433 120.65 25.4074 120.586C25.5853 120.729 25.7449 120.9 25.8427 121.018C26.1075 121.325 26.3097 121.698 26.2787 122.012C26.1324 122.118 25.9352 122.123 25.702 122.065Z" fill="#657577"/>
<path d="M16.9298 99.9958C17.553 100.228 18.7704 101.184 18.4998 101.717C18.4753 101.755 18.5432 101.799 18.5677 101.761C19.0702 101.259 17.9659 100.19 17.2645 99.8392C16.4817 99.4354 15.4483 99.2968 15.2448 99.9946C14.9586 101.027 17.8436 102.307 18.4428 101.626C18.4932 101.579 18.3954 101.461 18.3104 101.473C18.0023 101.5 17.6188 101.464 17.245 101.354C17.3633 101.35 17.4715 101.274 17.4329 101.155C17.4316 101.127 17.3908 101.1 17.3711 101.101C17.2909 101.075 17.2195 101.096 17.1331 101.08C17.0468 101.063 16.9727 101.029 16.8912 100.975C16.7553 100.887 16.576 100.716 16.5496 100.578C16.5158 100.422 16.8468 100.598 16.9208 100.633C17.1233 100.738 17.4766 100.969 17.5131 101.18C17.5232 101.254 17.6503 101.297 17.6538 101.232C17.7544 100.722 16.3806 99.7981 16.1854 100.394C16.111 100.627 16.3894 100.943 16.6353 101.13C16.2785 100.964 15.9511 100.723 15.7393 100.424C15.5981 100.225 15.6629 100.066 15.7895 99.9616C16.076 99.7601 16.5349 99.8586 16.9298 99.9958Z" fill="#657577"/>
<path d="M12.8461 98.1477C11.9895 98.5398 11.4276 99.3117 11.411 100.614C11.3866 102.165 12.0474 104.003 13.2974 105.502C12.2035 106.436 12.0524 107.677 12.7928 109.393C13.4003 110.807 15.0578 112.157 16.662 112.668C17.1765 112.83 17.6687 112.937 18.1657 113.007C16.5304 113.493 15.2683 114.626 14.6623 115.851C13.9669 117.273 13.9565 119.664 16.0067 121.243C17.0251 122.028 18.0323 122.445 19.0215 122.621C19.4127 124.605 21.6203 126.032 23.7814 126.491C24.7325 126.697 25.9823 126.682 27.0156 126.405C27.1907 127.176 28.0321 128.114 28.7304 128.677C29.6339 129.4 30.82 129.839 31.6968 129.594C32.1315 130.561 32.8878 131.51 33.911 132.259C35.2751 133.256 36.9353 133.563 38.32 133.341C38.2551 134.183 39.2023 135.819 39.6198 136.427C40.7336 138.105 43.2742 139.615 45.1173 139.345C48.137 138.904 49.1953 134.343 46.5358 131.59C46.5766 131.616 46.6235 131.633 46.6507 131.651C47.3174 131.966 48.1501 132.174 48.9898 132.253C48.104 133.136 48.3805 135.057 48.6448 136.315C49.0443 138.197 50.2112 139.883 52.3449 141.007C54.1145 141.948 56.5152 142.189 57.8801 141.552C59.5157 140.798 60.0291 139.15 59.7839 137.329C60.4996 137.568 61.2026 137.679 61.8235 137.588C60.4726 139.064 60.6734 141.607 63.0013 143.622C64.3401 144.777 66.0029 145.139 67.4859 145.182C68.5141 145.21 70.0373 145.133 70.8268 144.576C70.977 145.237 71.1985 145.877 71.4012 146.398C72.0838 148.143 73.8436 149.841 75.8895 150.506C81.2464 152.274 82.6127 147.687 80.5734 143.864C81.8012 144.625 83.4487 145.218 84.9173 145.373C83.5343 146.453 83.4072 148.607 84.6376 150.522C85.391 151.684 86.7331 152.359 88.0274 152.721C90.0286 153.277 90.9714 152.486 92.3402 151.932C92.381 151.959 92.4217 151.986 92.4625 152.012C94.4087 153.068 96.1278 152.958 97.242 152.171C97.4375 152.406 97.7303 152.61 98.0008 152.76C99.2926 153.482 100.348 153.676 101.587 153.56C102.936 153.422 104.913 152.234 105.007 150.755C105.134 150.945 105.268 151.126 105.421 151.307C107.193 153.521 110.638 155.515 113.269 155.611C114.819 155.672 115.557 155.015 115.761 154.049C116.617 154.461 117.823 154.216 118.523 154.124C119.13 154.024 120.311 153.402 120.342 152.672C121.806 153.694 124.931 154.756 125.909 153.733C127.214 154.732 128.676 155.579 130.104 156.39C131.978 157.466 133.811 158.636 135.712 159.702C137.984 160.971 140.35 161.979 142.718 162.922C144.872 163.778 146.935 165.071 149.037 166.095C151.127 167.11 153.307 167.689 155.407 167.975C159.315 168.489 162.767 167.594 165.686 166.297C168.915 164.854 171.352 162.574 174.859 161.446C175.715 161.174 176.649 161.02 177.648 161.003C177.648 161.003 177.655 160.993 177.668 161.002C177.742 161.037 177.822 161.063 177.879 161.006C178.363 160.679 177.877 160.147 177.421 159.689C176.142 158.412 174.584 157.355 173.33 156.041C171.804 154.429 171.587 152.505 170.153 150.873C169.499 150.124 168.748 149.433 168.029 148.723C167.007 147.707 166.433 146.596 165.683 145.49C164.502 143.795 162.703 142.366 161.1 140.932C159.581 139.579 158.219 138.073 156.381 137.089C154.341 135.998 152.36 135.857 150.407 134.395C148.509 132.969 147.374 131.264 145.189 130.159C143.975 129.554 142.833 129.077 141.685 128.314C140.93 127.808 140.144 127.349 139.348 126.936C137.646 126.04 135.901 125.745 134.233 125.688C131.689 125.608 129.416 124.755 126.814 123.873C124.767 123.18 122.748 122.948 120.842 123.017C120.028 123.048 119.3 123.243 118.557 123.401C117.424 123.653 116.289 123.314 115.006 123.053C113.211 122.685 111.555 122.877 110.08 123.267C108.364 123.728 107.082 124.713 105.437 125.274C103.158 126.064 100.79 125.269 98.0867 124.482C96.2779 123.958 94.6849 123.816 93.2769 124.103C93.2375 124.104 93.1981 124.105 93.1586 124.106C93.1389 124.107 93.1464 124.125 93.1266 124.125C92.5342 124.261 91.9716 124.47 91.4462 124.77C90.5752 125.273 89.5549 126.094 89.5882 127.201C89.4593 126.983 89.344 126.774 89.2742 126.554C89.2654 126.508 89.2308 126.472 89.2036 126.455C89.5335 126.335 89.8201 126.134 90.0509 125.869C90.7347 125.029 90.3124 123.36 89.9276 122.198C89.5638 121.063 88.776 119.183 87.5389 118.228C89.4492 118.122 91.3384 117.988 93.3008 118.01C95.6848 118.038 98.1101 118.241 100.47 118.188C104.363 118.102 108.273 117.158 110.699 115.044C112.064 113.844 113.111 112.773 115.233 112.403C117.126 112.085 118.821 111.744 120.278 110.819C123.164 108.979 125.485 106.314 126.843 103.342C127.581 101.707 128.584 100.526 129.983 99.3628C131.185 98.3522 132.382 97.3787 133.222 96.0916C135.167 93.1411 135.517 89.5778 136.497 86.1453C137.696 81.9039 139.904 78.254 140.671 73.8118C140.728 73.7549 140.784 73.698 140.833 73.6229C140.87 73.5665 140.801 73.4945 140.734 73.4778C141.399 69.0752 140.605 64.3239 138.844 59.4505C137.024 54.4311 132.565 50.1006 129.098 45.4666C127.332 43.0951 125.986 40.7032 123.929 38.4226C121.517 35.7636 119.394 33.3463 118.895 30.341C118.913 30.3128 118.931 30.2846 118.903 30.2392C119 30.0613 118.606 29.8041 118.462 29.9648C118.437 30.0024 118.419 30.0306 118.381 30.0593C117.589 30.025 116.896 30.1081 116.165 30.2476C115.089 30.4425 113.888 30.3822 112.738 30.4221C110.649 30.5055 108.758 31.0267 106.992 31.6554C103.684 32.8052 100.38 34.3333 98.2014 36.6623C95.7904 39.2283 94.2056 42.2799 90.792 43.9772C88.0084 45.3623 84.8793 46.2673 82.8911 48.4527C80.4459 51.1304 79.666 54.9083 77.3432 57.6658C75.0632 60.3575 71.5694 62.0292 68.795 64.291C66.109 66.4766 64.1472 69.2152 62.7549 72.2986C61.1913 75.7928 61.755 80.2734 59.306 83.2835C58.0944 84.7835 56.7377 86.0013 56.3191 87.9787C55.8664 90.0678 56.1829 92.5518 56.225 94.8031C56.2508 96.9903 56.4726 99.1445 57.3075 101.458C58.0739 103.579 61.1147 108.658 58.5737 109.612C58.5282 109.623 58.5036 109.66 58.4988 109.697C58.3498 109.747 58.1873 109.789 58.0444 109.829C57.244 108.235 55.6574 106.717 53.7636 106.205C50.3152 105.254 47.1982 106.823 47.0349 109.597C46.5486 108.65 45.8799 107.744 44.9084 106.976C43.7529 106.075 41.456 104.844 40.2581 105.254C38.3084 104.263 35.9852 103.993 34.47 104.651C34.76 103.287 33.9139 101.288 32.6083 100.141C31.7083 99.3525 30.449 98.7584 29.224 98.4679C30.1461 95.1847 25.6528 90.6981 21.8166 92.0928C20.173 92.6813 20.1987 94.453 20.5815 96.1229C18.9605 93.886 14.4998 92.1402 12.5294 93.0513C10.6108 93.9425 11.0898 96.3852 12.8461 98.1477ZM12.1201 101.813C11.5457 98.8932 14.0473 97.9403 17.2143 98.7882C18.7478 99.1996 20.2115 100.074 21.46 101.13C22.0843 101.658 22.6858 102.399 23.0643 103.156C23.0289 103.24 23.0933 103.349 23.1959 103.429C23.3288 103.73 23.4284 104.023 23.4614 104.299C23.4141 104.549 23.3336 104.791 23.2395 105.025C23.0668 104.992 23.0217 105.151 23.1208 105.296C22.3476 107.015 20.6148 108.215 18.0001 107.768C14.7552 107.217 12.6032 104.339 12.1201 101.813ZM25.3028 103.17C24.7878 102.86 24.0962 102.851 23.5678 102.948C23.3358 102.502 22.999 102.068 22.5895 101.627C22.9488 101.432 23.1112 100.976 23.0628 100.515C23.5818 100.908 24.1806 101.178 24.8204 101.207C24.8448 101.853 25.0085 102.522 25.3028 103.17ZM32.0114 106.637C31.885 107.157 32.1153 107.844 32.532 108.571C32.002 108.225 31.3651 107.984 30.7432 107.779C30.5026 107.702 30.2694 107.644 30.0573 107.612C30.0107 107.327 29.9098 107.007 29.7252 106.726C30.543 106.898 31.3305 106.849 32.0114 106.637ZM43.4752 112.913C43.512 112.857 43.5549 112.791 43.5781 112.726C43.7801 112.684 43.9821 112.641 44.1916 112.617C44.6832 112.576 45.2767 112.736 45.8022 112.851C46.5941 113.033 47.3624 113.133 48.1181 113.519C48.486 114.054 48.9512 114.558 49.5061 115.014C50.8398 116.474 51.652 117.902 51.2034 119.391C51.0559 119.884 50.7923 120.288 50.4594 120.62C50.3336 120.605 50.239 120.69 50.2443 120.801C49.2756 121.602 47.763 121.901 46.1278 121.705C44.3866 121.493 42.4875 120.869 41.0482 119.541C39.4507 118.07 38.5799 115.693 39.5075 114.45C39.5382 114.403 39.5355 114.348 39.507 114.302C41.1488 114.637 42.576 114.202 43.4752 112.913ZM58.4229 112.782C58.5157 112.521 58.548 112.234 58.547 111.939C58.6912 111.926 58.849 111.922 58.9932 111.909C59.072 111.907 59.1163 111.868 59.1469 111.821C61.3043 111.515 63.1737 112.48 65.4855 113.748C65.4991 113.757 65.4991 113.757 65.5127 113.766C66.937 115.057 66.6959 117.03 66.131 118.014C65.4264 119.242 64.21 119.681 62.5364 119.781C62.5167 119.781 62.5167 119.781 62.5105 119.791C60.738 119.063 58.8601 118.882 57.2427 119.193C56.6229 118.895 56.1337 118.576 55.6488 118.072C55.1565 117.55 54.9972 117.111 54.9992 116.603C56.8997 116.155 58.2045 114.542 58.4229 112.782ZM61.7423 110.903C64.0966 111.274 66.1311 111.838 68.4976 112.874C70.5752 113.788 72.5678 114.713 74.6913 115.349C79.1715 116.679 83.5526 116.765 88.0006 117.699C86.2087 117.802 84.4229 117.896 82.5341 117.761C79.4431 117.539 76.3291 116.699 73.1599 115.943C71.6154 115.578 70.1029 115.194 68.5702 114.663C67.0103 114.113 65.5541 113.257 64.0747 112.466C62.8312 111.788 61.6934 111.394 60.6083 111.275C60.9912 111.163 61.3667 111.033 61.7423 110.903ZM83.5498 123.984C84.126 124.882 85.0369 125.624 86.0197 126.078C86.0753 126.141 86.131 126.204 86.1731 126.259C86.3761 126.512 86.4941 126.776 86.6774 127.03C86.5713 127.014 86.4714 126.989 86.3653 126.973C84.9037 126.689 83.159 126.542 82.0812 127.125C81.5681 127.406 81.2554 127.885 81.1316 128.461C80.8156 128.321 80.5009 128.21 80.1849 128.071C79.9158 127.949 79.6698 127.761 79.4191 127.611C79.5465 127.386 79.6271 127.144 79.6533 126.866C79.9103 126.324 79.9179 125.659 79.7467 124.971C81.3207 125.677 82.8253 124.797 83.5498 123.984ZM87.9998 126.607C88.0946 126.937 88.3309 127.198 88.5931 127.449C88.086 127.306 87.5877 127.209 87.1029 127.12C87.0955 127.102 87.1214 127.092 87.1003 127.065C87.0034 126.827 86.8806 126.6 86.738 126.373C87.1663 126.518 87.5844 126.59 87.9998 126.607ZM117.006 146.797C116.932 146.762 116.84 146.756 116.776 146.794C115.668 146.741 114.514 146.43 113.36 145.704C111.251 144.394 109.512 140.942 110.75 139.579L110.756 139.57C111.281 139.805 111.787 139.921 112.29 139.981C113.057 141.982 115.467 144.346 117.901 144.595C118.372 145.21 118.848 145.816 119.319 146.431C118.613 146.681 117.83 146.812 117.006 146.797ZM103.813 147.149C103.806 147.399 103.818 147.648 103.849 147.896C103.444 147.953 103.039 148.01 102.603 147.994C102.056 147.972 101.62 147.66 101.125 147.498C101.137 147.479 101.15 147.46 101.148 147.433C101.649 145.804 100.317 143.541 98.4215 141.902C98.4535 141.883 98.4855 141.863 98.5113 141.853C98.6848 141.766 98.893 141.714 99.1296 141.708C99.1855 142.186 99.5438 142.795 99.8643 143.165C100.966 144.447 102.494 145.578 104.132 146.098C104.151 146.097 104.179 146.115 104.198 146.114C103.948 146.379 103.837 146.816 103.813 147.149ZM99.7857 148.392C99.7479 148.153 99.5095 147.984 99.2027 148.038C99.013 148.062 98.8592 148.149 98.7313 148.226C98.6095 148.294 98.4754 148.381 98.5228 148.546C98.5316 148.592 98.5995 148.636 98.639 148.635C98.8647 148.675 99.0145 148.505 99.1757 148.436C99.2594 148.397 99.3492 148.348 99.4601 148.327C99.4798 148.326 99.5131 148.335 99.5193 148.325C99.5267 148.344 99.5429 148.408 99.5443 148.435C99.5517 148.454 99.5653 148.463 99.5728 148.481C99.217 148.61 98.8116 148.667 98.3629 148.642C98.1963 148.601 98.0604 148.512 98.1327 148.372C98.2404 148.147 98.5432 148.01 98.7609 147.884C99.0624 147.719 99.9839 147.584 100.167 148.105C100.061 148.237 99.9273 148.324 99.7857 148.392ZM88.4572 143.839C89.3594 142.337 87.5922 139.523 85.7839 138.048C85.3043 137.655 84.6928 137.255 84.0432 136.885C85.7027 135.53 91.2544 138.068 92.5992 139.897C93.7967 141.536 94.0469 143.736 92.4046 144.352C91.3386 144.768 89.7608 144.395 88.4572 143.839ZM76.3661 136.831C76.2314 136.355 75.9967 135.853 75.766 135.435C75.6358 135.189 75.4139 134.817 75.1293 134.51C76.1979 134.833 77.259 135.137 78.3038 135.377C77.7162 135.475 77.2066 135.692 76.8444 136.099C76.638 136.326 76.4922 136.579 76.3661 136.831ZM76.2885 139.058C75.6119 140.184 74.837 141.045 73.3792 141.527C71.6431 142.108 69.3088 141.469 67.6381 139.843C66.0637 138.306 66.134 136.476 66.5016 135.082C66.6963 134.338 67.5724 132.432 68.7149 132.374C70.5474 132.98 72.422 133.641 74.294 134.246C74.9366 134.746 75.2909 135.272 75.5927 135.938C75.8138 136.431 75.9336 136.871 75.9894 137.349C76.0211 137.598 76.029 137.763 76.1247 137.973C76.1147 138.315 76.1788 138.692 76.2885 139.058ZM59.9709 129.56C59.8596 129.434 59.7346 129.299 59.6035 129.173C60.9268 129.729 62.3666 130.106 63.6898 130.661C65.0872 131.252 66.516 131.675 67.9264 132.127C66.9278 132.44 66.278 133.851 66.0311 134.467C65.8844 134.84 65.7663 135.259 65.7086 135.703C65.2114 136.316 64.4868 136.714 63.5577 136.831C64.7542 134.879 61.7847 131.561 59.9709 129.56ZM79.3552 135.339C75.9395 134.249 72.513 133.205 69.1022 132.077C67.1561 131.437 65.1856 130.834 63.2575 130.017C61.786 129.392 60.3716 128.857 58.8863 128.491C57.5672 127.335 55.9269 126.345 54.5587 126.363C54.4658 126.209 54.3987 126.044 54.3193 125.899C54.3894 125.851 54.4459 125.794 54.5024 125.737C54.6719 125.566 54.8971 125.459 55.1434 125.378C55.5189 125.248 55.9282 125.274 56.3349 125.245C58.1578 127.024 61.39 127.446 63.2798 126.777C63.307 126.794 63.328 126.822 63.3749 126.839C64.3502 127.274 65.4108 127.431 66.4053 127.718C68.0142 128.192 69.621 128.758 71.23 129.233C74.3011 130.138 77.3352 130.685 80.3993 131.72C83.2426 132.679 86.1285 133.155 88.9418 133.625C90.2553 133.839 91.5275 133.879 92.8436 134.149C93.3752 134.255 93.9042 134.305 94.3972 134.292C93.9995 134.783 93.9021 135.496 94.1641 136.431C94.2115 136.595 94.2711 136.742 94.3382 136.906C93.6014 136.639 92.7619 136.976 92.2931 137.219C92.1516 137.287 91.9351 137.441 91.7472 137.64C91.4251 137.51 91.1008 137.472 90.7629 137.426C90.4447 137.379 89.9981 137.262 89.6703 137.289C89.0654 137.028 88.436 136.805 87.7943 136.6C86.7319 136.269 84.9998 135.835 84.1262 136.283C83.6327 136.148 83.1392 136.014 82.6408 135.916C82.3152 135.851 82.0032 135.795 81.6701 135.711C81.4172 135.654 81.2011 135.539 80.9644 135.546C80.9114 135.538 80.8869 135.575 80.8821 135.612C80.3811 135.46 79.8434 135.363 79.3552 135.339ZM39.1143 129.452C40.4293 129.011 41.5429 128.076 41.8435 126.933C42.344 128.037 43.213 129.14 44.2577 130.063C43.5905 130.699 42.669 130.834 41.4725 130.589C40.535 130.393 39.8705 129.986 39.1143 129.452ZM41.5562 126.156C41.0436 127.684 40.0409 128.596 38.1974 129.135C37.7369 129.276 37.2846 129.316 36.8753 129.29C36.9529 129.26 37.0032 129.213 36.9857 129.121C36.9843 129.093 36.9633 129.066 36.9361 129.048C37.0558 129.073 37.1355 128.951 37.0254 128.852C36.641 128.521 36.111 128.175 35.7048 128.352C35.6273 128.382 35.6523 128.492 35.7216 128.564C35.7908 128.636 35.8996 128.707 36.0008 128.76C35.7453 128.646 35.4551 128.497 35.2942 128.298C35.0206 127.946 35.8594 128.145 36.0001 128.196C36.3482 128.316 36.8864 128.561 37.1179 128.859C37.1675 128.932 37.3055 128.928 37.2621 128.846C36.9331 128.162 34.9725 127.218 34.8559 128.079C34.8174 128.376 35.1624 128.708 35.6021 128.955C33.702 128.036 32.5852 125.472 32.4622 123.731C32.3159 121.639 33.7154 119.94 36.0805 119.849C38.9903 119.726 40.5276 122.685 41.3689 124.721C41.3384 125.183 41.3943 125.662 41.5562 126.156ZM36.4075 128.73C36.3864 128.703 36.3593 128.685 36.3518 128.667C36.5271 128.755 36.7112 128.888 36.8349 128.996C36.614 128.919 36.3896 128.906 36.1687 128.829C36.1551 128.82 36.1354 128.821 36.1218 128.812C36.2353 128.846 36.3414 128.861 36.4176 128.804C36.4163 128.776 36.4285 128.757 36.4075 128.73ZM24.2383 121.605C22.2541 118.796 24.7837 116.643 27.41 116.508C28.5113 117.789 30.44 118.753 32.1505 119.013C32.6695 119.405 32.9116 119.925 33.0736 120.419C32.2789 121.28 31.8776 122.518 31.8762 123.589C31.8789 123.645 31.8877 123.691 31.8767 123.737C30.2998 125.441 25.898 123.961 24.2383 121.605ZM23.614 105.698C24.2628 106.188 24.9558 106.641 25.6217 107.075C26.2196 107.465 26.9187 107.908 27.6012 108.139C27.4045 108.292 27.2214 108.454 27.0593 108.643C26.6664 109.097 26.3909 109.667 26.2032 110.281C25.8108 109.784 25.1143 109.397 24.5843 109.051C23.7825 108.527 22.9501 108.051 22.1361 107.547C22.7276 107.115 23.2948 106.454 23.614 105.698ZM23.9103 109.133C24.6958 109.592 25.3915 110.1 26.1082 110.635C26.0159 111.043 25.9447 111.479 25.9265 111.923C25.8897 111.979 25.8529 112.035 25.8161 112.092C25.7473 112.168 25.6649 112.234 25.569 112.292C25.473 112.35 25.3499 112.39 25.254 112.448C24.4078 112.646 23.4306 112.719 22.5862 111.993C23.38 111.252 23.9554 110.074 23.6535 108.992C23.7411 109.036 23.8288 109.08 23.9103 109.133ZM21.8423 112.539C21.99 112.462 22.1438 112.374 22.2765 112.26C23.3321 113.137 24.5561 113.132 25.4943 112.793C25.6779 112.779 25.8378 112.682 25.9596 112.614C26.0433 113.674 26.3452 114.755 26.8873 115.765C26.9517 115.874 27.0223 115.974 27.0929 116.073C26.4579 116.007 25.8751 116.069 25.3628 116.23C25.2619 114.811 23.0197 113.348 21.4073 112.939C21.2605 112.896 21.115 112.882 20.962 112.849C21.2613 112.776 21.5593 112.676 21.8423 112.539ZM37.1157 113.572C37.6825 113.862 38.2703 114.178 38.8602 114.403C38.4774 114.93 38.4466 115.66 38.6476 116.421C38.1581 116.369 37.6923 116.4 37.194 116.302C36.8819 116.246 36.5427 116.172 36.232 116.144C36.256 115.958 36.2664 115.764 36.2769 115.57C36.2901 114.748 36.3029 113.778 35.9423 112.846C36.318 113.132 36.7107 113.361 37.1157 113.572ZM36.0033 117.414C35.9748 117.369 35.9401 117.333 35.913 117.315L35.9191 117.306C35.9401 117.333 35.9809 117.36 36.0081 117.377C35.9884 117.378 35.9822 117.387 36.0033 117.414ZM34.9054 119.364C34.8873 119.124 34.8421 118.867 34.7574 118.611C34.9616 118.476 35.1386 118.324 35.302 118.162C35.3813 118.308 35.4743 118.462 35.5388 118.571C35.6616 118.799 35.6945 119.075 35.8432 119.293C35.5066 119.274 35.1985 119.3 34.9054 119.364ZM40.1484 119.168C40.4132 119.475 40.6964 119.754 40.998 120.004C39.9447 119.451 38.8989 118.916 37.8456 118.362C37.4134 118.134 36.9676 117.896 36.5218 117.659C36.4946 117.641 36.4539 117.615 36.4131 117.588C37.2919 117.934 38.5399 117.744 39.3297 118.018C39.574 118.445 39.8489 118.826 40.1484 119.168ZM38.0643 117.433C37.6537 117.38 37.2654 117.381 36.8473 117.309C36.5685 117.261 36.3117 117.12 36.0303 117.017C36.0828 116.877 36.1218 116.728 36.1546 116.589C36.5367 116.597 36.9575 116.724 37.3484 116.778C37.8257 116.849 38.2827 116.772 38.7139 116.705C38.8223 117.044 38.9701 117.381 39.1377 117.718C38.8067 117.543 38.475 117.487 38.0643 117.433ZM34.3859 118.824C34.4618 119.034 34.5241 119.235 34.6 119.446C34.1394 119.587 33.7421 119.81 33.3942 120.106C33.3056 119.766 33.0639 119.394 32.7597 119.089C33.3859 119.109 33.928 119.02 34.3859 118.824ZM36.8521 119.469C36.6584 119.409 36.4524 119.369 36.26 119.337C36.1889 119.089 36.1708 118.85 36.0603 118.604C36.0006 118.458 35.8879 118.304 35.8086 118.158C35.7292 118.012 35.7103 117.893 35.6322 117.775C35.6445 117.756 35.6568 117.737 35.6752 117.709C35.936 117.933 36.3791 118.115 36.5952 118.229C37.7572 118.854 38.9241 119.441 40.1045 120.037C41.6627 120.827 43.4165 121.851 45.0817 122.536C43.5009 122.375 42.1315 122.78 41.6052 123.884C41.037 122.053 38.941 120.068 36.8521 119.469ZM46.2374 122.754C45.7013 122.418 45.1332 122.1 44.5528 121.802C45.2598 121.995 45.99 122.124 46.6916 122.206C48.3403 122.412 49.6553 121.971 50.5845 121.17C51.8903 122.049 53.3538 122.509 54.7682 123.043C54.8353 123.208 54.9296 123.39 55.0239 123.572C54.5011 123.512 53.9648 123.859 53.6524 124.07C53.4802 124.186 53.2209 124.405 53.1281 124.666C52.8344 124.581 52.5264 124.608 52.3555 124.751C52.0764 124.971 52.2024 125.401 52.3984 125.784C51.2416 124.855 49.671 124.084 48.3171 123.576C47.8985 123.356 47.4948 123.173 47.1197 123.035C46.8111 122.914 46.5174 122.83 46.2374 122.754ZM63.774 120.883C65.8587 122.083 66.7798 123.997 65.4958 125.222C65.1309 125.573 64.6967 125.853 64.2082 126.097C64.181 126.079 64.1477 126.07 64.1082 126.071C62.2547 126.536 60.689 126.827 58.3441 125.967C56.9038 125.442 55.7792 124.226 55.1885 123.023C54.4437 121.492 55.4841 120.403 56.672 119.919C58.6279 119.119 61.3916 119.516 63.774 120.883ZM66.7362 118.007C67.1057 117.203 67.2834 115.417 66.3968 114.222C67.845 114.913 69.3234 115.409 70.8175 115.821C71.1643 116.329 71.6738 116.795 72.0083 117.322C72.5547 118.147 72.651 118.92 72.5488 119.671C72.5426 119.68 72.5562 119.689 72.5501 119.698C71.0316 119.739 69.7518 120.364 69.2329 121.485C68.9956 122.027 68.92 122.648 69.0171 123.3C67.3301 122.708 65.3984 121.541 64.8679 119.949L64.8604 119.931C65.7477 119.492 66.4192 118.671 66.7362 118.007ZM79.14 124.535C79.1414 124.563 79.1488 124.581 79.1563 124.599C79.4516 125.542 79.4498 126.465 79.1157 127.185C79.0666 127.26 79.004 127.327 78.9352 127.402C78.823 127.396 78.7481 127.481 78.799 127.581C77.7661 128.689 75.6789 128.948 73.6105 128.227C70.6389 127.199 69.361 124.021 69.734 122.054C70.09 120.142 72.5839 119.854 74.8766 120.587C74.4238 120.479 74.0334 120.573 73.8425 120.984C73.5759 121.6 74.2467 122.413 74.9546 122.902C75.4588 123.258 76.4274 123.555 76.56 123.025C76.5613 123.053 76.6218 123.079 76.634 123.06C77.2591 122.37 76.295 121.205 75.3245 120.732C75.7133 120.879 76.0973 121.062 76.4493 121.265C77.8178 122.078 78.739 123.309 79.14 124.535ZM82.5432 131.82C81.7968 131.628 81.0294 131.408 80.2681 131.179C80.5349 130.978 80.6728 130.559 80.7003 130.309C80.7606 129.92 80.7533 129.219 80.569 128.67C80.7492 128.72 80.9157 128.762 81.0809 128.776C80.9783 129.794 81.4508 131 82.5432 131.82ZM80.1 128.497C80.0656 128.877 80.2411 129.38 80.2583 129.739C80.2742 130.071 80.2432 130.386 80.0851 130.658C79.9884 130.836 79.7728 130.869 79.6339 130.993C79.5401 130.959 79.4266 130.925 79.3266 130.9C77.4608 130.285 75.5771 129.846 73.6995 129.397C73.4794 129.2 73.3159 128.946 73.1536 128.72C73.083 128.62 73.0186 128.511 72.9677 128.411C73.143 128.498 73.332 128.595 73.5195 128.664C75.655 129.548 78.1414 129.242 79.18 127.977C79.4123 128.156 79.6889 128.296 79.9383 128.419C79.9927 128.454 80.0395 128.471 80.1 128.497ZM69.3473 124.695C69.388 124.721 69.4077 124.721 69.4472 124.72C69.7205 125.34 70.1121 125.958 70.5996 126.517C70.6931 126.819 70.8654 127.119 70.9922 127.43C71.2071 127.932 71.206 128.319 71.0939 128.728C68.7658 128.08 66.4568 127.283 64.1361 126.652C65.0142 126.435 65.7949 125.833 66.1913 125.314C66.6245 124.74 66.8056 123.987 66.5244 123.201C66.833 123.322 67.1722 123.396 67.4536 123.499C68.1829 123.747 68.759 124.23 69.3473 124.695ZM71.437 127.372C71.657 127.569 71.903 127.756 72.1476 127.916C72.1366 127.962 72.1182 127.99 72.1406 128.045C72.2143 128.348 72.5213 128.709 72.7514 128.98C72.8146 129.061 72.8974 129.142 72.9728 129.205C72.4868 129.088 71.9933 128.954 71.5134 128.828C71.7266 128.472 71.6607 127.919 71.437 127.372ZM75.8235 121.393C76.3772 121.821 76.753 122.522 76.5981 122.997C76.6042 122.987 76.6029 122.96 76.609 122.95C76.6138 122.913 76.5533 122.887 76.5213 122.906C76.0784 123.14 75.6379 123.013 75.0856 122.612C74.6148 122.265 74.1592 121.686 74.2835 121.258C74.4257 120.655 75.3181 121.009 75.8235 121.393ZM72.9778 119.696C73.2199 119.117 73.1114 118.363 72.7355 117.663C72.475 117.171 72.061 116.499 71.5442 116.014C71.9106 116.106 72.2708 116.207 72.6298 116.281C73.8548 116.571 75.06 116.862 76.2443 117.126C75.3921 117.749 75.1986 119.203 75.6623 120.363C74.7733 119.944 73.842 119.738 72.9778 119.696ZM64.4012 120.1C64.8971 121.656 67.3729 123.326 69.044 123.586C69.0637 123.585 69.0698 123.576 69.0896 123.575C69.1348 123.833 69.2134 124.098 69.3116 124.363C69.0047 124.002 68.6488 123.716 68.1955 123.461C67.7695 123.223 67.361 123.077 66.9191 122.923C66.6982 122.845 66.5168 122.767 66.3095 122.699C66.188 122.499 66.0394 122.281 65.8451 122.074C65.1029 121.282 64.2638 120.667 63.3723 120.192C63.7299 120.238 64.0835 120.201 64.4012 120.1ZM54.0465 125.426C53.961 125.29 53.8558 125.154 53.7444 125.028C53.6962 124.983 53.648 124.938 53.6133 124.902C53.6256 124.883 53.6243 124.856 53.6365 124.837C53.7258 124.641 53.9164 124.497 54.0947 124.372C54.2853 124.229 54.5044 124.131 54.7506 124.05C54.9057 123.991 55.0758 123.968 55.2173 123.899C55.4168 124.217 55.6619 124.524 55.9403 124.84C55.5507 124.813 55.1603 124.907 54.8746 124.988C54.6467 125.041 54.2392 125.19 54.0465 125.426ZM52.6081 126.175C52.737 126.393 52.9216 126.674 53.1294 126.89C53.0287 126.985 52.9218 127.09 52.8224 127.212C52.6861 127.392 52.5771 127.588 52.5014 127.793C52.2538 126.748 51.3344 125.692 50.2121 124.799C51.0357 125.229 51.7871 125.8 52.6081 126.175ZM53.4418 126.679C53.3366 126.543 53.2313 126.408 53.1397 126.281C52.9476 125.981 52.6253 125.436 52.7501 125.156C52.804 125.044 53.0086 125.057 53.1629 125.117C53.1839 125.144 53.1914 125.163 53.2125 125.19C53.2471 125.226 53.3137 125.242 53.3729 125.241C53.5373 125.375 53.6526 125.584 53.7592 125.747C53.9017 125.974 54.0442 126.201 54.2248 126.4C53.9636 126.444 53.6977 126.524 53.4418 126.679ZM92.3143 132.169C93.1735 132.931 94.2588 133.465 95.386 133.638C95.2371 133.688 95.1091 133.765 94.9812 133.843C93.7362 133.82 92.3933 133.681 91.0418 133.495C91.1771 133.436 91.2928 133.378 91.4024 133.329C91.8773 133.076 92.2137 132.679 92.3143 132.169ZM102.943 134.766C103.22 134.906 103.477 135.047 103.722 135.206C103.735 135.215 103.729 135.225 103.743 135.234C103.833 135.333 103.961 135.403 104.088 135.446C105.409 136.361 106.269 137.539 106.598 138.785C106.592 138.795 106.586 138.804 106.58 138.813C106.549 138.86 106.599 138.933 106.641 138.987C106.681 139.134 106.707 139.272 106.727 139.419C106.045 141.653 103.089 141.639 100.18 140.96C98.2961 140.521 96.6334 139.476 95.4929 137.928C94.8304 137.013 94.6972 135.881 94.8423 135.065C94.9656 134.341 95.629 134.038 96.238 133.698C96.3958 133.694 96.5597 133.68 96.71 133.658C98.8451 133.712 100.551 133.592 102.943 134.766ZM106.328 135.488C106.387 135.606 106.451 135.715 106.487 135.779C107.118 136.861 108.073 137.832 109.178 138.633C108.859 138.587 108.53 138.586 108.266 138.575C107.884 138.566 107.531 138.604 107.15 138.623C107.13 138.623 107.13 138.623 107.11 138.624C106.898 137.494 106.05 136.418 104.881 135.508C104.986 135.496 105.085 135.493 105.163 135.491C105.459 135.483 105.741 135.466 106.031 135.468C106.143 135.474 106.249 135.49 106.328 135.488ZM109.821 139.844C109.538 139.565 109.198 139.344 108.833 139.132C109.215 139.14 109.612 139.185 110.03 139.257C110.064 139.265 110.089 139.255 110.115 139.245C110.142 139.263 110.176 139.271 110.203 139.289C110.02 139.451 109.897 139.639 109.821 139.844ZM99.1803 141.392C98.8928 141.299 98.6351 141.278 98.3889 141.358C98.2657 141.398 98.097 141.449 97.9494 141.527C96.412 140.349 94.6123 139.603 93.0711 139.857C92.7528 139.395 92.3779 138.989 91.9466 138.641C91.9623 138.557 91.9719 138.483 92.0013 138.408C92.0989 138.11 92.3582 137.891 92.6264 137.718C92.8945 137.544 93.2244 137.425 93.5632 137.351C93.8625 137.279 94.2065 137.316 94.5356 137.316C95.2396 138.82 96.6021 140.058 98.3996 140.896C98.6824 141.027 98.9773 141.139 99.2587 141.243C99.207 141.263 99.2035 141.327 99.1803 141.392ZM91.3929 138.212C91.168 138.052 90.9309 137.911 90.7012 137.788C90.9922 137.817 91.2832 137.846 91.5742 137.875C91.487 137.979 91.4332 138.091 91.3929 138.212ZM83.8668 136.502C83.8103 136.559 83.7613 136.634 83.7319 136.709C83.4751 136.568 83.2059 136.446 82.9368 136.324C83.2502 136.408 83.5833 136.491 83.8668 136.502ZM92.985 144.65C94.4887 143.89 94.2933 141.874 93.2904 140.174L93.2829 140.156C95.1758 140.373 96.6976 140.951 98.2938 142.395C99.6217 143.596 100.478 144.986 100.664 146.393C100.756 147.083 100.616 147.594 100.338 147.962C100.257 147.789 100.085 147.636 99.8051 147.561C99.2511 147.4 98.8212 147.495 98.4287 147.681C98.1198 147.827 97.5094 148.139 97.8019 148.611C95.7535 148.306 93.2536 146.822 92.5346 144.865L92.5271 144.847C92.6822 144.787 92.8373 144.728 92.985 144.65ZM105.129 145.905C103.597 145.521 102.155 144.673 100.976 143.569C100.156 142.807 100.082 142.356 99.9065 141.438C99.9127 141.428 99.8991 141.419 99.9052 141.41C101.473 141.858 103.171 141.988 104.438 141.769C105.743 141.55 107.331 140.898 107.141 139.528C107.155 139.417 107.169 139.305 107.164 139.195C107.382 139.217 107.618 139.183 107.807 139.159C108.086 139.207 108.382 139.347 108.652 139.469C109.008 139.635 109.377 139.902 109.724 140.142C109.425 141.461 110.377 143.328 111.568 144.708C110.618 146.432 107.488 146.507 105.129 145.905ZM111.835 145.191C111.846 145.144 111.857 145.098 111.868 145.051C111.889 145.078 111.924 145.114 111.951 145.132C111.913 145.161 111.867 145.171 111.835 145.191ZM111.332 145.813C111.273 145.963 111.208 146.121 111.15 146.27C111.035 146.209 110.934 146.156 110.826 146.113C111.019 146.025 111.179 145.928 111.332 145.813ZM114.593 142.449C113.793 141.686 113.327 140.886 112.858 140.031C113.405 140.053 113.95 140.02 114.515 139.987C114.925 140.576 115.327 141.147 115.736 141.708C116.349 142.55 116.974 143.373 117.599 144.197C116.466 143.766 115.551 143.356 114.593 142.449ZM111.256 139.28C110.104 138.876 109.061 137.981 108.211 137.145C107.383 136.337 106.834 135.336 106.422 134.424C106.259 134.049 105.522 132.121 106.248 132.019C107.841 133.14 109.44 134.223 110.846 135.543C112.135 136.745 113.211 138.184 114.22 139.607C113.224 139.559 112.407 139.683 111.256 139.28ZM106.101 135.005C105.842 134.956 105.548 134.992 105.323 134.979C104.974 134.979 104.619 134.989 104.257 134.98C104.217 134.981 104.164 134.973 104.125 134.974C103.473 134.548 102.778 134.188 102.046 133.885C103.784 133.774 104.769 132.206 104.256 130.558C104.44 130.692 104.631 130.843 104.815 130.977C105.102 131.191 105.375 131.396 105.668 131.6C104.853 131.899 105.572 133.855 106.101 135.005ZM103.839 130.246C103.787 130.534 103.828 130.828 103.856 131.141C103.909 131.832 103.718 132.391 103.231 132.81C102.846 133.134 102.204 133.345 101.6 133.38C101.239 133.399 100.933 133.333 100.647 133.414C99.88 133.195 99.1301 133.067 98.4311 133.04C99.6873 132.332 100.626 131.31 100.571 129.761C100.548 129.143 100.181 128.22 99.5613 127.508C101.044 128.234 102.481 129.239 103.839 130.246ZM98.6132 127.09C100.054 128.178 100.366 129.868 99.8256 130.962C99.4009 131.851 98.4107 132.477 97.4433 132.891C96.2247 133.422 94.6861 133.315 93.1716 132.34C91.6299 131.347 91.3682 130.145 91.0522 128.907C90.7768 127.28 91.2242 126.179 93.0564 125.955C94.6865 125.773 96.821 126.362 98.6132 127.09ZM90.4649 128.738C90.4737 128.784 90.4763 128.839 90.4851 128.885C90.4939 128.931 90.5088 128.968 90.5434 129.004C90.6565 129.988 91.1428 130.935 91.8579 131.71C91.8021 132.33 91.3473 132.73 90.7799 132.976C90.4574 133.114 90.0039 133.126 89.6888 133.282C89.0253 133.171 88.3679 133.05 87.7377 132.946C86.3168 132.689 84.9279 132.412 83.5364 132.08C82.8573 131.369 82.2269 130.85 81.8825 129.982C81.3714 128.657 81.9811 127.783 83.1756 127.437C84.9279 126.919 88.438 127.509 90.4649 128.738ZM79.5848 124.477C79.0948 123.179 78.0241 121.851 76.7046 120.963C76.5008 120.83 76.2908 120.706 76.0809 120.583C76.026 119.301 75.9357 118.103 76.8697 117.266C79.0838 117.733 81.2533 118.091 83.4257 118.236C84.1131 119.944 84.4488 121.181 83.7548 122.631C83.1426 123.865 81.7549 125.398 79.5848 124.477ZM54.366 116.712C54.3602 117.553 55.7232 118.938 56.7611 119.307C56.7414 119.308 56.7353 119.317 56.7156 119.317C54.8313 119.829 54.1517 121.167 54.6612 122.732C53.4312 122.064 52.0948 121.647 50.899 120.867C51.2368 120.497 51.5065 120.084 51.7084 119.626C52.1401 118.609 51.77 117.068 50.7774 115.857C51.2503 116.112 51.7811 116.338 52.3351 116.499C53.0693 116.71 53.7363 116.757 54.366 116.712ZM38.9658 114.271C38.8768 114.199 38.8014 114.136 38.7063 114.074C38.8198 114.108 38.9333 114.142 39.0468 114.176C39.0162 114.223 38.9978 114.251 38.9658 114.271ZM35.7287 112.372C35.7076 112.345 35.6927 112.308 35.6717 112.281C35.7063 112.317 35.7471 112.344 35.7817 112.38C35.7681 112.371 35.7484 112.372 35.7287 112.372ZM34.9448 111.673C36.2997 113.575 35.9862 116.372 35.0156 117.681C33.5689 119.63 28.9541 118.239 27.3689 115.651C26.3265 113.952 26.4112 112.011 26.8366 110.588C27.139 109.619 27.6474 108.692 28.6591 108.24C29.8518 107.719 32.0363 108.529 33.2344 109.632C33.7619 110.338 34.367 111.015 34.9334 111.572C34.915 111.6 34.9102 111.637 34.9448 111.673ZM29.1134 106.594C29.3137 106.792 29.4216 106.983 29.5049 107.212C29.551 107.349 29.6094 107.467 29.6738 107.576C28.9538 107.522 28.3232 107.686 27.8176 107.986C27.0702 107.498 26.2935 107.085 25.5584 106.578C24.9591 106.161 24.3708 105.696 23.7532 105.306C23.8031 105.111 23.853 104.916 23.8695 104.713C23.9816 104.303 23.9481 103.88 23.795 103.431C23.9908 103.398 24.1867 103.366 24.4037 103.36C24.7586 103.35 25.1141 103.489 25.4743 103.59C25.4879 103.599 25.5138 103.589 25.5274 103.598C25.887 104.234 26.3575 104.849 26.9681 105.368C27.6419 105.969 28.3915 106.364 29.1134 106.594ZM13.7007 105.953C14.6149 106.898 15.7971 107.67 17.2123 108.084C19.0075 108.599 20.5234 108.504 21.7081 107.817C22.1469 108.183 22.6939 108.473 23.2213 108.764C23.8311 111.6 20.7307 112.966 17.8066 112.518C13.9599 111.909 11.9732 107.947 13.7007 105.953ZM14.9485 117.016C15.2905 115.363 16.66 114.275 18.3158 113.667C20.0751 113.02 24.7764 113.744 24.8274 116.457C23.1182 117.324 22.5178 119.491 23.6488 121.529C21.8094 122.15 20.2473 122.792 17.7345 121.862C15.2156 120.941 14.6099 118.603 14.9485 117.016ZM19.5518 122.699C21.1387 122.851 22.6189 122.424 23.8633 121.883C23.9128 121.955 23.9488 122.019 23.9847 122.083C25.0077 123.514 26.9193 124.534 28.5728 124.702C27.4428 127.354 20.659 126.436 19.5518 122.699ZM28.8275 128.231C28.1734 127.63 27.7459 126.949 27.4884 126.245C28.2836 125.947 28.8589 125.451 28.9563 124.738C29.8477 124.797 31.2974 124.832 31.9182 124.327C31.9802 124.796 32.1087 125.282 32.2965 125.766C32.2571 125.767 32.2373 125.767 32.2054 125.787C31.1973 126.589 31.0427 127.895 31.5279 129.23C30.5963 129.291 29.7017 129.029 28.8275 128.231ZM34.1378 131.911C31.7067 130.351 31.4265 127.663 32.4829 126.222C33.2676 127.9 34.7828 129.438 36.9211 129.695C37.4772 129.763 38.0675 129.72 38.6205 129.585C39.4038 130.137 40.0609 130.525 40.8371 130.791C40.0689 132.888 36.9827 133.728 34.1378 131.911ZM45.9921 138.509C44.5744 139.553 42.1264 138.464 40.6003 136.973C40.0957 136.469 38.3237 133.692 38.9322 133.205C38.9383 133.195 38.9445 133.186 38.9506 133.177C40.1771 132.812 41.0865 132.012 41.2307 130.9C41.4306 130.95 41.644 131.009 41.8636 131.059C43.0662 131.294 43.9921 130.974 44.6273 130.357C44.9425 130.617 45.2625 130.839 45.5886 131.052C47.9763 133.628 48.0455 136.996 45.9921 138.509ZM46.2985 131.033C43.7133 129.828 41.8228 126.638 42.0034 124.639C42.1841 122.641 45.0323 122.878 47.0681 123.47C49.658 124.223 51.5695 126.341 52.3693 128.471C52.3121 129.063 52.4154 129.707 52.6654 130.392C52.0273 132.32 48.6146 132.116 46.2985 131.033ZM58.1169 140.863C56.9108 141.79 54.6814 141.554 52.8423 140.81C49.0974 139.303 48.0646 134.235 49.6432 132.291C51.1262 132.335 52.5043 131.975 52.9203 131.041C54.1059 133.529 56.8661 136.188 59.4025 137.201C59.3532 138.642 59.2529 139.983 58.1169 140.863ZM53.0119 130.069C53.0045 130.051 53.0106 130.041 53.0032 130.023C53.0032 130.023 52.9896 130.014 52.9957 130.005C52.7433 128.996 52.877 128.079 53.5639 127.442C55.4674 125.683 58.5603 128.693 60.1725 130.469C61.9231 132.389 63.4858 134.507 63.1645 136.454C60.1289 138.76 53.9995 133.781 53.0119 130.069ZM63.0217 143.086C60.5342 140.9 61.6658 138.691 62.9071 137.264C63.9971 137.346 65.0365 137.06 65.6519 136.443C65.6655 137.551 66.0455 138.75 66.9969 139.786C68.1772 141.065 69.6587 141.764 71.1054 142.012C70.6608 142.485 70.6129 143.271 70.7451 144.108C69.1619 145.405 65.0492 144.878 63.0217 143.086ZM80.6657 148.948C80.0842 150.136 78.6719 150.608 77.0096 150.393C77.3944 150.457 77.7555 150.438 77.9965 150.247C78.0087 150.228 77.9877 150.201 77.9618 150.211C77.4517 150.28 76.8583 150.12 76.3017 149.905C76.1338 149.835 74.647 149.026 74.9953 148.878C75.3178 148.74 75.8792 148.919 76.2728 149.028C76.7935 149.181 77.3821 149.377 77.7325 149.82C77.6944 149.849 77.7242 149.922 77.7983 149.957C77.8452 149.974 77.8723 149.992 77.9131 150.018C78.0144 150.071 78.1164 150.004 78.073 149.922C77.7726 149.284 76.9481 148.973 76.299 148.751C75.7906 148.58 74.8172 148.319 74.5732 148.723C74.3232 149.136 75.4335 149.78 75.8052 149.982C76.1497 150.167 76.5792 150.34 76.9776 150.413C76.8518 150.398 76.7458 150.382 76.62 150.367C74.4479 149.954 72.6917 148.191 71.9091 146.421C71.4209 145.299 70.7867 142.916 71.6335 142.182C71.6655 142.163 71.6703 142.126 71.669 142.098C73.9019 142.27 75.924 141.339 76.4667 139.616C77.1014 141.049 78.4535 142.481 80.0732 143.591C81.0289 145.541 81.4639 147.339 80.6657 148.948ZM77.1891 136.699C78.3541 134.914 82.5906 136.379 84.6772 137.754C87.505 139.627 88.852 142.462 87.4679 144.345C85.9857 145.28 83.776 145.043 81.4858 143.951C78.219 142.395 75.7114 138.963 77.1891 136.699ZM89.4047 152.481C87.6114 152.557 85.6503 151.465 84.8139 149.807C83.8337 147.894 84.7452 146.587 85.683 145.417C86.6764 145.409 87.5261 145.147 87.9974 144.543C87.3575 146.711 89.2297 149.929 91.8462 151.65C91.0658 151.985 90.4424 152.435 89.4047 152.481ZM93.715 152.053C93.8815 152.094 94.0481 152.136 94.2072 152.159C94.5858 152.232 94.8886 152.095 95.2151 152.04C95.2348 152.04 95.2273 152.022 95.2076 152.022C95.0152 151.99 94.8303 151.977 94.6515 151.954C94.7032 151.934 94.7549 151.914 94.793 151.885C94.8631 151.837 94.8381 151.727 94.7688 151.655C94.7872 151.627 94.7709 151.563 94.7104 151.537C94.2945 151.372 93.8194 151.21 93.425 151.22C93.3067 151.223 93.2664 151.345 93.3703 151.453C93.5088 151.597 93.6929 151.73 93.8819 151.827C93.629 151.769 92.279 151.343 92.7566 151.146C93.2601 150.939 94.84 151.219 95.3412 151.788C95.4104 151.86 95.5003 151.811 95.4507 151.739C95.1508 151.248 94.4166 151.037 93.9231 150.902C93.4568 150.786 92.5798 150.615 92.3394 150.954C92.1357 151.236 92.4522 151.523 92.7967 151.708C92.7227 151.673 92.6425 151.647 92.5684 151.612C89.5584 150.197 88.01 146.454 88.6463 144.35C89.7535 144.792 90.9894 145.036 92.0109 144.925C92.9308 147.227 95.8234 148.941 98.1413 149.101C98.0238 150.082 97.6964 150.94 97.119 151.528C97.1129 151.537 97.087 151.547 97.0809 151.557C97.0809 151.557 97.0809 151.557 97.0747 151.566C96.3511 152.259 95.2512 152.519 93.715 152.053ZM102.184 152.971C101.453 153.231 98.3191 153.222 97.6354 151.865C98.3271 151.191 98.6751 150.213 98.5235 149.109C99.6291 149.107 100.537 148.695 100.982 147.806C101.381 148.174 102.034 148.332 102.491 148.403C103.022 148.481 103.492 148.413 103.892 148.246C104.005 148.815 104.224 149.4 104.542 149.982C104.498 151.414 103.561 152.464 102.184 152.971ZM113.088 155.118C111.105 155.217 108.573 153.484 106.954 152.106C105.945 151.246 105.286 150.267 104.867 149.217C104.634 148.623 103.943 146.564 104.938 146.436C104.997 146.435 105.035 146.406 105.046 146.359C106.719 146.795 108.244 146.893 109.694 146.512C109.882 146.461 110.096 146.4 110.303 146.321C111.656 146.682 113.301 149.001 113.971 149.934C115.634 152.225 116.108 154.973 113.088 155.118ZM118.015 153.685C117.615 153.732 117.195 153.753 116.767 153.755C116.438 153.754 116.131 153.661 115.825 153.595C115.855 152.718 115.543 151.683 115.036 150.736C114.653 150.017 113.11 147.751 111.674 146.626C111.755 146.411 111.824 146.188 111.919 145.982C112.008 145.786 112.125 145.608 112.228 145.42C113.531 146.659 115.169 147.179 116.712 147.248C116.787 148.945 118.253 150.974 119.905 152.333C119.706 152.578 119.582 152.886 119.323 153.105C118.975 153.401 118.544 153.615 118.015 153.685ZM119.387 151.285C118.116 150.026 117.667 148.635 117.246 147.262C118.114 147.239 118.935 147.078 119.614 146.811C119.874 147.155 120.147 147.508 120.413 147.842C121.717 149.497 123.078 151.122 124.639 152.65C124.922 152.928 125.21 153.17 125.525 153.429C124.074 154.465 120.749 152.643 119.387 151.285ZM124.587 151.986C122.647 150.09 121.077 147.954 119.477 145.891C117.983 143.965 116.554 142.028 115.131 140.081C113.716 138.152 112.34 136.223 110.436 134.538C108.937 133.212 107.187 132.123 105.551 130.948C103.752 129.667 102.043 128.337 100.103 127.272C98.5481 126.418 96.297 125.592 94.3586 125.385C94.8332 125.4 95.3696 125.469 95.9481 125.592C97.8231 125.985 99.7946 126.883 101.649 127.664C104.262 128.767 106.836 130.019 109.397 131.261C111.677 132.963 113.734 135.244 115.53 137.273C117.625 139.645 119.242 142.214 120.89 144.737C122.367 146.987 124.011 149.158 125.792 151.299C127.105 152.879 128.601 154.566 130.296 156.007C128.24 154.852 126.285 153.63 124.587 151.986ZM131.719 156.855C129.557 154.882 127.582 152.95 125.752 150.737C123.726 148.289 122.012 145.778 120.356 143.209C118.792 140.796 117.152 138.439 115.109 136.195C114.068 135.06 112.898 134.002 111.799 132.896C111.446 132.545 111.115 132.221 110.765 131.926C111.283 132.171 111.796 132.425 112.314 132.669C115.519 134.172 118.741 135.618 121.929 137.176C123.662 139.124 124.687 141.294 125.808 143.406C127.068 145.781 128.378 148.137 129.938 150.468C131.393 152.663 133.114 154.805 135.104 156.774C136.133 157.78 137.258 158.729 138.376 159.659C139.157 160.303 139.894 160.985 140.693 161.6C139.599 161.14 138.484 160.681 137.405 160.137C135.455 159.146 133.602 157.977 131.719 156.855ZM141.149 161.764C138.954 160.05 136.843 158.029 134.948 156.123C132.757 153.929 131.022 151.39 129.469 148.93C127.981 146.579 126.76 144.174 125.487 141.789C124.829 140.542 124.055 138.818 122.838 137.595C123 137.674 123.161 137.753 123.337 137.84C125.441 138.892 127.517 140.046 129.599 141.191C130.211 141.885 130.561 142.596 130.999 143.35C131.682 144.56 132.569 145.755 133.323 146.944C134.725 149.131 136.307 151.249 138.052 153.326C139.91 155.556 141.826 157.758 143.677 159.998C145.145 161.786 146.53 163.494 148.119 165.187C146.708 164.468 145.334 163.664 143.933 162.991C143.003 162.545 142.076 162.154 141.149 161.764ZM150.789 166.381C149.958 166.08 149.137 165.705 148.335 165.301C147.679 164.525 146.985 163.777 146.373 162.963C145.486 161.768 144.541 160.575 143.609 159.39C141.815 157.121 139.912 154.901 138.066 152.652C136.221 150.402 134.644 148.127 133.122 145.768C132.426 144.697 131.704 143.636 131.079 142.545C130.906 142.245 130.742 141.963 130.525 141.701C131.593 142.291 132.681 142.881 133.768 143.443C135.448 144.312 137.149 145.18 138.828 146.022C140.179 147.721 140.797 149.625 141.889 151.396C143.352 153.757 144.977 156.077 146.77 158.346C148.319 160.308 150.036 162.219 151.887 164.016C153.116 165.22 154.763 166.764 156.409 167.597C154.58 167.489 152.671 167.06 150.789 166.381ZM157.727 167.627C157.372 167.636 157.009 167.627 156.633 167.61C154.677 166.48 152.809 164.591 151.327 163.062C149.376 161.064 147.648 158.932 146.05 156.777C144.587 154.804 143.273 152.808 142.038 150.782C141.145 149.329 140.702 147.781 139.577 146.417C142.612 147.942 145.664 149.412 148.746 150.807L148.759 150.816C149.022 150.947 149.518 152.918 149.638 153.211C149.888 153.896 150.165 154.6 150.52 155.273C151.286 156.712 152.215 158.108 153.347 159.463C154.568 160.917 155.844 162.258 157.327 163.548C158.872 164.891 160.572 165.88 162.296 166.978C160.853 167.349 159.357 167.592 157.727 167.627ZM154.929 153.476C156.34 155.857 156.953 158.213 158.977 160.485C160.821 162.559 163.202 164.314 165.696 165.688C164.634 166.187 163.517 166.623 162.328 166.959C160.698 165.775 159.062 164.72 157.55 163.385C156.099 162.103 154.862 160.733 153.688 159.297C152.492 157.833 151.496 156.272 150.742 154.695C150.164 153.474 149.924 152.178 149.169 150.989C151.067 151.853 152.989 152.678 154.929 153.476ZM168.542 164.089C167.7 164.637 166.809 165.141 165.876 165.591C163.048 163.986 160.554 161.929 158.582 159.517C157.603 158.316 157.043 156.946 156.456 155.678C156.148 155.022 155.897 154.308 155.419 153.675C162.647 156.584 169.783 158.535 177.072 160.64C173.587 160.723 170.923 162.548 168.542 164.089ZM176.085 159.004C176.236 159.129 177.389 159.976 177.589 160.441C174.268 158.997 170.857 158.285 167.494 157.322C165.372 156.714 163.237 155.977 161.125 155.175C162.38 155.123 163.51 154.401 164.447 154.034C166.243 153.331 168.476 152.551 170.831 152.922C171.211 153.586 171.56 154.269 171.977 154.997C172.852 156.506 174.658 157.805 176.085 159.004ZM168.397 149.673C169.433 150.67 170.092 151.65 170.687 152.668C169.008 151.974 167.077 152.736 165.836 153.093C164.876 153.377 163.956 153.687 163.053 154.062C162.149 154.437 161.196 154.592 160.233 154.821C158.737 154.233 157.259 153.617 155.78 152.973C153.408 151.947 151.035 150.921 148.667 149.858C151.504 149.847 153.969 149.246 156.526 148.624C158.159 148.229 159.774 147.863 161.55 147.696C163.227 147.531 164.953 147.707 166.732 147.89C167.197 148.515 167.817 149.107 168.397 149.673ZM166.303 147.301C166.388 147.438 166.493 147.573 166.592 147.718C163.478 146.878 160.347 147.313 157.746 147.853C156.033 148.221 154.369 148.663 152.641 148.995C151.649 149.178 150.665 149.38 149.622 149.463C149.032 149.507 148.437 149.439 147.887 149.509C145.116 148.263 142.335 146.971 139.604 145.604C140.693 145.658 141.675 145.281 142.534 144.944C144.26 144.289 145.931 143.571 147.657 142.915C151.613 141.425 156.138 140.935 161.087 141.486C162.187 142.445 163.286 143.403 164.263 144.429C165.109 145.33 165.71 146.339 166.303 147.301ZM158.9 139.523C159.508 140.107 160.141 140.681 160.786 141.236C156.883 140.269 152.855 140.977 149.68 141.744C147.742 142.221 146.009 143.005 144.246 143.717C142.483 144.429 140.837 145.23 138.579 145.096C136.852 144.21 135.137 143.305 133.458 142.343C132.782 141.955 132.105 141.567 131.414 141.17C132.725 141.181 133.858 140.514 134.866 140.127C136.888 139.344 138.818 138.406 140.89 137.695C143.157 136.924 145.685 136.524 148.298 136.381C150.877 136.229 153.339 136.643 156.062 137.429C157.134 137.955 158.016 138.651 158.9 139.523ZM152.477 136.094C149.086 135.529 145.63 136.074 142.978 136.634C140.685 137.119 138.793 138.028 136.773 138.867C134.927 139.618 132.984 140.694 130.677 140.756C128.376 139.442 126.082 138.118 123.744 136.86C123.541 136.755 123.339 136.65 123.136 136.544C124.776 136.556 126.275 135.98 127.616 135.529C129.65 134.847 131.543 133.966 133.521 133.221C135.474 132.486 137.507 131.924 139.673 131.515C141.545 131.17 144.456 130.806 146.745 131.724C147.175 132.045 147.6 132.402 148.042 132.825C149.428 134.145 150.688 135.302 152.477 136.094ZM144.049 130.125C144.688 130.421 145.243 130.73 145.785 131.057C144.651 130.746 143.41 130.806 142.429 130.796C140.163 130.764 137.989 131.274 136.055 131.833C131.477 133.146 127.623 135.815 122.441 136.184C120.443 135.148 118.43 134.196 116.385 133.29C117.353 133.292 118.187 132.698 118.868 132.365C120.791 131.41 122.263 129.986 124.191 129.02C126.293 127.967 128.784 127.356 131.468 127.192C132.801 127.111 134.191 127.147 135.562 127.185C136.491 127.215 137.768 127.07 138.915 127.243C139.757 127.645 140.589 128.121 141.405 128.654C142.288 129.23 143.113 129.688 144.049 130.125ZM134.908 126.168C136.028 126.203 137.108 126.479 138.168 126.903C136.839 126.772 135.524 126.798 134.239 126.777C131.604 126.718 129.117 126.877 126.816 127.492C124.698 128.065 122.848 129.028 121.198 130.162C119.503 131.333 117.943 132.566 115.584 132.915L115.578 132.924C114.583 132.489 113.568 132.054 112.561 131.638C111.453 131.169 110.343 130.673 109.251 130.148C110.104 130.088 110.736 129.536 111.357 129.178C112.976 128.212 114.585 127.172 116.405 126.431C119.969 124.979 124.136 124.591 128.622 124.933C128.702 124.958 128.763 124.984 128.829 125.001C131.006 125.792 132.824 126.095 134.908 126.168ZM104.858 125.954C106.829 125.606 108.215 124.461 109.976 123.842C111.743 123.213 113.795 123.186 116.039 123.727C118.163 124.242 119.577 123.531 121.502 123.461C123.421 123.401 125.346 123.866 127.325 124.515C125.882 124.35 124.444 124.416 123.144 124.479C121.246 124.566 119.528 124.972 117.859 125.45C116.165 125.939 114.67 126.625 113.269 127.465C112.521 127.928 111.76 128.382 110.95 128.792C110.179 129.172 109.631 129.833 108.528 129.743C108.488 129.744 108.476 129.762 108.45 129.772C106.273 128.713 104.112 127.571 101.926 126.438C101.345 126.14 100.772 125.86 100.187 125.599C101.887 126.052 103.33 126.216 104.858 125.954ZM92.9082 124.787C93.4954 124.54 94.1496 124.458 94.8547 124.476C97.7858 124.795 100.671 126.223 103.576 127.77C107.101 129.642 110.627 131.247 114.254 132.756C119.814 135.073 125.069 138.007 130.346 140.995C130.381 141.031 130.422 141.058 130.455 141.066C131.97 141.921 133.486 142.776 134.994 143.613C139.058 145.877 143.3 147.869 147.556 149.749C147.598 149.803 147.666 149.848 147.739 149.855C147.759 149.854 147.759 149.854 147.779 149.854C150.408 151.021 153.048 152.141 155.663 153.272C159.158 154.775 162.684 156.112 166.245 157.217C170.047 158.399 173.803 159.176 177.584 160.626C177.578 160.635 177.578 160.635 177.572 160.645C173.832 159.369 170.068 158.426 166.322 157.308C162.208 156.07 158.116 154.471 154.061 152.816C148.972 150.727 143.982 148.367 139.037 145.85C139.023 145.841 139.016 145.823 138.988 145.805C138.927 145.751 138.874 145.743 138.814 145.745C136.15 144.395 133.51 143.006 130.882 141.599C127.808 139.955 124.787 138.291 121.691 136.74C121.623 136.695 121.555 136.651 121.481 136.616C121.468 136.607 121.461 136.617 121.455 136.626C120.882 136.346 120.316 136.056 119.729 135.767C115.917 133.949 112.069 132.214 108.249 130.378C104.772 128.698 101.183 126.864 97.5977 125.677C94.715 124.72 92.1035 124.476 90.8228 126.319C90.4619 126.753 90.3429 127.292 90.3598 127.919C89.6593 126.35 91.8115 125.25 92.9082 124.787ZM88.8526 126.547C88.9812 127.033 89.3118 127.476 89.7261 127.881C89.5236 127.775 89.3088 127.689 89.0879 127.612C88.8428 127.304 88.5631 126.961 88.5029 126.667C88.4955 126.649 88.488 126.631 88.4806 126.612C88.6112 126.59 88.7281 126.56 88.8526 126.547C88.8587 126.538 88.8526 126.547 88.8526 126.547ZM89.8118 124.038C89.9228 125.531 89.1423 126.549 87.1735 126.121C85.9499 125.858 84.4357 124.616 83.8222 123.626C84.8603 122.213 85.1334 120.221 83.7486 118.246C84.725 118.294 85.7137 118.323 86.6923 118.278C86.8895 118.273 87.0731 118.259 87.2764 118.244C88.8561 119.891 89.6888 122.297 89.8118 124.038ZM90.3447 117.581C89.6681 117.608 89.005 117.644 88.3359 117.69C83.7907 116.103 79.2095 116.234 74.653 114.962C71.0034 113.933 66.3467 110.706 62.6471 110.556C64.4935 109.805 66.1926 108.864 67.8523 107.925C71.0438 107.636 74.395 108.618 77.8295 109.828C81.2776 111.047 84.7113 112.377 88.1532 113.605C91.4212 114.773 94.6154 115.639 97.8753 116.226C99.4022 116.499 100.914 116.736 102.422 116.889C103.62 117.014 104.721 116.93 105.844 116.872C101.142 118.197 95.6 117.367 90.3447 117.581ZM109.962 114.897C109.026 115.707 107.787 116.211 106.517 116.642C106.446 116.662 106.375 116.682 106.317 116.712C105.334 116.673 104.416 116.744 103.427 116.715C101.641 116.661 99.6922 116.233 97.8458 115.885C93.9741 115.167 90.2534 113.891 86.3907 112.535C82.95 111.334 79.5185 109.912 76.0669 108.758C73.6791 107.963 71.0178 107.231 68.7675 107.383C68.8057 107.354 68.8512 107.344 68.8893 107.315C70.9906 106.115 72.9188 104.734 74.8333 103.344C77.2705 102.698 81.1004 104.193 83.8643 105.005C87.3228 106.03 90.7819 107.202 94.2452 108.19C97.7616 109.186 101.268 110.107 104.772 110.854C107.685 111.469 110.788 112.088 113.655 112.297C113.077 112.47 112.542 112.696 112.057 113.023C111.28 113.561 110.67 114.288 109.962 114.897ZM122.774 107.974C121.367 109.387 119.759 110.842 117.563 111.445C116.498 111.741 115.352 111.864 114.284 112.105C110.884 111.347 107.513 111.049 104.109 110.327C100.418 109.539 96.6819 108.494 92.9705 107.412C89.3196 106.355 85.6764 105.049 82.0207 104.03C80.3192 103.549 77.6263 102.568 75.7419 102.665C76.6444 101.994 77.5469 101.324 78.463 100.663C80.187 99.4167 81.911 98.1707 83.6003 96.8887C87.3843 96.4647 92.1532 98.5992 96.2187 99.7923C100.245 100.987 104.44 101.715 108.369 102.136C112.557 102.578 116.632 102.867 120.529 102.477C123.287 102.2 125.758 101.442 127.978 100.385C127.066 101.398 126.563 102.583 125.951 103.818C125.158 105.39 124.011 106.732 122.774 107.974ZM132.014 96.6962C131.081 97.8288 129.813 98.7026 128.702 99.6923C127.58 99.8976 126.623 100.532 125.66 100.909C123.87 101.603 121.939 101.95 119.843 102.163C115.807 102.556 111.391 102.139 107.04 101.59C102.868 101.064 98.5717 100.136 94.3234 98.8367C91.2102 97.8766 87.2378 96.1547 84.2285 96.4011C85.4346 95.4735 86.6197 94.5188 87.7701 93.5281C89.3064 92.2132 90.6227 90.7011 91.8983 89.1624C93.6065 89.0984 95.2502 88.9253 97.0418 89.0898C99.3427 89.3054 101.708 89.7777 104.053 90.2229C108.637 91.0977 113.2 92.093 117.701 92.4991C121.819 92.8693 125.658 92.7485 129.324 92.06C130.889 91.769 132.263 91.1785 133.519 90.4711C134.082 90.1422 134.717 89.7929 135.176 89.3284C135.034 90.0799 134.885 90.8132 134.669 91.5297C134.114 93.4184 133.253 95.2138 132.014 96.6962ZM139.575 76.3519C138.67 79.847 136.847 82.8773 135.835 86.3291C135.614 87.0827 135.462 87.8807 135.301 88.6604C134.686 89.5445 133.475 90.0938 132.478 90.5819C130.729 91.4501 128.674 91.8373 126.522 92.107C122.622 92.5895 118.362 92.2876 114.096 91.6998C109.776 91.1042 105.352 89.9852 100.99 89.2153C99.218 88.9026 97.4694 88.6723 95.7383 88.5338C94.8197 88.4567 93.945 88.6093 93.0861 88.6784C92.7978 88.7045 92.534 88.6931 92.2973 88.6994C93.1493 87.6612 94.0012 86.6231 94.8878 85.6209C96.4805 83.8338 97.9571 81.9574 99.3459 80.0372C102.53 78.6322 107.692 79.8977 111.674 80.4469C115.821 81.0102 119.935 81.1498 123.819 80.8985C130.171 80.4891 136.265 78.4249 139.959 74.6062C139.835 75.1819 139.719 75.7758 139.575 76.3519ZM140.059 73.9481C139.108 74.6935 138.246 75.5381 137.26 76.2475C135.898 77.207 134.287 77.9238 132.611 78.5316C129.266 79.7378 125.554 80.4368 121.55 80.5159C117.111 80.6065 112.585 80.0903 107.939 79.4295C105.633 79.1033 102.114 78.4679 99.9753 79.1619C102.489 75.5777 104.737 71.8068 106.884 67.9832C108.022 67.5744 108.999 67.2068 110.411 67.1507C112.218 67.084 114.156 67.2908 116.015 67.352C119.542 67.4703 122.993 67.646 126.338 67.2706C132.014 66.6208 136.484 64.166 138.449 59.8488C140.364 64.6626 140.743 69.545 140.059 73.9481ZM138.222 59.3656C137.637 60.3505 137.205 61.3682 136.424 62.2383C135.487 63.288 134.228 64.06 132.953 64.7956C130.532 66.1895 127.399 66.7438 124.205 66.9767C120.932 67.2117 117.477 66.953 114.061 66.8133C111.582 66.7225 109.053 66.4115 107.234 67.3277C107.44 66.953 107.653 66.5965 107.859 66.2217C109.404 63.4389 110.872 60.5657 112.132 57.5966C113.966 57.0123 115.706 56.7812 117.904 56.7688C120.174 56.7636 122.384 56.5847 124.45 56.1511C127.852 55.4512 131.726 53.6124 132.557 50.4977C132.99 51.0216 133.424 51.5454 133.851 52.0787C135.748 54.4559 137.189 56.9099 138.222 59.3656ZM128.975 46.0699C129.995 47.4459 131.119 48.7821 132.223 50.1189C131.282 53.698 126.683 55.3715 122.711 55.9944C120.509 56.3393 118.138 56.2918 115.803 56.3356C114.626 56.3577 113.361 56.4561 112.42 56.8873C113.539 54.1343 114.488 51.2842 115.156 48.3308C117.552 46.8269 121.052 46.7797 123.459 45.2293C124.607 44.4786 125.954 42.9196 125.67 41.247C126.812 42.8228 127.786 44.4769 128.975 46.0699ZM124.911 40.2426C126.184 43.3104 122.999 45.2508 120.491 46.0654C118.857 46.5798 116.575 46.6314 115.307 47.6253C115.467 46.8456 115.613 46.057 115.726 45.2601C116.135 42.526 116.389 39.7314 116.859 37.0233C117.235 34.844 117.31 32.4418 118.569 30.6912C119.188 34.2565 122.28 36.9711 124.911 40.2426ZM114.888 30.7802C116.012 30.7502 116.991 30.4379 118.094 30.3808C117.778 30.8046 117.517 31.2639 117.311 31.7587C116.881 32.4163 116.487 33.11 116.168 33.8662C115.379 35.6689 115.233 37.8513 114.875 39.8548C114.446 42.2941 114.111 44.7954 113.709 47.2525C113.806 44.8774 112.412 42.0252 110.965 39.5806C109.045 36.3178 107.736 33.3064 110.12 31.2858C110.413 31.2226 110.685 31.1322 110.986 31.0873C112.218 30.8329 113.547 30.8159 114.888 30.7802ZM109.215 31.4853C108.081 32.5402 108.16 34.6151 108.681 36.2813C109.241 38.0665 110.696 39.8739 111.552 41.6512C112.501 43.6106 113.088 45.5612 113.636 47.5129C113.63 47.5223 113.65 47.5217 113.663 47.5306C113.423 48.9679 113.135 50.3879 112.774 51.773C111.774 55.6214 109.514 58.728 107.621 62.074C107.099 62.9926 106.563 63.9023 106.041 64.8209C106.042 64.7009 106.036 64.5903 106.037 64.4702C106.014 63.1692 105.864 61.8255 105.583 60.476C105.024 57.74 103.727 54.8575 102.706 52.0877C101.525 48.879 100.338 45.6797 99.6065 42.4959C99.0573 40.1012 98.7431 37.9403 99.781 36.1125C101.009 35.092 102.45 34.2505 103.968 33.5269C105.588 32.7083 107.35 31.9966 109.215 31.4853ZM98.4331 37.3762C98.5264 37.2629 98.6271 37.1679 98.734 37.0635C98.4342 38.087 98.589 39.3937 98.7529 40.4786C99.1265 43.0534 99.9242 45.6907 100.84 48.3249C102.776 53.9689 105.977 60.1978 105.616 65.5615C104.322 67.8115 103.014 70.0527 101.646 72.2677C100.736 73.7505 99.8326 75.2239 98.9094 76.6979C98.8854 74.6861 97.7209 72.2247 97.061 70.2668C95.9817 67.1108 94.7126 63.9783 93.4619 60.8177C92.1529 57.5386 91.2436 54.3596 90.9001 51.1747C90.6265 48.6249 90.6294 46.2155 91.7308 44.2014C92.7201 43.695 93.6266 43.1077 94.3538 42.3499C95.8401 40.8147 97.0038 39.0021 98.4331 37.3762ZM86.3007 46.6725C87.7698 45.8764 89.4392 45.278 90.9912 44.5627C90.181 45.9228 90.1366 47.7426 90.2188 49.4574C90.3492 52.3156 90.9359 55.217 91.9481 58.2087C93.0823 61.5478 94.67 64.8749 95.8301 68.2041C96.3789 69.768 96.8883 71.333 97.463 72.887C98.0825 74.5506 98.1453 75.9982 98.3712 77.5522C96.4253 80.6228 94.4054 83.6583 92.1395 86.5066C91.1389 80.736 88.4621 75.0102 85.531 69.1988C83.9152 65.974 82.3306 62.85 81.6492 59.6187C81.1192 57.0758 80.8206 54.416 81.2763 52.1145C82.4622 49.9412 83.9273 47.9636 86.3007 46.6725ZM79.8414 54.9959C80.0384 54.5753 80.2416 54.1452 80.4522 53.7334C80.4076 55.1378 80.6988 56.6809 80.8488 58.0246C81.1966 61.0247 82.4135 64.0294 83.935 67.072C85.6437 70.4513 87.3721 73.83 88.8775 77.2238C89.675 79.0304 90.2419 80.8338 90.7952 82.6284C91.0844 83.5807 91.3872 84.5419 91.5839 85.4875C91.6792 85.965 91.6868 86.3986 91.8548 86.8834C90.6998 88.3266 89.4768 89.7254 88.1587 91.0622C86.3885 92.8541 84.3995 94.4765 82.3339 96.0085C82.6941 93.9127 81.7277 91.326 81.0987 89.0534C80.2166 85.8922 78.8327 82.6981 77.3984 79.5516C75.9628 76.3774 74.3904 73.2346 73.2506 70.0525C72.3087 67.4282 71.5605 64.8634 72.1705 62.6224C72.4951 62.3922 72.8272 62.1803 73.1518 61.9501C75.951 60.0661 78.424 57.9693 79.8414 54.9959ZM71.3096 63.1993C71.062 64.3505 71.5149 65.9724 71.7848 67.0729C72.6131 70.3464 73.9826 73.6516 75.5541 76.9145C78.6077 83.2211 81.8065 90.2254 81.8813 96.316C80.9087 97.0343 79.9089 97.7348 78.9153 98.426C77.0423 99.7221 75.183 101.027 73.3026 102.305C73.6958 100.485 72.7192 97.825 72.1185 95.8655C71.1514 92.7158 69.6171 89.5442 68.3406 86.3935C65.9591 80.5121 63.6786 74.2679 65.217 69.1497C66.7954 66.7906 68.9363 64.9057 71.3096 63.1993ZM64.4286 70.417C63.2592 74.1683 65.2829 79.5885 66.8105 83.7203C69.1304 89.9634 72.8888 96.5558 72.8881 102.584C71.5869 103.449 70.2795 104.324 68.9301 105.145C68.0026 105.705 67.0045 106.166 65.9656 106.599C66.4957 105.164 65.8761 103.085 65.5476 101.45C65.0712 99.0629 64.1854 96.6494 63.4513 94.2412C62.5776 91.3936 61.8148 88.5245 61.3049 85.7134C60.9057 83.5639 61.3874 81.6679 61.6421 79.7041C61.9575 78.1817 62.0852 76.5905 62.4413 75.0948C62.8609 73.4128 63.5768 71.8705 64.4286 70.417ZM61.3969 108.641C62.2697 101.722 56.6413 93.6012 57.4895 86.7198C57.8202 86.0648 58.252 85.4625 58.7763 84.8669C59.5819 83.9592 60.3296 83.0808 60.8661 82.051C60.7734 82.7274 60.6869 83.3943 60.6745 84.0962C60.6009 86.406 61.5074 89.1143 62.164 91.5523C62.8829 94.1917 63.852 96.8337 64.577 99.4638C65.216 101.81 66.0529 104.714 65.5138 106.787L65.5213 106.805C64.5402 107.21 63.553 107.624 62.6141 108.083C62.2154 108.278 61.8031 108.464 61.3969 108.641ZM58.0277 101.928C56.3546 97.7814 56.7167 93.6638 56.7629 89.8224C56.7737 89.3605 56.8191 88.9347 56.8978 88.5172C56.8119 90.8457 57.7903 93.6813 58.5328 95.9878C59.9369 100.428 61.1183 104.615 61.024 108.827C60.6301 108.985 60.2362 109.143 59.8348 109.283C60.8202 107.595 58.7449 103.709 58.0277 101.928ZM66.3996 107.003C70.0578 105.466 73.0886 103.197 76.1778 101.047C79.3813 98.8105 82.633 96.6191 85.6089 94.1673C88.4767 91.7922 90.8131 89.0436 93.0865 86.2136C95.1119 83.7041 96.8791 81.0261 98.5919 78.3126C98.5981 78.3032 98.6116 78.312 98.6116 78.312C98.6239 78.2932 98.6226 78.2656 98.6348 78.2468C98.9585 77.7212 99.2896 77.2139 99.6132 76.6883C101.683 73.3099 103.826 69.9664 105.759 66.4993C107.619 63.1449 109.735 59.9037 111.48 56.4878C113.109 53.278 113.678 49.6165 114.291 45.9445C114.955 41.9297 115.22 37.5747 116.689 33.8985C116.324 35.616 116.229 37.4832 115.986 39.1329C115.403 43.1732 114.964 47.2005 113.851 51.0427C111.648 58.6342 107.78 65.393 103.9 72.0507C100.026 78.699 94.9886 84.4274 90.0323 90.3291C87.5351 93.2943 84.3259 95.6877 81.1216 98.0441C77.9616 100.362 74.83 102.726 71.5945 104.982C69.7352 106.287 67.6755 107.394 65.6293 108.51C63.4873 109.684 61.123 110.753 58.4968 111.303C58.4428 111 58.3555 110.689 58.2287 110.378C61.2088 109.523 63.651 108.157 66.3996 107.003ZM56.1383 108.237C55.9658 108.62 54.9975 108.055 54.617 107.807C54.3724 107.647 54.2006 107.495 54.0581 107.268C53.9441 107.086 53.894 106.866 54.1706 107.006C54.1645 107.016 54.1583 107.025 54.1522 107.034C54.1287 107.367 54.5859 107.706 54.9352 107.854C55.0698 107.915 55.2377 107.984 55.3818 107.971C55.5124 107.949 55.4256 107.785 55.3182 107.742C55.2713 107.725 55.2516 107.725 55.2196 107.744C55.206 107.736 55.1863 107.736 55.1727 107.727C55.0789 107.693 54.9912 107.649 54.9036 107.605C54.769 107.544 54.6651 107.436 54.6068 107.318C54.655 107.363 54.7093 107.398 54.744 107.434C54.7847 107.461 54.8229 107.432 54.8018 107.405C54.7102 107.278 54.6518 107.16 54.5676 107.051C55.1616 107.358 55.6881 107.769 56.1383 108.237ZM52.0782 106.471C52.6107 106.457 53.1077 106.527 53.5679 106.653C53.3839 106.935 53.7518 107.47 54.1003 107.737C54.5725 108.113 56.0716 108.903 56.3115 108.417C57.3348 109.58 57.9389 111.06 58.006 112.323C57.6396 114.428 56.1884 116.147 53.4779 116.173C50.1561 116.215 47.8339 112.945 47.6186 110.513C47.3796 108 49.3704 106.553 52.0782 106.471ZM44.5843 107.354C45.8283 108.18 46.3328 109.366 46.991 110.466C47.0716 111.322 47.3432 112.182 47.7971 113.001C47.2255 112.749 46.5545 112.619 46.0413 112.485C45.4615 112.334 44.5213 112.082 43.846 112.137C44.4072 110.387 43.5971 107.768 41.5714 106.151C41.4206 106.026 41.2575 105.92 41.1006 105.804C42.312 106.085 43.3538 106.538 44.5843 107.354ZM40.5945 105.956C42.919 107.352 43.7168 109.99 43.3848 111.716C42.9011 114.119 39.8736 114.809 37.0133 112.809C34.9364 111.359 31.9471 108.042 32.9333 106.234C33.0354 106.167 33.1436 106.09 33.2457 106.023C33.6668 105.882 33.9704 105.625 34.1789 105.305C35.7697 104.441 38.4527 104.665 40.5945 105.956ZM33.7072 105.078C33.5929 105.164 33.4921 105.259 33.3988 105.372C33.3866 105.391 33.394 105.409 33.3953 105.437C33.1986 105.59 33.0081 105.734 32.7903 105.859C32.6093 105.929 32.4617 106.007 32.3548 106.111C32.1554 106.209 31.9425 106.297 31.7024 106.368C30.5916 106.675 28.8318 106.076 27.625 105.342C25.6722 104.148 25.2062 101.566 25.5961 100.226C26.1349 98.4211 28.7798 98.6736 30.8648 99.6058C33.272 100.668 34.5265 103.496 33.7072 105.078ZM22.39 92.5206C23.786 91.9849 25.8605 92.6958 27.2427 93.9328C28.5767 95.125 28.9632 97.1456 28.7542 98.4158C27.4999 98.2 26.3281 98.3328 25.6609 98.9691C25.1769 99.4436 24.9116 100.088 24.8474 100.809C24.8141 100.801 24.7672 100.784 24.7339 100.775C22.6697 100.554 21.6055 97.8495 21.2202 96.5397C20.7041 94.8365 20.7613 93.1456 22.39 92.5206ZM12.6918 93.6931C14.7322 92.3187 18.6173 94.8275 20.5585 96.6035C20.5857 96.6213 20.6128 96.639 20.6326 96.6385C20.6712 96.7574 20.6901 96.8769 20.7287 96.9959C20.9955 97.8935 21.6358 99.1688 22.5547 100.077C22.532 100.29 22.5895 100.528 22.5607 100.75C22.5393 100.991 22.4018 101.142 22.2445 101.294C19.9148 99.1039 15.729 97.3231 13.2917 97.9697C12.2547 96.3819 11.1361 94.7408 12.6918 93.6931Z" fill="#657577"/>
</svg>
