<svg width="140" height="182" viewBox="0 0 140 182" fill="none" xmlns="http://www.w3.org/2000/svg">
<g clip-path="url(#clip0_96_3)">
<rect width="140" height="182" fill="#E1ECFA"/>
<path d="M107 0H127V72L116.615 52.5517L107 72V0Z" fill="#212B27"/>
<rect y="164" width="140" height="18" fill="#2B1B10"/>
<path d="M7.71 56.7C7.66333 56.56 7.60667 56.4533 7.54 56.38C7.48 56.3 7.40667 56.2467 7.32 56.22C7.24 56.1867 7.13333 56.17 7 56.17H6.97V55.64H9.9V56.17H9.77C9.57 56.17 9.42 56.2 9.32 56.26C9.22 56.3133 9.17 56.4233 9.17 56.59C9.17 56.6433 9.17667 56.71 9.19 56.79C9.21 56.87 9.23 56.9467 9.25 57.02L9.62 58.32C9.66667 58.48 9.70667 58.6467 9.74 58.82C9.78 58.9867 9.81333 59.1467 9.84 59.3C9.87333 59.4467 9.9 59.5767 9.92 59.69H9.95C9.97 59.5767 9.99333 59.4633 10.02 59.35C10.0467 59.2367 10.08 59.1133 10.12 58.98C10.1667 58.8467 10.2167 58.7 10.27 58.54L11.29 55.69H11.94L12.92 58.64C12.96 58.76 12.9933 58.87 13.02 58.97C13.0533 59.07 13.0767 59.1633 13.09 59.25C13.11 59.3367 13.1267 59.4167 13.14 59.49C13.16 59.5633 13.1733 59.63 13.18 59.69H13.21C13.23 59.5767 13.25 59.4733 13.27 59.38C13.2967 59.28 13.3267 59.17 13.36 59.05C13.3933 58.93 13.4333 58.7867 13.48 58.62L13.92 57.16C13.9467 57.0733 13.9667 56.9833 13.98 56.89C14 56.79 14.01 56.7133 14.01 56.66C14.01 56.4867 13.9533 56.3633 13.84 56.29C13.7333 56.21 13.57 56.17 13.35 56.17H13.28V55.64H15.57V56.17H15.44C15.3133 56.17 15.2067 56.19 15.12 56.23C15.0333 56.27 14.9567 56.3467 14.89 56.46C14.83 56.5667 14.7633 56.73 14.69 56.95L13.4 61H12.32L11.23 57.68L10.08 61H8.99L7.71 56.7ZM15.7345 61V60.47H15.8545C15.9545 60.47 16.0578 60.4567 16.1645 60.43C16.2778 60.3967 16.3711 60.3333 16.4445 60.24C16.5245 60.1467 16.5645 60.0067 16.5645 59.82V56.78C16.5645 56.6 16.5245 56.4667 16.4445 56.38C16.3645 56.2933 16.2678 56.2367 16.1545 56.21C16.0478 56.1833 15.9478 56.17 15.8545 56.17H15.7345V55.64H18.0845V59.82C18.0845 60.0067 18.1211 60.1467 18.1945 60.24C18.2745 60.3333 18.3711 60.3967 18.4845 60.43C18.5978 60.4567 18.7011 60.47 18.7945 60.47H18.9145V61H15.7345ZM17.2745 54.74C17.0345 54.74 16.8311 54.6833 16.6645 54.57C16.5045 54.45 16.4245 54.2667 16.4245 54.02C16.4245 53.7667 16.5078 53.5833 16.6745 53.47C16.8411 53.3567 17.0445 53.3 17.2845 53.3C17.5111 53.3 17.7078 53.3567 17.8745 53.47C18.0478 53.5833 18.1345 53.7667 18.1345 54.02C18.1345 54.2667 18.0478 54.45 17.8745 54.57C17.7078 54.6833 17.5078 54.74 17.2745 54.74ZM21.5101 61.1C21.0634 61.1 20.7067 60.9833 20.4401 60.75C20.1734 60.5167 20.0401 60.1067 20.0401 59.52V56.32H19.2901V55.81C19.5034 55.81 19.6934 55.7667 19.8601 55.68C20.0334 55.5933 20.1701 55.4967 20.2701 55.39C20.3701 55.2833 20.4601 55.15 20.5401 54.99C20.6201 54.8233 20.6834 54.6267 20.7301 54.4H21.5601V55.64H22.8401V56.32H21.5601V59.42C21.5601 59.72 21.6101 59.94 21.7101 60.08C21.8167 60.22 21.9867 60.29 22.2201 60.29C22.3534 60.29 22.4767 60.2833 22.5901 60.27C22.7101 60.25 22.8234 60.2267 22.9301 60.2V60.85C22.8234 60.8967 22.6467 60.95 22.4001 61.01C22.1601 61.07 21.8634 61.1 21.5101 61.1ZM23.3328 61V60.47H23.3528C23.5061 60.47 23.6395 60.4533 23.7528 60.42C23.8728 60.3867 23.9661 60.3233 24.0328 60.23C24.1061 60.13 24.1428 59.98 24.1428 59.78L24.1328 54.54C24.1328 54.36 24.0928 54.2267 24.0128 54.14C23.9328 54.0533 23.8361 53.9967 23.7228 53.97C23.6161 53.9433 23.5161 53.93 23.4228 53.93H23.3028V53.4H25.6528V55.05C25.6528 55.2233 25.6461 55.41 25.6328 55.61C25.6195 55.8033 25.6061 55.97 25.5928 56.11C25.5795 56.25 25.5728 56.32 25.5728 56.32H25.6628C25.7961 56.0667 25.9395 55.8833 26.0928 55.77C26.2528 55.6567 26.4228 55.5867 26.6028 55.56C26.7895 55.5267 26.9861 55.51 27.1928 55.51C27.7061 55.51 28.1095 55.6633 28.4028 55.97C28.6961 56.2767 28.8428 56.7667 28.8428 57.44V59.76C28.8428 59.9667 28.8661 60.12 28.9128 60.22C28.9661 60.32 29.0428 60.3867 29.1428 60.42C29.2428 60.4533 29.3661 60.47 29.5128 60.47H29.5428V61H27.3228V57.71C27.3228 57.2767 27.2628 56.9433 27.1428 56.71C27.0228 56.4767 26.8161 56.36 26.5228 56.36C26.3028 56.36 26.1295 56.4333 26.0028 56.58C25.8761 56.72 25.7861 56.91 25.7328 57.15C25.6795 57.3833 25.6528 57.6367 25.6528 57.91L25.6628 59.82C25.6628 60.0067 25.6895 60.1467 25.7428 60.24C25.8028 60.3333 25.8861 60.3967 25.9928 60.43C26.0995 60.4567 26.2261 60.47 26.3728 60.47H26.4028V61H23.3328ZM35.0404 61.1C34.5937 61.1 34.2204 61.06 33.9204 60.98C33.6204 60.8933 33.3804 60.7833 33.2004 60.65C33.0204 60.51 32.8904 60.3567 32.8104 60.19C32.7371 60.0233 32.7004 59.86 32.7004 59.7C32.7004 59.4733 32.7537 59.2933 32.8604 59.16C32.9671 59.02 33.1071 58.92 33.2804 58.86C33.4537 58.8 33.6371 58.77 33.8304 58.77C33.8304 59.15 33.8871 59.47 34.0004 59.73C34.1204 59.9833 34.2837 60.1767 34.4904 60.31C34.6971 60.4367 34.9337 60.5 35.2004 60.5C35.5937 60.5 35.8971 60.3967 36.1104 60.19C36.3304 59.9833 36.4404 59.7267 36.4404 59.42C36.4404 59.1933 36.3771 59 36.2504 58.84C36.1304 58.6733 35.9471 58.5233 35.7004 58.39C35.4537 58.25 35.1437 58.1033 34.7704 57.95C34.4237 57.81 34.1304 57.6633 33.8904 57.51C33.6504 57.3567 33.4571 57.1933 33.3104 57.02C33.1637 56.84 33.0571 56.65 32.9904 56.45C32.9304 56.2433 32.9004 56.0167 32.9004 55.77C32.9004 55.3633 33.0071 55.01 33.2204 54.71C33.4337 54.41 33.7237 54.1767 34.0904 54.01C34.4637 53.8433 34.8837 53.76 35.3504 53.76C35.8437 53.76 36.2471 53.8133 36.5604 53.92C36.8737 54.02 37.1037 54.1567 37.2504 54.33C37.4037 54.5033 37.4804 54.7 37.4804 54.92C37.4804 55.1533 37.3771 55.35 37.1704 55.51C36.9704 55.67 36.6637 55.75 36.2504 55.75C36.2504 55.5633 36.2137 55.3633 36.1404 55.15C36.0737 54.9367 35.9637 54.7533 35.8104 54.6C35.6571 54.4467 35.4504 54.37 35.1904 54.37C35.0104 54.37 34.8437 54.4067 34.6904 54.48C34.5437 54.5467 34.4237 54.65 34.3304 54.79C34.2437 54.9233 34.2004 55.09 34.2004 55.29C34.2004 55.4767 34.2437 55.65 34.3304 55.81C34.4171 55.97 34.5804 56.13 34.8204 56.29C35.0604 56.4433 35.4037 56.61 35.8504 56.79C36.3104 56.9767 36.6804 57.17 36.9604 57.37C37.2404 57.57 37.4437 57.7967 37.5704 58.05C37.6971 58.2967 37.7604 58.5833 37.7604 58.91C37.7604 59.3367 37.6471 59.7167 37.4204 60.05C37.2004 60.3767 36.8871 60.6333 36.4804 60.82C36.0737 61.0067 35.5937 61.1 35.0404 61.1ZM39.6045 61V60.47H40.0245C40.1245 60.47 40.2111 60.4567 40.2845 60.43C40.3645 60.3967 40.4245 60.3333 40.4645 60.24C40.5111 60.1467 40.5345 60.0067 40.5345 59.82V54.47H39.7345C39.5345 54.47 39.3778 54.5 39.2645 54.56C39.1511 54.6133 39.0678 54.6933 39.0145 54.8C38.9611 54.9067 38.9245 55.0333 38.9045 55.18L38.8345 55.8H38.1645L38.2145 53.86H44.4445L44.4945 55.8H43.8245L43.7545 55.18C43.7411 55.0333 43.7045 54.9067 43.6445 54.8C43.5911 54.6933 43.5078 54.6133 43.3945 54.56C43.2811 54.5 43.1245 54.47 42.9245 54.47H42.1245V59.82C42.1245 60.0067 42.1445 60.1467 42.1845 60.24C42.2311 60.3333 42.2945 60.3967 42.3745 60.43C42.4545 60.4567 42.5411 60.47 42.6345 60.47H43.0545V61H39.6045ZM44.042 61V60.47H44.162C44.282 60.47 44.3886 60.45 44.482 60.41C44.5753 60.37 44.6586 60.3 44.732 60.2C44.812 60.0933 44.8886 59.94 44.962 59.74L47.132 53.86H48.502L50.592 59.75C50.6586 59.9367 50.7286 60.0833 50.802 60.19C50.882 60.29 50.9653 60.3633 51.052 60.41C51.1453 60.45 51.2453 60.47 51.352 60.47H51.532V61H48.232V60.47H48.622C48.722 60.47 48.8186 60.44 48.912 60.38C49.0053 60.32 49.052 60.22 49.052 60.08C49.052 60.0267 49.0453 59.9733 49.032 59.92C49.0253 59.8667 49.0153 59.8167 49.002 59.77C48.9886 59.7233 48.9753 59.6833 48.962 59.65L48.612 58.65H46.182L45.892 59.51C45.8786 59.5633 45.862 59.6233 45.842 59.69C45.822 59.7567 45.8053 59.8267 45.792 59.9C45.7786 59.9667 45.772 60.0267 45.772 60.08C45.772 60.2067 45.8186 60.3033 45.912 60.37C46.0053 60.4367 46.1086 60.47 46.222 60.47H46.642V61H44.042ZM46.392 58.04H48.412L47.882 56.4C47.8353 56.2467 47.7853 56.0833 47.732 55.91C47.6786 55.73 47.6286 55.55 47.582 55.37C47.5353 55.19 47.492 55.0233 47.452 54.87C47.4253 54.9767 47.392 55.0933 47.352 55.22C47.312 55.34 47.272 55.4667 47.232 55.6C47.192 55.7267 47.1486 55.8567 47.102 55.99C47.062 56.1167 47.022 56.2367 46.982 56.35L46.392 58.04ZM51.8113 61V60.47H52.2313C52.3246 60.47 52.4079 60.4567 52.4813 60.43C52.5613 60.4033 52.6246 60.3467 52.6713 60.26C52.7179 60.1733 52.7413 60.0433 52.7413 59.87V55C52.7413 54.82 52.7179 54.6867 52.6713 54.6C52.6246 54.5133 52.5613 54.4567 52.4813 54.43C52.4079 54.4033 52.3246 54.39 52.2313 54.39H51.8113V53.86H55.0313C55.6646 53.86 56.1813 53.93 56.5812 54.07C56.9879 54.21 57.2879 54.42 57.4813 54.7C57.6746 54.9733 57.7713 55.31 57.7713 55.71C57.7713 56.0633 57.7046 56.3633 57.5713 56.61C57.4379 56.8567 57.2679 57.06 57.0613 57.22C56.8546 57.38 56.6379 57.5067 56.4113 57.6L57.6013 59.65C57.6879 59.7967 57.7713 59.9233 57.8513 60.03C57.9313 60.13 58.0079 60.2133 58.0813 60.28C58.1613 60.3467 58.2446 60.3967 58.3313 60.43C58.4179 60.4567 58.5079 60.47 58.6013 60.47H58.6413V61H58.3113C58.0113 61 57.7479 60.99 57.5213 60.97C57.3013 60.9433 57.1079 60.9 56.9413 60.84C56.7813 60.7733 56.6379 60.68 56.5113 60.56C56.3846 60.44 56.2713 60.2867 56.1713 60.1L54.9813 57.9H54.3213V59.87C54.3213 60.0433 54.3446 60.1733 54.3913 60.26C54.4379 60.3467 54.5013 60.4033 54.5813 60.43C54.6613 60.4567 54.7446 60.47 54.8313 60.47H55.2613V61H51.8113ZM54.8813 57.32C55.1879 57.32 55.4279 57.2667 55.6013 57.16C55.7813 57.0467 55.9079 56.8833 55.9813 56.67C56.0546 56.45 56.0913 56.1767 56.0913 55.85C56.0913 55.51 56.0513 55.24 55.9713 55.04C55.8913 54.8333 55.7613 54.6833 55.5813 54.59C55.4013 54.4967 55.1613 54.45 54.8613 54.45H54.3213V57.32H54.8813ZM58.8816 61V60.47H59.2916C59.3916 60.47 59.4782 60.4567 59.5516 60.43C59.6316 60.3967 59.6949 60.3333 59.7416 60.24C59.7882 60.1467 59.8116 60.0067 59.8116 59.82V55.03C59.8116 54.85 59.7882 54.7167 59.7416 54.63C59.6949 54.5367 59.6316 54.4733 59.5516 54.44C59.4716 54.4067 59.3849 54.39 59.2916 54.39H58.8816V53.86H61.8016C62.7549 53.86 63.4682 54.0067 63.9416 54.3C64.4216 54.5933 64.6616 55.0533 64.6616 55.68C64.6616 55.9733 64.6082 56.22 64.5016 56.42C64.3949 56.6133 64.2482 56.7733 64.0616 56.9C63.8749 57.02 63.6549 57.12 63.4016 57.2V57.25C63.7082 57.3233 63.9782 57.44 64.2116 57.6C64.4449 57.76 64.6282 57.96 64.7616 58.2C64.8949 58.4333 64.9616 58.7133 64.9616 59.04C64.9616 59.6933 64.7216 60.1833 64.2416 60.51C63.7616 60.8367 63.0482 61 62.1016 61H58.8816ZM62.0516 60.39C62.4982 60.39 62.8149 60.2867 63.0016 60.08C63.1882 59.8733 63.2816 59.5167 63.2816 59.01C63.2816 58.6833 63.2449 58.4133 63.1716 58.2C63.0982 57.9867 62.9716 57.83 62.7916 57.73C62.6182 57.6233 62.3782 57.57 62.0716 57.57H61.3916V60.39H62.0516ZM61.7716 56.96C62.0849 56.96 62.3282 56.9167 62.5016 56.83C62.6749 56.7433 62.7982 56.6067 62.8716 56.42C62.9449 56.2267 62.9816 55.98 62.9816 55.68C62.9816 55.2267 62.8882 54.9133 62.7016 54.74C62.5216 54.56 62.2049 54.47 61.7516 54.47H61.3916V56.96H61.7716ZM69.1903 61.1C68.6103 61.1 68.1136 61.0233 67.7003 60.87C67.287 60.7167 66.9703 60.4733 66.7503 60.14C66.5303 59.8067 66.4203 59.3667 66.4203 58.82V55C66.4203 54.82 66.397 54.6867 66.3503 54.6C66.3036 54.5133 66.2403 54.4567 66.1603 54.43C66.087 54.4033 66.0036 54.39 65.9103 54.39H65.4803V53.86H68.9303V54.39H68.5103C68.417 54.39 68.3303 54.4067 68.2503 54.44C68.177 54.4667 68.117 54.5267 68.0703 54.62C68.0236 54.7067 68.0003 54.8467 68.0003 55.04V58.9C68.0003 59.2733 68.0603 59.57 68.1803 59.79C68.307 60.0033 68.4803 60.1567 68.7003 60.25C68.927 60.3433 69.1903 60.39 69.4903 60.39C69.7903 60.39 70.047 60.34 70.2603 60.24C70.4803 60.1333 70.647 59.9733 70.7603 59.76C70.8803 59.54 70.9403 59.26 70.9403 58.92V55C70.9403 54.82 70.917 54.6867 70.8703 54.6C70.8236 54.5133 70.7603 54.4567 70.6803 54.43C70.607 54.4033 70.5236 54.39 70.4303 54.39H70.0103V53.86H72.6303V54.39H72.2003C72.107 54.39 72.0203 54.4067 71.9403 54.44C71.867 54.4667 71.807 54.5267 71.7603 54.62C71.7136 54.7067 71.6903 54.8467 71.6903 55.04V58.94C71.6903 59.3867 71.6036 59.7733 71.4303 60.1C71.257 60.42 70.987 60.6667 70.6203 60.84C70.2536 61.0133 69.777 61.1 69.1903 61.1ZM76.801 61.1C76.0277 61.1 75.3843 60.9467 74.871 60.64C74.3577 60.3333 73.9743 59.9067 73.721 59.36C73.4677 58.8067 73.341 58.16 73.341 57.42C73.341 56.7 73.471 56.0667 73.731 55.52C73.991 54.9667 74.3777 54.5367 74.891 54.23C75.4043 53.9167 76.0377 53.76 76.791 53.76C77.3043 53.76 77.7277 53.8133 78.061 53.92C78.401 54.02 78.6543 54.1567 78.821 54.33C78.9877 54.5033 79.071 54.7 79.071 54.92C79.071 55.1667 78.9643 55.3733 78.751 55.54C78.5377 55.7067 78.2277 55.79 77.821 55.79C77.821 55.57 77.7877 55.3533 77.721 55.14C77.6543 54.9267 77.541 54.75 77.381 54.61C77.221 54.47 77.001 54.4 76.721 54.4C76.301 54.4 75.9643 54.52 75.711 54.76C75.4643 54.9933 75.2877 55.3333 75.181 55.78C75.0743 56.2267 75.021 56.7733 75.021 57.42C75.021 58.06 75.0843 58.5933 75.211 59.02C75.3443 59.4467 75.5577 59.7667 75.851 59.98C76.151 60.1933 76.5477 60.3 77.041 60.3C77.3677 60.3 77.6477 60.2533 77.881 60.16C78.1143 60.06 78.311 59.9367 78.471 59.79C78.6377 59.6433 78.7777 59.4967 78.891 59.35C78.9443 59.39 78.9843 59.45 79.011 59.53C79.0443 59.61 79.061 59.6933 79.061 59.78C79.061 59.92 79.021 60.0667 78.941 60.22C78.8677 60.3733 78.7443 60.5167 78.571 60.65C78.3977 60.7833 78.1643 60.8933 77.871 60.98C77.5843 61.06 77.2277 61.1 76.801 61.1ZM79.7507 61V60.47H80.1707C80.264 60.47 80.3474 60.4567 80.4207 60.43C80.5007 60.4033 80.564 60.3467 80.6107 60.26C80.6574 60.1733 80.6807 60.0433 80.6807 59.87V55C80.6807 54.82 80.6574 54.6867 80.6107 54.6C80.564 54.5133 80.5007 54.4567 80.4207 54.43C80.3474 54.4033 80.264 54.39 80.1707 54.39H79.7507V53.86H83.2007V54.39H82.7807C82.6874 54.39 82.6007 54.4067 82.5207 54.44C82.4407 54.4667 82.3774 54.5267 82.3307 54.62C82.284 54.7067 82.2607 54.8467 82.2607 55.04V57.37L83.8107 55.68C83.9574 55.5267 84.0707 55.3933 84.1507 55.28C84.2307 55.16 84.2874 55.0533 84.3207 54.96C84.3607 54.86 84.3807 54.7633 84.3807 54.67C84.3807 54.5967 84.3607 54.54 84.3207 54.5C84.2874 54.4533 84.2307 54.4233 84.1507 54.41C84.0707 54.39 83.9607 54.38 83.8207 54.38V53.86H86.5307V54.38C86.3507 54.38 86.1807 54.4167 86.0207 54.49C85.8607 54.5633 85.704 54.6667 85.5507 54.8C85.404 54.9333 85.2507 55.0867 85.0907 55.26L83.7707 56.71L85.6307 59.66C85.7307 59.8133 85.824 59.9433 85.9107 60.05C86.004 60.15 86.094 60.2333 86.1807 60.3C86.274 60.36 86.3674 60.4033 86.4607 60.43C86.5607 60.4567 86.664 60.47 86.7707 60.47H86.8107V61H86.2707C85.8907 61 85.5774 60.9833 85.3307 60.95C85.084 60.91 84.8807 60.8533 84.7207 60.78C84.5674 60.7 84.4407 60.6033 84.3407 60.49C84.2407 60.3767 84.144 60.24 84.0507 60.08L82.7007 57.78L82.2607 58.13V59.82C82.2607 60.0067 82.284 60.1467 82.3307 60.24C82.3774 60.3333 82.4407 60.3967 82.5207 60.43C82.6007 60.4567 82.6874 60.47 82.7807 60.47H83.2007V61H79.7507ZM89.4545 61.1C89.0078 61.1 88.6345 61.06 88.3345 60.98C88.0345 60.8933 87.7945 60.7833 87.6145 60.65C87.4345 60.51 87.3045 60.3567 87.2245 60.19C87.1511 60.0233 87.1145 59.86 87.1145 59.7C87.1145 59.4733 87.1678 59.2933 87.2745 59.16C87.3811 59.02 87.5211 58.92 87.6945 58.86C87.8678 58.8 88.0511 58.77 88.2445 58.77C88.2445 59.15 88.3011 59.47 88.4145 59.73C88.5345 59.9833 88.6978 60.1767 88.9045 60.31C89.1111 60.4367 89.3478 60.5 89.6145 60.5C90.0078 60.5 90.3111 60.3967 90.5245 60.19C90.7445 59.9833 90.8545 59.7267 90.8545 59.42C90.8545 59.1933 90.7911 59 90.6645 58.84C90.5445 58.6733 90.3611 58.5233 90.1145 58.39C89.8678 58.25 89.5578 58.1033 89.1845 57.95C88.8378 57.81 88.5445 57.6633 88.3045 57.51C88.0645 57.3567 87.8711 57.1933 87.7245 57.02C87.5778 56.84 87.4711 56.65 87.4045 56.45C87.3445 56.2433 87.3145 56.0167 87.3145 55.77C87.3145 55.3633 87.4211 55.01 87.6345 54.71C87.8478 54.41 88.1378 54.1767 88.5045 54.01C88.8778 53.8433 89.2978 53.76 89.7645 53.76C90.2578 53.76 90.6611 53.8133 90.9745 53.92C91.2878 54.02 91.5178 54.1567 91.6645 54.33C91.8178 54.5033 91.8945 54.7 91.8945 54.92C91.8945 55.1533 91.7911 55.35 91.5845 55.51C91.3845 55.67 91.0778 55.75 90.6645 55.75C90.6645 55.5633 90.6278 55.3633 90.5545 55.15C90.4878 54.9367 90.3778 54.7533 90.2245 54.6C90.0711 54.4467 89.8645 54.37 89.6045 54.37C89.4245 54.37 89.2578 54.4067 89.1045 54.48C88.9578 54.5467 88.8378 54.65 88.7445 54.79C88.6578 54.9233 88.6145 55.09 88.6145 55.29C88.6145 55.4767 88.6578 55.65 88.7445 55.81C88.8311 55.97 88.9945 56.13 89.2345 56.29C89.4745 56.4433 89.8178 56.61 90.2645 56.79C90.7245 56.9767 91.0945 57.17 91.3745 57.37C91.6545 57.57 91.8578 57.7967 91.9845 58.05C92.1111 58.2967 92.1745 58.5833 92.1745 58.91C92.1745 59.3367 92.0611 59.7167 91.8345 60.05C91.6145 60.3767 91.3011 60.6333 90.8945 60.82C90.4878 61.0067 90.0078 61.1 89.4545 61.1Z" fill="#1E3932"/>
<path d="M10.296 22V21.258H10.954C11.1033 21.258 11.2387 21.244 11.36 21.216C11.4813 21.1787 11.5793 21.0993 11.654 20.978C11.7287 20.8567 11.766 20.6653 11.766 20.404V18.458L9.176 13.488C9.08267 13.3013 8.994 13.1567 8.91 13.054C8.826 12.942 8.728 12.8627 8.616 12.816C8.51333 12.7693 8.36867 12.746 8.182 12.746H8V12.004H12.69V12.746H12.452C12.172 12.746 11.962 12.8067 11.822 12.928C11.682 13.04 11.612 13.1893 11.612 13.376C11.612 13.4973 11.6307 13.628 11.668 13.768C11.7147 13.8987 11.766 14.0247 11.822 14.146L12.858 16.204C12.9327 16.3533 12.998 16.4933 13.054 16.624C13.1193 16.7547 13.1753 16.8807 13.222 17.002C13.2687 17.114 13.3107 17.226 13.348 17.338C13.3947 17.4407 13.4367 17.548 13.474 17.66C13.5767 17.4173 13.6887 17.1513 13.81 16.862C13.9407 16.5727 14.0807 16.2693 14.23 15.952L15.042 14.272C15.1447 14.0667 15.21 13.894 15.238 13.754C15.266 13.614 15.28 13.5067 15.28 13.432C15.28 13.1893 15.2007 13.0167 15.042 12.914C14.8927 12.802 14.664 12.746 14.356 12.746H14.034V12.004H17.702V12.746H17.436C17.2773 12.746 17.1467 12.7787 17.044 12.844C16.9413 12.9 16.8387 13.0073 16.736 13.166C16.6427 13.3247 16.5213 13.5487 16.372 13.838L13.992 18.472V20.39C13.992 20.6607 14.0247 20.8567 14.09 20.978C14.1647 21.0993 14.2627 21.1787 14.384 21.216C14.5053 21.244 14.636 21.258 14.776 21.258H15.462V22H10.296ZM20.9927 22.14C19.8727 22.14 18.9907 21.818 18.3467 21.174C17.7027 20.5207 17.3807 19.536 17.3807 18.22C17.3807 16.904 17.6887 15.924 18.3047 15.28C18.9207 14.636 19.8307 14.314 21.0347 14.314C22.1547 14.314 23.0367 14.636 23.6807 15.28C24.3247 15.924 24.6467 16.904 24.6467 18.22C24.6467 19.536 24.334 20.5207 23.7087 21.174C23.0927 21.818 22.1873 22.14 20.9927 22.14ZM21.0207 21.258C21.3847 21.258 21.6693 21.146 21.8747 20.922C22.0893 20.6887 22.2433 20.348 22.3367 19.9C22.43 19.4427 22.4767 18.8827 22.4767 18.22C22.4767 17.548 22.43 16.9927 22.3367 16.554C22.2433 16.106 22.0893 15.77 21.8747 15.546C21.66 15.322 21.3753 15.21 21.0207 15.21C20.6567 15.21 20.3673 15.322 20.1527 15.546C19.938 15.77 19.784 16.106 19.6907 16.554C19.5973 16.9927 19.5507 17.548 19.5507 18.22C19.5507 18.8827 19.5973 19.4427 19.6907 19.9C19.784 20.348 19.938 20.6887 20.1527 20.922C20.3767 21.146 20.666 21.258 21.0207 21.258ZM28.9206 22.14C28.1926 22.14 27.6326 21.916 27.2406 21.468C26.8486 21.0107 26.6526 20.3107 26.6526 19.368V16.232C26.6526 15.9613 26.6199 15.756 26.5546 15.616C26.4893 15.4667 26.3866 15.3687 26.2466 15.322C26.1066 15.266 25.9246 15.238 25.7006 15.238H25.6726V14.496H28.7806V18.976C28.7806 19.3773 28.8086 19.7273 28.8646 20.026C28.9299 20.3153 29.0419 20.544 29.2006 20.712C29.3593 20.8707 29.5739 20.95 29.8446 20.95C30.1433 20.95 30.3859 20.866 30.5726 20.698C30.7593 20.5207 30.8946 20.2733 30.9786 19.956C31.0719 19.6293 31.1186 19.2513 31.1186 18.822V16.134C31.1186 15.8633 31.0719 15.6673 30.9786 15.546C30.8853 15.4153 30.7639 15.3313 30.6146 15.294C30.4653 15.2567 30.2973 15.238 30.1106 15.238H30.0686V14.496H33.2466V20.376C33.2466 20.6467 33.2839 20.8473 33.3586 20.978C33.4426 21.0993 33.5546 21.1787 33.6946 21.216C33.8439 21.244 34.0073 21.258 34.1846 21.258H34.2966V22H31.5106L31.2026 21.006H31.1326C30.9926 21.2487 30.8386 21.4447 30.6706 21.594C30.5119 21.7433 30.3393 21.86 30.1526 21.944C29.9659 22.0187 29.7699 22.07 29.5646 22.098C29.3593 22.126 29.1446 22.14 28.9206 22.14ZM34.9265 22V21.258H34.9685C35.1832 21.258 35.3698 21.2347 35.5285 21.188C35.6872 21.1413 35.8132 21.048 35.9065 20.908C35.9998 20.7587 36.0465 20.5393 36.0465 20.25V16.19C36.0465 15.91 36.0045 15.7047 35.9205 15.574C35.8365 15.434 35.7198 15.3453 35.5705 15.308C35.4212 15.2613 35.2438 15.238 35.0385 15.238H34.9965V14.496H37.8245L38.1045 15.588H38.1745C38.2958 15.308 38.4358 15.0747 38.5945 14.888C38.7532 14.7013 38.9538 14.5613 39.1965 14.468C39.4485 14.3747 39.7658 14.328 40.1485 14.328C40.6992 14.328 41.1052 14.426 41.3665 14.622C41.6278 14.818 41.7585 15.098 41.7585 15.462C41.7585 15.8913 41.5998 16.2273 41.2825 16.47C40.9745 16.7033 40.5405 16.82 39.9805 16.82C39.9805 16.5587 39.9572 16.344 39.9105 16.176C39.8732 16.008 39.8032 15.882 39.7005 15.798C39.6072 15.7047 39.4718 15.658 39.2945 15.658C39.0518 15.658 38.8558 15.742 38.7065 15.91C38.5572 16.078 38.4452 16.288 38.3705 16.54C38.2958 16.7827 38.2445 17.03 38.2165 17.282C38.1885 17.534 38.1745 17.7393 38.1745 17.898V20.32C38.1745 20.5907 38.2165 20.796 38.3005 20.936C38.3845 21.0667 38.5012 21.1553 38.6505 21.202C38.7998 21.2393 38.9678 21.258 39.1545 21.258H39.6025V22H34.9265ZM13.516 42.14C12.452 42.14 11.57 41.9253 10.87 41.496C10.17 41.0667 9.64267 40.4647 9.288 39.69C8.94267 38.9153 8.77 38.01 8.77 36.974C8.77 35.938 8.94267 35.0373 9.288 34.272C9.64267 33.5067 10.17 32.914 10.87 32.494C11.5793 32.0647 12.466 31.85 13.53 31.85C14.538 31.85 15.392 32.0647 16.092 32.494C16.8013 32.914 17.338 33.5113 17.702 34.286C18.066 35.0513 18.248 35.952 18.248 36.988C18.248 38.024 18.0613 38.9293 17.688 39.704C17.324 40.4693 16.792 41.0667 16.092 41.496C15.392 41.9253 14.5333 42.14 13.516 42.14ZM13.516 41.23C13.9547 41.23 14.3233 41.1367 14.622 40.95C14.93 40.754 15.1773 40.474 15.364 40.11C15.5507 39.746 15.686 39.3027 15.77 38.78C15.854 38.2573 15.896 37.66 15.896 36.988C15.896 36.316 15.854 35.7187 15.77 35.196C15.686 34.6733 15.5507 34.23 15.364 33.866C15.1773 33.502 14.9347 33.2267 14.636 33.04C14.3373 32.8533 13.9687 32.76 13.53 32.76C13.0913 32.76 12.718 32.8533 12.41 33.04C12.102 33.2267 11.8547 33.502 11.668 33.866C11.4813 34.23 11.3413 34.6733 11.248 35.196C11.164 35.7187 11.122 36.316 11.122 36.988C11.122 37.66 11.164 38.2573 11.248 38.78C11.3413 39.3027 11.4813 39.746 11.668 40.11C11.8547 40.474 12.102 40.754 12.41 40.95C12.718 41.1367 13.0867 41.23 13.516 41.23ZM20.0135 35.98C19.9482 35.784 19.8689 35.6347 19.7755 35.532C19.6915 35.42 19.5889 35.3453 19.4675 35.308C19.3555 35.2613 19.2062 35.238 19.0195 35.238H18.9775V34.496H23.0795V35.238H22.8975C22.6175 35.238 22.4075 35.28 22.2675 35.364C22.1275 35.4387 22.0575 35.5927 22.0575 35.826C22.0575 35.9007 22.0669 35.994 22.0855 36.106C22.1135 36.218 22.1415 36.3253 22.1695 36.428L22.6875 38.248C22.7529 38.472 22.8089 38.7053 22.8555 38.948C22.9115 39.1813 22.9582 39.4053 22.9955 39.62C23.0422 39.8253 23.0795 40.0073 23.1075 40.166H23.1495C23.1775 40.0073 23.2102 39.8487 23.2475 39.69C23.2849 39.5313 23.3315 39.3587 23.3875 39.172C23.4529 38.9853 23.5229 38.78 23.5975 38.556L25.0255 34.566H25.9355L27.3075 38.696C27.3635 38.864 27.4102 39.018 27.4475 39.158C27.4942 39.298 27.5269 39.4287 27.5455 39.55C27.5735 39.6713 27.5969 39.7833 27.6155 39.886C27.6435 39.9887 27.6622 40.082 27.6715 40.166H27.7135C27.7415 40.0073 27.7695 39.8627 27.7975 39.732C27.8349 39.592 27.8769 39.438 27.9235 39.27C27.9702 39.102 28.0262 38.9013 28.0915 38.668L28.7075 36.624C28.7449 36.5027 28.7729 36.3767 28.7915 36.246C28.8195 36.106 28.8335 35.9987 28.8335 35.924C28.8335 35.6813 28.7542 35.5087 28.5955 35.406C28.4462 35.294 28.2175 35.238 27.9095 35.238H27.8115V34.496H31.0175V35.238H30.8355C30.6582 35.238 30.5089 35.266 30.3875 35.322C30.2662 35.378 30.1589 35.4853 30.0655 35.644C29.9815 35.7933 29.8882 36.022 29.7855 36.33L27.9795 42H26.4675L24.9415 37.352L23.3315 42H21.8055L20.0135 35.98ZM31.2898 42V41.258H31.3178C31.5324 41.258 31.7191 41.2347 31.8778 41.188C32.0458 41.1413 32.1764 41.0527 32.2698 40.922C32.3631 40.782 32.4098 40.572 32.4098 40.292V36.148C32.4098 35.8867 32.3678 35.6907 32.2838 35.56C32.1998 35.4293 32.0831 35.3453 31.9338 35.308C31.7844 35.2613 31.6071 35.238 31.4018 35.238H31.3598V34.496H34.2998L34.4818 35.49H34.5518C34.7384 35.1353 34.9391 34.8787 35.1538 34.72C35.3778 34.552 35.6158 34.4447 35.8678 34.398C36.1291 34.342 36.4044 34.314 36.6938 34.314C37.4124 34.314 37.9771 34.5287 38.3878 34.958C38.7984 35.3873 39.0038 36.0733 39.0038 37.016V40.264C39.0038 40.5533 39.0364 40.768 39.1018 40.908C39.1764 41.048 39.2838 41.1413 39.4238 41.188C39.5638 41.2347 39.7364 41.258 39.9418 41.258H39.9838V42H36.8758V37.394C36.8758 36.7873 36.7918 36.3207 36.6238 35.994C36.4558 35.6673 36.1664 35.504 35.7558 35.504C35.4478 35.504 35.2051 35.6067 35.0278 35.812C34.8504 36.008 34.7244 36.274 34.6498 36.61C34.5751 36.9367 34.5378 37.2913 34.5378 37.674V40.348C34.5378 40.6093 34.5798 40.8053 34.6638 40.936C34.7478 41.0667 34.8644 41.1553 35.0138 41.202C35.1631 41.2393 35.3404 41.258 35.5458 41.258H35.5878V42H31.2898ZM49.5984 42.14C48.5157 42.14 47.615 41.9253 46.8964 41.496C46.1777 41.0667 45.641 40.4693 45.2864 39.704C44.9317 38.9293 44.7544 38.024 44.7544 36.988C44.7544 35.98 44.9364 35.0933 45.3004 34.328C45.6644 33.5533 46.2057 32.9513 46.9244 32.522C47.643 32.0833 48.5297 31.864 49.5844 31.864C50.303 31.864 50.8957 31.9387 51.3624 32.088C51.8384 32.228 52.193 32.4193 52.4264 32.662C52.6597 32.9047 52.7764 33.18 52.7764 33.488C52.7764 33.8333 52.627 34.1227 52.3284 34.356C52.0297 34.5893 51.5957 34.706 51.0264 34.706C51.0264 34.398 50.9797 34.0947 50.8864 33.796C50.793 33.4973 50.6344 33.25 50.4104 33.054C50.1864 32.858 49.8784 32.76 49.4864 32.76C48.8984 32.76 48.427 32.928 48.0724 33.264C47.727 33.5907 47.4797 34.0667 47.3304 34.692C47.181 35.3173 47.1064 36.0827 47.1064 36.988C47.1064 37.884 47.195 38.6307 47.3724 39.228C47.559 39.8253 47.8577 40.2733 48.2684 40.572C48.6884 40.8707 49.2437 41.02 49.9344 41.02C50.3917 41.02 50.7837 40.9547 51.1104 40.824C51.437 40.684 51.7124 40.5113 51.9364 40.306C52.1697 40.1007 52.3657 39.8953 52.5244 39.69C52.599 39.746 52.655 39.83 52.6924 39.942C52.739 40.054 52.7624 40.1707 52.7624 40.292C52.7624 40.488 52.7064 40.6933 52.5944 40.908C52.4917 41.1227 52.319 41.3233 52.0764 41.51C51.8337 41.6967 51.507 41.8507 51.0964 41.972C50.695 42.084 50.1957 42.14 49.5984 42.14ZM57.6059 42.14C56.4859 42.14 55.6039 41.818 54.9599 41.174C54.3159 40.5207 53.9939 39.536 53.9939 38.22C53.9939 36.904 54.3019 35.924 54.9179 35.28C55.5339 34.636 56.4439 34.314 57.6479 34.314C58.7679 34.314 59.6499 34.636 60.2939 35.28C60.9379 35.924 61.2599 36.904 61.2599 38.22C61.2599 39.536 60.9473 40.5207 60.3219 41.174C59.7059 41.818 58.8006 42.14 57.6059 42.14ZM57.6339 41.258C57.9979 41.258 58.2826 41.146 58.4879 40.922C58.7026 40.6887 58.8566 40.348 58.9499 39.9C59.0433 39.4427 59.0899 38.8827 59.0899 38.22C59.0899 37.548 59.0433 36.9927 58.9499 36.554C58.8566 36.106 58.7026 35.77 58.4879 35.546C58.2733 35.322 57.9886 35.21 57.6339 35.21C57.2699 35.21 56.9806 35.322 56.7659 35.546C56.5513 35.77 56.3973 36.106 56.3039 36.554C56.2106 36.9927 56.1639 37.548 56.1639 38.22C56.1639 38.8827 56.2106 39.4427 56.3039 39.9C56.3973 40.348 56.5513 40.6887 56.7659 40.922C56.9899 41.146 57.2793 41.258 57.6339 41.258ZM62.1879 42V41.258H62.4959C62.6359 41.258 62.7805 41.2393 62.9299 41.202C63.0885 41.1553 63.2192 41.0667 63.3219 40.936C63.4339 40.8053 63.4899 40.6093 63.4899 40.348V35.448H62.2439V34.496H63.4899V34.384C63.4899 33.3853 63.7232 32.634 64.1899 32.13C64.6565 31.626 65.3752 31.374 66.3459 31.374C66.9339 31.374 67.3772 31.4347 67.6759 31.556C67.9745 31.668 68.1752 31.8033 68.2779 31.962C68.3899 32.1207 68.4459 32.2747 68.4459 32.424C68.4459 32.7413 68.3152 32.97 68.0539 33.11C67.8019 33.2407 67.4379 33.306 66.9619 33.306C66.9619 33.1567 66.9432 32.9933 66.9059 32.816C66.8685 32.6387 66.8032 32.4893 66.7099 32.368C66.6259 32.2373 66.4999 32.172 66.3319 32.172C66.1919 32.172 66.0659 32.228 65.9539 32.34C65.8512 32.452 65.7672 32.662 65.7019 32.97C65.6459 33.2687 65.6179 33.7073 65.6179 34.286V34.496H69.0479V35.448H65.6179V40.348C65.6179 40.6093 65.6692 40.8053 65.7719 40.936C65.8839 41.0667 66.0192 41.1553 66.1779 41.202C66.3365 41.2393 66.4812 41.258 66.6119 41.258H66.9899V42H62.1879ZM67.2979 42V41.258H67.4659C67.6059 41.258 67.7505 41.2393 67.8999 41.202C68.0585 41.1553 68.1892 41.0667 68.2919 40.936C68.4039 40.8053 68.4599 40.6093 68.4599 40.348V35.448H67.6479V34.496H68.4599V34.37C68.4599 33.7913 68.5625 33.264 68.7679 32.788C68.9732 32.312 69.2905 31.934 69.7199 31.654C70.1585 31.374 70.7232 31.234 71.4139 31.234C71.9832 31.234 72.4312 31.2807 72.7579 31.374C73.0845 31.458 73.3132 31.5793 73.4439 31.738C73.5839 31.8873 73.6539 32.06 73.6539 32.256C73.6539 32.4613 73.5885 32.634 73.4579 32.774C73.3365 32.9047 73.1452 33.0027 72.8839 33.068C72.6319 33.1333 72.3145 33.166 71.9319 33.166C71.9319 33.0167 71.9085 32.8533 71.8619 32.676C71.8245 32.4987 71.7592 32.3493 71.6659 32.228C71.5819 32.0973 71.4652 32.032 71.3159 32.032C71.0452 32.032 70.8539 32.228 70.7419 32.62C70.6392 33.0027 70.5879 33.502 70.5879 34.118V34.496H72.5199V35.448H70.5879V40.348C70.5879 40.6093 70.6392 40.8053 70.7419 40.936C70.8539 41.0667 70.9892 41.1553 71.1479 41.202C71.3065 41.2393 71.4512 41.258 71.5819 41.258H72.2399V42H67.2979ZM76.8699 42.14C75.6846 42.14 74.7839 41.804 74.1679 41.132C73.5519 40.4507 73.2439 39.5033 73.2439 38.29C73.2439 36.974 73.5473 35.9847 74.1539 35.322C74.7606 34.65 75.6146 34.314 76.7159 34.314C77.7333 34.314 78.5313 34.5987 79.1099 35.168C79.6979 35.7373 79.9919 36.5773 79.9919 37.688V38.402H75.3999C75.4186 39.0273 75.5026 39.5407 75.6519 39.942C75.8013 40.334 76.0113 40.6233 76.2819 40.81C76.5619 40.9967 76.8933 41.09 77.2759 41.09C77.6026 41.09 77.8919 41.0433 78.1439 40.95C78.4053 40.8473 78.6293 40.712 78.8159 40.544C79.0026 40.3667 79.1473 40.1707 79.2499 39.956C79.3806 40.0213 79.4739 40.1147 79.5299 40.236C79.5953 40.348 79.6279 40.4833 79.6279 40.642C79.6279 40.9033 79.5299 41.1507 79.3339 41.384C79.1379 41.608 78.8346 41.79 78.4239 41.93C78.0226 42.07 77.5046 42.14 76.8699 42.14ZM77.8499 37.506C77.8499 37.03 77.8126 36.624 77.7379 36.288C77.6633 35.9427 77.5466 35.6813 77.3879 35.504C77.2293 35.3173 77.0146 35.224 76.7439 35.224C76.4826 35.224 76.2539 35.3127 76.0579 35.49C75.8713 35.658 75.7219 35.9147 75.6099 36.26C75.5073 36.596 75.4466 37.0113 75.4279 37.506H77.8499ZM84.868 42.14C83.6827 42.14 82.782 41.804 82.166 41.132C81.55 40.4507 81.242 39.5033 81.242 38.29C81.242 36.974 81.5453 35.9847 82.152 35.322C82.7587 34.65 83.6127 34.314 84.714 34.314C85.7313 34.314 86.5293 34.5987 87.108 35.168C87.696 35.7373 87.99 36.5773 87.99 37.688V38.402H83.398C83.4167 39.0273 83.5007 39.5407 83.65 39.942C83.7993 40.334 84.0093 40.6233 84.28 40.81C84.56 40.9967 84.8913 41.09 85.274 41.09C85.6007 41.09 85.89 41.0433 86.142 40.95C86.4033 40.8473 86.6273 40.712 86.814 40.544C87.0007 40.3667 87.1453 40.1707 87.248 39.956C87.3787 40.0213 87.472 40.1147 87.528 40.236C87.5933 40.348 87.626 40.4833 87.626 40.642C87.626 40.9033 87.528 41.1507 87.332 41.384C87.136 41.608 86.8327 41.79 86.422 41.93C86.0207 42.07 85.5027 42.14 84.868 42.14ZM85.848 37.506C85.848 37.03 85.8107 36.624 85.736 36.288C85.6613 35.9427 85.5447 35.6813 85.386 35.504C85.2273 35.3173 85.0127 35.224 84.742 35.224C84.4807 35.224 84.252 35.3127 84.056 35.49C83.8693 35.658 83.72 35.9147 83.608 36.26C83.5053 36.596 83.4447 37.0113 83.426 37.506H85.848Z" fill="#333333"/>
<g clip-path="url(#clip1_96_3)">
<path d="M106.235 108.659C109.001 108.659 111.244 106.428 111.244 103.676C111.244 100.924 109.001 98.6934 106.235 98.6934C103.468 98.6934 101.225 100.924 101.225 103.676C101.225 106.428 103.468 108.659 106.235 108.659Z" fill="#FF6884"/>
<path d="M85.452 163.318C85.4332 163.535 85.434 163.737 85.459 163.935L97.5147 163.499C97.6156 163.297 97.6999 163.088 97.7717 162.872C99.0763 158.989 96.3702 152.702 99.0259 143.138C100.998 136.042 105.015 130.402 106.887 127.775C109.189 124.543 111.825 121.542 114.824 116.792C115.474 115.764 116.141 114.652 116.827 113.439C117.058 113.033 119.709 108.329 119.442 108.195C119.318 108.133 118.603 109.09 118.361 109.411C116.226 112.254 114.968 113.51 113.176 115.564C112.088 116.81 110.806 118.346 109.015 120.709C104.423 126.764 102.128 129.789 101.381 132.019C101.184 132.615 100.135 135.838 98.0676 139.863C97.0116 141.917 96.4835 142.944 96.1673 142.874C95.2719 142.675 96.0972 134.3 99.4807 125.836C100.06 124.395 100.499 123.471 101.332 121.723C102.687 118.871 110.229 103.022 115.868 93.4948C116.575 92.2959 117.255 91.201 117.884 90.2404C118.006 90.0595 118.124 89.8823 118.239 89.7127C119.033 88.5438 119.74 87.6171 120.336 87.0145C120.651 86.6941 121.449 85.7899 123.048 83.974C123.683 83.2522 124.148 82.7168 124.46 82.3267C124.506 82.2698 124.548 82.2131 124.583 82.1641C124.96 81.6797 125.063 81.4479 124.965 81.3301C124.823 81.1623 124.312 81.2801 123.755 81.4805C123.695 81.501 123.631 81.5254 123.571 81.5497C122.967 81.7775 122.358 82.068 122.155 82.1673C120.291 83.0623 118.501 84.6092 116.861 86.4303C116.252 87.1033 115.67 87.8122 115.108 88.5387C113.3 90.8844 111.745 93.4232 110.576 95.5068C109.144 98.0743 108.3 99.9548 108.3 99.9548C104.373 108.714 100.029 118.728 99.7731 118.653C99.4929 118.571 104.25 106.13 105.499 99.4199C105.916 97.1723 105.939 95.5679 105.247 95.284C105.222 95.2738 105.197 95.2637 105.168 95.2574C105.061 95.2281 104.964 95.2353 104.911 95.2409C104.911 95.2409 104.279 95.1902 103.623 95.3427C102.805 95.5341 101.959 97.6427 101.174 100.588C99.1309 108.179 97.4505 121.312 97.4505 121.312C95.7702 134.448 92.8104 145.136 91.9931 145.048C91.5394 144.998 92.04 141.696 91.1972 136.25C90.6054 132.431 90.1314 132.566 88.2899 125.689C85.3672 114.779 83.9059 109.326 83.9046 109.297C83.9065 109.065 83.9184 108.597 83.8198 108.115C83.7153 107.593 83.4839 107.05 82.9788 106.755C82.2105 106.305 81.0177 106.554 80.5425 106.844C80.1624 107.078 79.9813 107.489 79.9623 108.071C79.8557 111.731 86.1222 122.104 88.7609 136.338C90.0751 143.429 90.7952 147.298 89.4755 152.495C88.1701 157.647 85.6459 160.99 85.452 163.318L85.452 163.318Z" fill="#1E3932"/>
<path d="M75.9481 137.22C75.9481 137.22 75.8545 155.798 68.8875 152.675C65.2645 151.051 59.917 144.202 59.917 144.202L62.1264 142.098L68.1579 147.113L69.2939 137.139L75.9481 137.22H75.9481Z" fill="#FFB6B6"/>
<path d="M78.8788 126.889C78.8788 126.889 74.2631 125.589 71.7708 129.159C69.2786 132.729 68.0063 146.009 68.0063 146.009L74.5942 149.286L78.8788 126.889Z" fill="#E6E6E6"/>
<path d="M83.4842 105.919C82.057 106.383 80.3752 103.353 79.6781 104.588C78.9809 105.823 79.275 111.31 79.6672 112.678C79.8622 113.358 80.1897 114.005 80.3787 114.686C80.5677 115.367 80.6051 116.122 80.2396 116.726C79.6035 117.777 78.0396 117.992 77.1389 118.86C76.0899 119.871 76.1821 121.478 76.3626 122.889C76.5182 124.106 76.6948 125.336 77.1913 126.48C77.6877 127.624 78.5447 128.69 79.7446 129.237C81.2722 129.933 83.0669 129.693 84.705 129.359C86.28 129.037 87.8514 128.638 89.262 127.933C90.6725 127.228 91.9233 126.191 92.5969 124.847C93.4419 123.161 93.2997 121.142 92.6097 119.362C91.9197 117.581 90.7264 115.997 89.4837 114.483C87.3907 111.933 85.1159 109.507 82.6795 107.228" fill="#111016"/>
<path d="M103.918 136.768L106.847 147.782L113.948 168.72L110.25 170.808L100.953 149.973L98.604 138.857L103.918 136.768Z" fill="#FFB6B6"/>
<path d="M89.804 121.069L81.4908 120.757L80.7065 123.722L73.9668 127.599L74.6677 151.727L95.5292 153.6L98.5347 137.178L99.2937 127.856L90.5099 124.112L89.804 121.069Z" fill="#E6E6E6"/>
<path d="M94.0947 129.463C94.0947 129.463 97.8812 125.759 100.759 128.339C103.636 130.919 107.084 148.014 107.084 148.014L100.996 150.994L94.0947 129.463V129.463Z" fill="#E6E6E6"/>
<path d="M94.7181 131.638C94.7181 131.638 91.5325 131.514 88.926 132.137C86.3196 132.761 77.7531 130.949 77.7531 130.949C79.5327 136.167 79.5309 142.062 76.5455 147.662C72.604 151.828 77.0312 159.732 70.2466 163.935H98.5063L97.4693 153.211L95.8765 149.221C95.8765 149.221 96.7453 148.473 96.4557 148.223C96.1661 147.974 92.5461 135.878 94.7181 131.638Z" fill="#FFCE63"/>
<g filter="url(#filter0_d_96_3)">
<path d="M79.5299 123.488L78.1948 130.509L78.9676 133.785H80.3141L79.6867 130.353L80.6278 123.02L79.5299 123.488Z" fill="#3F3D56"/>
</g>
<path d="M90.6665 123.332L91.7317 136.047L93.1762 135.969L92.235 123.956L90.6665 123.332Z" fill="#3F3D56"/>
<path d="M96.4891 153.756C96.4891 153.756 88.0783 156.018 81.0199 155.238L74.4867 150.988L74.1968 151.727C74.1968 151.727 79.8626 158.793 84.0881 158.38C88.3136 157.968 96.9405 155.472 96.9405 154.848C96.9405 154.224 96.4891 153.756 96.4891 153.756Z" fill="#3F3D56"/>
<path d="M61.6345 144.05C62.5691 143.338 62.4278 141.593 61.3187 140.152C60.2097 138.711 58.5529 138.12 57.6182 138.831C56.6835 139.543 56.8249 141.288 57.9339 142.729C59.043 144.171 60.6998 144.762 61.6345 144.05Z" fill="#FFB6B6"/>
<path d="M114.654 174.529C115.888 173.927 116.128 171.897 115.19 169.995C114.253 168.093 112.492 167.039 111.258 167.64C110.025 168.242 109.785 170.272 110.722 172.174C111.66 174.077 113.421 175.131 114.654 174.529Z" fill="#FFB6B6"/>
<path d="M86.2915 118.545C90.1283 118.545 93.2387 115.451 93.2387 111.635C93.2387 107.818 90.1283 104.724 86.2915 104.724C82.4546 104.724 79.3442 107.818 79.3442 111.635C79.3442 115.451 82.4546 118.545 86.2915 118.545Z" fill="#FFB6B6"/>
<path d="M88.1613 118.249L88.0789 115.921C88.0789 115.921 83.8832 106.352 80.8972 107.532L79.4405 110.164C79.4405 110.164 78.2606 109.417 79.4635 107.761C80.6665 106.106 79.5657 106.575 79.5657 106.575C79.5657 106.575 78.0529 105.588 79.8623 104.772C81.6716 103.955 82.8416 101.369 86.444 104.362C88.4449 106.024 90.6818 108.696 92.2752 110.743C94.0636 113.041 93.4074 116.449 90.8206 117.799C90.0475 118.203 89.1583 118.411 88.1613 118.249H88.1613Z" fill="#111016"/>
<path d="M91.3839 128.92C89.314 131.515 87.9153 134.909 87.4723 138.414C85.8388 137.019 84.9963 134.497 84.9853 131.962C84.9744 129.427 85.7185 126.888 86.7794 124.619C86.79 124.596 86.8007 124.573 86.8114 124.551C88.4155 121.146 88.1269 117.002 86.0359 114.383C84.6255 112.617 83.4975 110.505 82.7489 108.173C82.3262 106.856 82.0478 105.246 82.7302 104C83.359 102.853 84.5597 102.464 85.6411 102.249C88.1105 101.759 90.6637 101.666 92.9611 102.605C95.2585 103.544 97.2746 105.635 97.9609 108.508C98.6471 111.381 97.7478 115.003 95.5881 116.698C96.1274 117.026 96.4102 117.858 96.2366 118.607C96.063 119.356 95.4502 119.948 94.8311 119.964C95.2256 120.011 95.3506 120.694 95.1356 121.129C94.9206 121.564 94.5137 121.79 94.1313 121.97C93.5867 122.226 92.9864 122.489 92.8396 123.368C92.7808 123.72 92.825 124.079 92.9421 124.392C93.2259 125.151 93.817 125.569 94.3872 125.963C92.9997 126.232 91.7159 127.525 91.2053 129.167" fill="#111016"/>
<path d="M95.8891 155.338C96.8178 156.5 96.8248 158.221 98.0587 159.176C98.5705 159.572 99.3057 159.783 99.934 159.552C100.557 159.324 100.91 158.75 100.98 158.112C101.055 157.432 100.772 156.787 100.364 156.257C99.9238 155.685 99.3574 155.143 98.7444 154.756C98.1765 154.398 97.4855 154.21 96.8286 154.426C96.1668 154.644 95.7752 155.177 95.7582 155.87C95.7463 156.353 95.8149 156.844 95.8505 157.326L95.959 158.792L96.1817 161.802C96.2038 162.1 96.6745 162.103 96.6523 161.802L96.304 157.094C96.2764 156.722 96.2335 156.347 96.2282 155.974C96.224 155.672 96.2748 155.375 96.4955 155.153C96.882 154.765 97.4925 154.731 97.9862 154.901C98.5983 155.112 99.1031 155.591 99.5496 156.041C99.984 156.479 100.41 157.006 100.505 157.634C100.58 158.133 100.436 158.734 99.9798 159.015C99.4793 159.323 98.8131 159.159 98.3682 158.826C97.7859 158.391 97.4809 157.671 97.2279 157.015C96.9558 156.311 96.6991 155.604 96.2218 155.007C96.0335 154.771 95.7025 155.104 95.8891 155.338V155.338Z" fill="#3F3D56"/>
<path d="M95.7771 154.851C95.3562 155.377 95.104 155.989 94.8654 156.613C94.6342 157.217 94.4017 157.855 93.9679 158.35C93.5907 158.78 93.0231 159.097 92.432 159.009C91.8618 158.924 91.521 158.421 91.482 157.875C91.4386 157.269 91.7232 156.717 92.1041 156.261C92.5162 155.768 93.0189 155.282 93.5748 154.953C94.0597 154.667 94.6484 154.526 95.1806 154.775C95.4118 154.883 95.6094 155.06 95.7007 155.302C95.8259 155.633 95.7632 156.016 95.7378 156.36C95.6074 158.122 95.4771 159.884 95.3467 161.646C95.3245 161.946 95.7951 161.945 95.8173 161.646C95.9486 159.871 96.0799 158.096 96.2112 156.321C96.24 155.932 96.2856 155.519 96.1429 155.145C96.0333 154.857 95.8325 154.624 95.5736 154.458C95.0249 154.105 94.327 154.11 93.7378 154.351C93.0656 154.627 92.4982 155.149 92.0053 155.668C91.522 156.178 91.1035 156.784 91.0209 157.496C90.9502 158.105 91.144 158.777 91.6426 159.165C92.1852 159.587 92.9184 159.555 93.5193 159.279C95.1407 158.533 95.1103 156.433 96.1099 155.182C96.2964 154.948 95.9656 154.615 95.7771 154.851V154.851Z" fill="#3F3D56"/>
<path d="M67.6874 134.32C67.6874 134.32 64.1317 137.671 58.1431 134.32L59.0788 145.489C59.0788 145.489 59.1629 145.516 59.3135 145.558C59.4223 145.951 59.7198 146.273 60.1237 146.4C61.4271 146.81 63.9339 147.368 65.6284 146.307C65.9818 146.086 66.1903 145.693 66.1903 145.278V145.245C66.3218 145.15 66.448 145.047 66.5646 144.931L67.6874 134.32V134.32Z" fill="#3F3D56"/>
<path d="M62.9152 135.996C65.5509 135.996 67.6874 135.246 67.6874 134.32C67.6874 133.395 65.5509 132.645 62.9152 132.645C60.2796 132.645 58.1431 133.395 58.1431 134.32C58.1431 135.246 60.2796 135.996 62.9152 135.996Z" fill="#FFCE63"/>
<path d="M60.295 134.506C60.5534 134.506 60.7629 134.34 60.7629 134.134C60.7629 133.929 60.5534 133.762 60.295 133.762C60.0366 133.762 59.8271 133.929 59.8271 134.134C59.8271 134.34 60.0366 134.506 60.295 134.506Z" fill="#3F3D56"/>
<path d="M64.9737 134.506C65.2321 134.506 65.4416 134.34 65.4416 134.134C65.4416 133.929 65.2321 133.762 64.9737 133.762C64.7153 133.762 64.5059 133.929 64.5059 134.134C64.5059 134.34 64.7153 134.506 64.9737 134.506Z" fill="#3F3D56"/>
<path d="M63.3833 132.31C63.3833 132.598 63.09 132.831 62.7282 132.831C62.3665 132.831 62.0732 132.598 62.0732 132.31C62.0732 132.022 62.7966 131.435 62.7282 131.789C62.6347 132.273 63.3833 132.022 63.3833 132.31Z" fill="#3F3D56"/>
<path d="M65.6289 133.613C65.6289 133.901 65.3356 134.134 64.9739 134.134C64.6121 134.134 64.3188 133.901 64.3188 133.613C64.3188 133.325 65.0422 132.738 64.9739 133.092C64.8803 133.576 65.6289 133.325 65.6289 133.613Z" fill="#3F3D56"/>
<path d="M64.3188 134.171C64.3188 134.459 64.0255 134.693 63.6638 134.693C63.302 134.693 63.0088 134.459 63.0088 134.171C63.0088 133.883 63.7321 133.297 63.6638 133.65C63.5702 134.134 64.3188 133.883 64.3188 134.171Z" fill="#3F3D56"/>
<path d="M62.6347 134.358C62.6347 134.645 62.3415 134.879 61.9797 134.879C61.618 134.879 61.3247 134.645 61.3247 134.358C61.3247 134.07 62.048 133.483 61.9797 133.836C61.8861 134.32 62.6347 134.07 62.6347 134.358Z" fill="#3F3D56"/>
<path d="M60.9501 133.799C60.9501 134.087 60.6569 134.32 60.2951 134.32C59.9334 134.32 59.6401 134.087 59.6401 133.799C59.6401 133.511 60.3635 132.924 60.2951 133.278C60.2016 133.762 60.9501 133.511 60.9501 133.799V133.799Z" fill="#3F3D56"/>
<path d="M61.6051 135.251C61.8635 135.251 62.0729 135.084 62.0729 134.879C62.0729 134.673 61.8635 134.506 61.6051 134.506C61.3467 134.506 61.1372 134.673 61.1372 134.879C61.1372 135.084 61.3467 135.251 61.6051 135.251Z" fill="#3F3D56"/>
<path d="M63.8512 135.251C64.1096 135.251 64.319 135.084 64.319 134.879C64.319 134.673 64.1096 134.506 63.8512 134.506C63.5928 134.506 63.3833 134.673 63.3833 134.879C63.3833 135.084 63.5928 135.251 63.8512 135.251Z" fill="#3F3D56"/>
<path d="M64.0712 133.427C64.0712 133.92 62.9458 133.703 62.9483 134.32C62.9572 136.537 61.9759 134.45 61.8254 133.427C61.7537 132.938 62.3281 132.533 62.9483 132.533C63.5684 132.533 64.0712 132.933 64.0712 133.427Z" fill="#3F3D56"/>
<path d="M113.489 163.652C113.489 163.652 109.933 167.003 103.944 163.652L104.88 174.821C104.88 174.821 104.964 174.848 105.115 174.89C105.224 175.282 105.521 175.605 105.925 175.732C107.228 176.141 109.735 176.7 111.43 175.639C111.783 175.418 111.992 175.025 111.992 174.61V174.577C112.123 174.482 112.249 174.379 112.366 174.263L113.489 163.652V163.652Z" fill="#3F3D56"/>
<path d="M108.717 165.328C111.352 165.328 113.489 164.578 113.489 163.652C113.489 162.727 111.352 161.977 108.717 161.977C106.081 161.977 103.944 162.727 103.944 163.652C103.944 164.578 106.081 165.328 108.717 165.328Z" fill="#FFCE63"/>
<path d="M106.096 163.838C106.355 163.838 106.564 163.672 106.564 163.466C106.564 163.26 106.355 163.094 106.096 163.094C105.838 163.094 105.628 163.26 105.628 163.466C105.628 163.672 105.838 163.838 106.096 163.838Z" fill="#3F3D56"/>
<path d="M110.775 163.838C111.033 163.838 111.243 163.672 111.243 163.466C111.243 163.26 111.033 163.094 110.775 163.094C110.517 163.094 110.307 163.26 110.307 163.466C110.307 163.672 110.517 163.838 110.775 163.838Z" fill="#3F3D56"/>
<path d="M109.185 161.642C109.185 161.93 108.891 162.163 108.53 162.163C108.168 162.163 107.875 161.93 107.875 161.642C107.875 161.354 108.598 160.767 108.53 161.121C108.436 161.605 109.185 161.354 109.185 161.642Z" fill="#3F3D56"/>
<path d="M111.43 162.945C111.43 163.233 111.137 163.466 110.775 163.466C110.413 163.466 110.12 163.233 110.12 162.945C110.12 162.657 110.843 162.07 110.775 162.424C110.682 162.908 111.43 162.657 111.43 162.945Z" fill="#3F3D56"/>
<path d="M110.12 163.503C110.12 163.791 109.827 164.025 109.465 164.025C109.103 164.025 108.81 163.791 108.81 163.503C108.81 163.215 109.533 162.629 109.465 162.982C109.371 163.466 110.12 163.215 110.12 163.503Z" fill="#3F3D56"/>
<path d="M108.436 163.689C108.436 163.977 108.143 164.211 107.781 164.211C107.419 164.211 107.126 163.977 107.126 163.689C107.126 163.402 107.849 162.815 107.781 163.168C107.687 163.652 108.436 163.402 108.436 163.689Z" fill="#3F3D56"/>
<path d="M106.751 163.131C106.751 163.419 106.458 163.652 106.096 163.652C105.735 163.652 105.441 163.419 105.441 163.131C105.441 162.843 106.165 162.256 106.096 162.61C106.003 163.094 106.751 162.843 106.751 163.131Z" fill="#3F3D56"/>
<path d="M107.406 164.583C107.665 164.583 107.874 164.416 107.874 164.211C107.874 164.005 107.665 163.838 107.406 163.838C107.148 163.838 106.938 164.005 106.938 164.211C106.938 164.416 107.148 164.583 107.406 164.583Z" fill="#3F3D56"/>
<path d="M109.652 164.583C109.911 164.583 110.12 164.416 110.12 164.211C110.12 164.005 109.911 163.838 109.652 163.838C109.394 163.838 109.185 164.005 109.185 164.211C109.185 164.416 109.394 164.583 109.652 164.583Z" fill="#3F3D56"/>
<path d="M109.872 162.759C109.872 163.252 108.747 163.035 108.75 163.652C108.759 165.869 107.777 163.782 107.627 162.759C107.555 162.27 108.129 161.865 108.75 161.865C109.37 161.865 109.872 162.265 109.872 162.759Z" fill="#3F3D56"/>
</g>
<circle cx="29.7077" cy="101.086" r="12.6965" fill="#292019"/>
<g clip-path="url(#clip2_96_3)">
<path d="M41.5581 101.087C41.5581 107.631 36.2523 112.936 29.7081 112.936C23.1633 112.936 17.8579 107.631 17.8579 101.087C17.8579 94.5403 23.1634 89.2358 29.7081 89.2358C36.2523 89.2358 41.5581 94.5403 41.5581 101.087" fill="white"/>
<path d="M30.9009 94.3587C30.1121 94.2229 29.3059 94.2229 28.517 94.3587C28.4579 94.37 28.4334 94.3111 28.4792 94.2766C28.5218 94.2488 29.7083 93.3425 29.7083 93.3425C29.7083 93.3425 30.8962 94.2488 30.9373 94.2766C30.983 94.3111 30.96 94.37 30.901 94.3587M28.8495 100.229C28.8495 100.229 28.7857 100.252 28.7691 100.304C29.0183 100.497 29.1904 100.932 29.7083 100.932C30.2262 100.932 30.3996 100.497 30.6488 100.304C30.6306 100.252 30.5668 100.229 30.5668 100.229C30.5668 100.229 30.244 100.304 29.7083 100.304C29.174 100.304 28.8495 100.229 28.8495 100.229M29.7083 99.4947C29.564 99.4947 29.5329 99.4422 29.4346 99.4422C29.3412 99.4422 29.1593 99.5158 29.1182 99.583C29.1214 99.6186 29.1364 99.652 29.1608 99.678C29.369 99.7108 29.4657 99.8273 29.7083 99.8273C29.9525 99.8273 30.0476 99.7108 30.2554 99.678C30.2806 99.6525 30.2958 99.6188 30.2982 99.583C30.2587 99.5158 30.0767 99.4422 29.9834 99.4422C29.8851 99.4422 29.8524 99.4947 29.7083 99.4947ZM41.542 101.735C41.5257 102.02 41.4991 102.302 41.4648 102.579C40.1246 102.798 39.6444 101.605 38.2697 101.664C38.3519 101.958 38.4192 102.257 38.4712 102.557C39.6036 102.554 40.0605 103.615 41.3207 103.459C41.2534 103.783 41.1748 104.103 41.0831 104.418C40.0868 104.517 39.7346 103.524 38.5824 103.552C38.5908 103.716 38.5957 103.882 38.5957 104.05C38.5957 104.142 38.594 104.235 38.5908 104.326C39.574 104.314 39.8933 105.224 40.8308 105.181C40.7144 105.5 40.5834 105.812 40.4408 106.115C39.7656 106.081 39.533 105.215 38.5088 105.283C38.4777 105.506 38.4418 105.725 38.3925 105.941C39.2841 105.878 39.4739 106.695 40.113 106.764C39.9492 107.059 39.7754 107.351 39.5888 107.628C39.2118 107.426 38.884 106.817 38.1663 106.777C38.2402 106.553 38.3057 106.322 38.3598 106.089C37.7238 106.089 36.9981 105.84 36.39 105.288C36.5866 104.162 34.8434 103.018 34.8434 102.194C34.8434 101.301 35.294 100.807 35.294 99.5992C35.294 98.7061 34.8595 97.7344 34.2043 97.069C34.0818 96.9455 33.9454 96.8366 33.7979 96.7446C34.4008 97.4885 34.8628 98.3734 34.8628 99.3962C34.8628 100.53 34.3353 101.13 34.3353 102.177C34.3353 103.226 35.8657 104.134 35.8657 105.211C35.8657 105.637 35.7314 106.053 35.2825 106.869C35.9722 107.556 36.8684 107.931 37.4455 107.931C37.6319 107.931 37.7338 107.875 37.8024 107.724C37.8582 107.6 37.9141 107.469 37.9661 107.339C38.5889 107.362 38.8739 107.931 39.2182 108.156C39.0297 108.411 38.8299 108.655 38.6216 108.894C38.3922 108.639 38.0809 108.206 37.6255 108.088C37.5437 108.246 37.4584 108.403 37.3683 108.555C37.7599 108.66 38.0286 109.056 38.2352 109.316C38.0107 109.547 37.7795 109.77 37.537 109.981C37.3864 109.747 37.1502 109.448 36.8865 109.288C36.7881 109.419 36.6868 109.547 36.5832 109.675C36.806 109.825 37.0046 110.099 37.1339 110.322C36.8552 110.548 36.5637 110.758 36.2656 110.959C36.1179 109.755 34.4762 108.931 34.9188 107.534C34.773 107.78 34.5989 108.088 34.5989 108.459C34.5989 109.47 35.6757 110.271 35.7626 111.276C35.5382 111.407 35.3103 111.535 35.0794 111.652C35.0397 110.55 33.8996 109.342 33.8996 108.434C33.8996 107.423 35.2234 106.408 35.2234 105.211C35.2234 104.017 33.6964 103.19 33.6964 102.143C33.6964 101.094 34.3452 100.489 34.3452 99.1438C34.3452 98.1603 33.8782 97.1655 33.1554 96.5281C33.0332 96.4172 32.8972 96.3225 32.7508 96.2462C33.4323 97.0656 33.8273 97.8046 33.8273 98.9305C33.8273 100.196 33.0834 100.894 33.0834 102.133C33.0834 103.37 34.581 104.058 34.581 105.211C34.581 106.364 33.1851 107.338 33.1851 108.523C33.1851 109.601 34.4172 110.677 34.4335 111.957C34.165 112.074 33.8928 112.18 33.6111 112.28C33.7686 110.986 32.384 109.653 32.384 108.6C32.384 107.444 33.8306 106.456 33.8306 105.211C33.8306 103.968 32.3593 103.39 32.3593 102.116C32.3593 100.838 33.2637 100.134 33.2637 98.724C33.2637 97.6244 32.7214 96.6364 31.9283 96.0234C31.912 96.0101 31.8954 95.9988 31.8776 95.9855C31.8037 95.9316 31.7415 95.9988 31.7957 96.0643C32.3561 96.7639 32.6576 97.4721 32.6576 98.5226C32.6576 99.809 31.6184 100.858 31.6184 102.107C31.6184 103.582 33.0115 104.004 33.0115 105.211C33.0115 106.42 31.517 107.39 31.517 108.673C31.517 109.864 32.9327 111.186 32.6868 112.559C32.405 112.632 32.1165 112.697 31.8267 112.749C32.0922 111.038 30.704 109.809 30.704 108.69C30.704 107.476 32.2511 106.397 32.2511 105.211C32.2511 104.096 31.1402 103.731 30.996 102.588C30.9762 102.431 30.8502 102.316 30.678 102.346C30.4519 102.387 30.162 102.534 29.7081 102.534C29.2543 102.534 28.9642 102.387 28.7396 102.346C28.5677 102.316 28.4414 102.431 28.4201 102.588C28.2759 103.731 27.165 104.096 27.165 105.211C27.165 106.397 28.7118 107.476 28.7118 108.69C28.7118 109.809 27.3255 111.038 27.591 112.749C27.2993 112.697 27.011 112.632 26.7292 112.559C26.4867 111.186 27.8991 109.864 27.8991 108.673C27.8991 107.39 26.4046 106.42 26.4046 105.211C26.4046 104.004 27.7991 103.582 27.7991 102.107C27.7991 100.858 26.7618 99.809 26.7618 98.5226C26.7618 97.4721 27.0618 96.7639 27.6204 96.0643C27.6745 95.9987 27.6139 95.9315 27.5386 95.9855C27.5222 95.9988 27.5042 96.0101 27.4894 96.0234C26.6948 96.6366 26.1525 97.6246 26.1525 98.7242C26.1525 100.134 27.057 100.838 27.057 102.117C27.057 103.39 25.5855 103.968 25.5855 105.211C25.5855 106.456 27.0342 107.444 27.0342 108.6C27.0342 109.653 25.6479 110.986 25.8052 112.28C25.5249 112.181 25.2513 112.074 24.9826 111.958C25.0005 110.678 26.2312 109.601 26.2312 108.523C26.2312 107.338 24.8349 106.364 24.8349 105.211C24.8349 104.059 26.3344 103.37 26.3344 102.133C26.3344 100.894 25.5904 100.196 25.5904 98.9307C25.5904 97.8048 25.9853 97.0658 26.6669 96.2464C26.52 96.3226 26.3834 96.4173 26.2606 96.5283C25.5396 97.1657 25.071 98.1605 25.071 99.144C25.071 100.489 25.7216 101.094 25.7216 102.143C25.7216 103.19 24.1928 104.018 24.1928 105.211C24.1928 106.408 25.5184 107.423 25.5184 108.434C25.5184 109.342 24.378 110.55 24.3403 111.653C24.1059 111.535 23.8783 111.407 23.6553 111.276C23.7406 110.271 24.8172 109.47 24.8172 108.459C24.8172 108.088 24.6452 107.78 24.4977 107.535C24.9417 108.931 23.2982 109.755 23.1506 110.96C22.8524 110.758 22.5624 110.548 22.2823 110.322C22.4118 110.099 22.6099 109.825 22.8345 109.675C22.7297 109.547 22.6279 109.419 22.5313 109.288C22.2658 109.449 22.03 109.747 21.8792 109.981C21.6382 109.77 21.4056 109.547 21.1812 109.316C21.3893 109.057 21.658 108.66 22.048 108.556C21.958 108.403 21.8726 108.246 21.7906 108.088C21.3352 108.206 21.0238 108.639 20.7945 108.895C20.5881 108.656 20.3881 108.411 20.1982 108.156C20.542 107.931 20.8273 107.363 21.45 107.339C21.5025 107.469 21.5581 107.6 21.6155 107.725C21.6826 107.875 21.7841 107.931 21.9709 107.931C22.5478 107.931 23.4456 107.556 24.1339 106.869C23.685 106.053 23.5505 105.637 23.5505 105.211C23.5505 104.134 25.0811 103.226 25.0811 102.177C25.0811 101.13 24.5534 100.53 24.5534 99.3964C24.5534 98.3736 25.0155 97.4887 25.6183 96.7448C25.4712 96.8374 25.3349 96.9462 25.2121 97.0692C24.5583 97.7346 24.1226 98.7063 24.1226 99.5994C24.1224 100.807 24.5746 101.301 24.5746 102.194C24.5746 103.018 22.8295 104.162 23.0278 105.288C22.4199 105.84 21.6922 106.089 21.0567 106.089C21.1124 106.322 21.1762 106.553 21.2499 106.777C20.5322 106.817 20.2046 107.426 19.8277 107.628C19.6425 107.351 19.4671 107.059 19.3034 106.764C19.9423 106.695 20.1324 105.878 21.0238 105.942C20.9779 105.725 20.9387 105.506 20.9074 105.283C19.8834 105.216 19.6507 106.081 18.9756 106.115C18.8332 105.812 18.7032 105.501 18.5856 105.181C19.5228 105.224 19.8424 104.314 20.8271 104.326C20.8238 104.236 20.8205 104.142 20.8205 104.05C20.8205 103.882 20.8271 103.716 20.8353 103.552C19.6801 103.524 19.3327 104.518 18.3331 104.418C18.2414 104.103 18.1628 103.783 18.0973 103.459C19.3557 103.615 19.813 102.554 20.9468 102.557C20.9973 102.256 21.064 101.958 21.1467 101.664C19.7719 101.605 19.2936 102.798 17.9515 102.579C17.9171 102.302 17.8925 102.02 17.8777 101.735C19.436 101.91 20.0209 100.627 21.4401 100.784C21.5736 100.446 21.7285 100.117 21.9037 99.7993C20.1243 99.4897 19.5196 100.976 17.8647 100.748C18.0415 94.3587 23.2768 89.2358 29.7083 89.2358C36.1413 89.2358 41.3746 94.3587 41.5534 100.748C39.8968 100.976 39.2937 99.4897 37.5125 99.7994C37.6884 100.117 37.8438 100.446 37.9779 100.784C39.3954 100.627 39.9819 101.91 41.542 101.735M24.6153 96.7642C23.7437 96.4102 22.6852 96.4907 21.7839 97.0691C21.6449 96.2317 21.1876 95.4844 20.5387 95.037C20.4503 94.9747 20.3569 95.0337 20.3652 95.1371C20.5027 96.9119 19.4656 98.4507 18.189 99.8043C19.5049 100.199 20.624 98.5047 22.328 99.0978C22.9397 98.1852 23.7152 97.3939 24.6154 96.7642M29.7083 95.6925C28.607 95.6925 27.6862 96.3152 27.4454 97.1182C27.4273 97.1805 27.4534 97.22 27.5223 97.1904C27.7332 97.0987 27.9611 97.0529 28.1909 97.0562C28.6398 97.0562 29.0347 97.22 29.2692 97.5082C29.3741 97.8492 29.3804 98.3426 29.2642 98.6258C29.0806 98.5833 29.0134 98.4409 28.8332 98.4409C28.653 98.4409 28.5119 98.5685 28.2072 98.5685C27.9008 98.5685 27.8648 98.4244 27.6632 98.4244C27.4273 98.4244 27.3848 98.6669 27.3848 98.9406C27.3848 100.168 28.5103 101.854 29.7083 101.854C30.9076 101.854 32.0316 100.168 32.0316 98.9406C32.0316 98.6669 31.9758 98.4326 31.7285 98.4014C31.6054 98.4883 31.4941 98.5685 31.2091 98.5685C30.9042 98.5685 30.8191 98.4409 30.6388 98.4409C30.4226 98.4409 30.444 98.8981 30.1833 98.9259C30.0128 98.5112 30.0048 97.982 30.1474 97.5083C30.3816 97.22 30.7765 97.0562 31.2255 97.0562C31.4714 97.0562 31.6973 97.1003 31.894 97.1904C31.9644 97.22 31.989 97.1805 31.9726 97.1183C31.7301 96.3153 30.8093 95.6925 29.7082 95.6925M31.4613 97.4527C31.1958 97.4527 30.8879 97.5346 30.6912 97.7493C30.6714 97.8082 30.6714 97.8968 30.701 97.9541C31.1795 97.7902 31.6007 97.7838 31.8054 98.0114C31.9121 97.9131 31.9463 97.8247 31.9463 97.7212C31.9463 97.5607 31.7858 97.4527 31.4614 97.4527M27.6125 98.0114C27.8434 97.7805 28.3285 97.7902 28.8332 97.9771C28.856 97.7263 28.4071 97.4527 27.9583 97.4527C27.6305 97.4527 27.4699 97.5607 27.4699 97.7213C27.4699 97.8247 27.5028 97.9131 27.6126 98.0115M35.1941 93.862C34.3258 93.9226 33.5687 94.221 32.9593 94.719C33.2088 94.0128 33.5467 93.3411 33.9651 92.7198C32.8609 92.8362 31.935 93.241 31.2615 93.9325L30.7323 92.5476L31.9039 91.5121L30.3341 91.4005L29.7083 89.9404L29.0823 91.4005L27.5125 91.512L28.6842 92.5476L28.1566 93.9325C27.483 93.241 26.5572 92.8361 25.4511 92.7198C25.8703 93.3406 26.2084 94.0125 26.4573 94.719C25.8476 94.2209 25.0922 93.9225 24.2239 93.8619C24.7449 94.5322 25.207 95.2467 25.5494 96.0137C25.5872 96.1021 25.6707 96.13 25.7592 96.0824C26.9875 95.4766 28.3386 95.1615 29.7081 95.1615C31.0776 95.1615 32.4288 95.4766 33.657 96.0824C33.7457 96.13 33.8292 96.1021 33.8668 96.0137C34.2108 95.2467 34.6713 94.5322 35.194 93.8619M37.0884 99.0978C38.7925 98.5047 39.9131 100.199 41.2257 99.8043C39.9524 98.4507 38.9136 96.9119 39.0512 95.1371C39.0594 95.0337 38.966 94.9747 38.8774 95.037C38.2286 95.4844 37.7731 96.2317 37.632 97.0691C36.7308 96.4907 35.6742 96.4102 34.8023 96.7642C35.7017 97.3944 36.4768 98.1856 37.0884 99.0978Z" fill="#006F3F"/>
</g>
<path d="M13.4985 100.919C13.4985 96.6647 15.1886 92.5843 18.1972 89.5758C21.2057 86.5673 25.2861 84.8771 29.5408 84.8771C33.7955 84.8771 37.8759 86.5673 40.8844 89.5758C43.8929 92.5843 45.5831 96.6647 45.5831 100.919L41.8386 100.919C41.8386 97.6579 40.5429 94.5299 38.2366 92.2236C35.9303 89.9173 32.8024 88.6216 29.5408 88.6216C26.2792 88.6216 23.1512 89.9173 20.8449 92.2236C18.5386 94.5299 17.243 97.6579 17.243 100.919L13.4985 100.919Z" fill="#292019"/>
<rect x="33.9395" y="74" width="2.5393" height="13.5429" fill="#292019"/>
<rect x="22.936" y="74" width="2.5393" height="13.5429" fill="#292019"/>
<rect x="-16" y="74" width="73.6397" height="5.0786" rx="1" fill="#292019"/>
</g>
<defs>
<filter id="filter0_d_96_3" x="74.1948" y="123.02" width="10.4331" height="18.7654" filterUnits="userSpaceOnUse" color-interpolation-filters="sRGB">
<feFlood flood-opacity="0" result="BackgroundImageFix"/>
<feColorMatrix in="SourceAlpha" type="matrix" values="0 0 0 0 0 0 0 0 0 0 0 0 0 0 0 0 0 0 127 0" result="hardAlpha"/>
<feOffset dy="4"/>
<feGaussianBlur stdDeviation="2"/>
<feComposite in2="hardAlpha" operator="out"/>
<feColorMatrix type="matrix" values="0 0 0 0 0 0 0 0 0 0 0 0 0 0 0 0 0 0 0.25 0"/>
<feBlend mode="normal" in2="BackgroundImageFix" result="effect1_dropShadow_96_3"/>
<feBlend mode="normal" in="SourceGraphic" in2="effect1_dropShadow_96_3" result="shape"/>
</filter>
<clipPath id="clip0_96_3">
<rect width="140" height="182" fill="white"/>
</clipPath>
<clipPath id="clip1_96_3">
<rect width="68" height="95" fill="white" transform="translate(57 81.25)"/>
</clipPath>
<clipPath id="clip2_96_3">
<rect width="23.7001" height="23.7001" fill="white" transform="translate(17.8579 89.2358)"/>
</clipPath>
</defs>
</svg>
